<svg width="500" height="500" viewBox="0 0 500 500" fill="none" xmlns="http://www.w3.org/2000/svg">
<path d="M238.4 445.05H45.2998C43.7855 445.05 42.3331 444.448 41.2623 443.378C40.1914 442.307 39.5898 440.854 39.5898 439.34V60.66C39.603 59.1543 40.2104 57.7147 41.2798 56.6547C42.3492 55.5947 43.7941 54.9999 45.2998 55H238.4C239.15 55 239.892 55.1477 240.585 55.4346C241.278 55.7216 241.907 56.1422 242.437 56.6724C242.968 57.2026 243.388 57.8321 243.675 58.5249C243.962 59.2176 244.11 59.9602 244.11 60.71V439.34C244.11 440.09 243.962 440.832 243.675 441.525C243.388 442.218 242.968 442.847 242.437 443.378C241.907 443.908 241.278 444.328 240.585 444.615C239.892 444.902 239.15 445.05 238.4 445.05ZM45.2998 55.2C43.8526 55.2026 42.4653 55.7787 41.442 56.8021C40.4186 57.8255 39.8425 59.2127 39.8398 60.66V439.34C39.8425 440.787 40.4186 442.174 41.442 443.198C42.4653 444.221 43.8526 444.797 45.2998 444.8H238.4C239.847 444.797 241.234 444.221 242.258 443.198C243.281 442.174 243.857 440.787 243.86 439.34V60.66C243.857 59.2127 243.281 57.8255 242.258 56.8021C241.234 55.7787 239.847 55.2026 238.4 55.2H45.2998Z" fill="#EBEBEB"/>
<path d="M454.701 445.05H261.601C260.086 445.05 258.634 444.448 257.563 443.378C256.492 442.307 255.891 440.854 255.891 439.34V60.66C255.904 59.1543 256.511 57.7147 257.581 56.6547C258.65 55.5947 260.095 54.9999 261.601 55H454.701C456.215 55 457.667 55.6016 458.738 56.6724C459.809 57.7433 460.411 59.1956 460.411 60.71V439.34C460.411 440.09 460.263 440.832 459.976 441.525C459.689 442.218 459.268 442.847 458.738 443.378C458.208 443.908 457.579 444.328 456.886 444.615C456.193 444.902 455.45 445.05 454.701 445.05ZM261.601 55.2C260.153 55.2026 258.766 55.7787 257.743 56.8021C256.719 57.8255 256.143 59.2127 256.141 60.66V439.34C256.143 440.787 256.719 442.174 257.743 443.198C258.766 444.221 260.153 444.797 261.601 444.8H454.701C456.148 444.797 457.535 444.221 458.559 443.198C459.582 442.174 460.158 440.787 460.161 439.34V60.66C460.158 59.2127 459.582 57.8255 458.559 56.8021C457.535 55.7787 456.148 55.2026 454.701 55.2H261.601Z" fill="#EBEBEB"/>
<path d="M113.05 168.25L114.67 171.52L118.29 172.05L115.67 174.6L116.29 178.2L113.05 176.5L109.82 178.2L110.44 174.6L107.82 172.05L111.44 171.52L113.05 168.25Z" fill="#EBEBEB"/>
<path d="M436.699 322.48L438.319 325.76L441.939 326.29L439.319 328.83L439.939 332.44L436.699 330.74L433.469 332.44L434.089 328.83L431.469 326.29L435.089 325.76L436.699 322.48Z" fill="#F5F5F5"/>
<path d="M372.601 417.57L374.221 420.84L377.831 421.37L375.211 423.92L375.831 427.52L372.601 425.82L369.371 427.52L369.981 423.92L367.371 421.37L370.981 420.84L372.601 417.57Z" fill="#F5F5F5"/>
<path d="M225.939 110.15L226.539 111.37L227.889 111.57C227.964 111.58 228.035 111.611 228.093 111.659C228.151 111.708 228.195 111.772 228.218 111.845C228.241 111.917 228.243 111.995 228.223 112.068C228.204 112.142 228.164 112.208 228.109 112.26L227.109 113.21L227.339 114.55C227.35 114.624 227.341 114.701 227.312 114.77C227.284 114.84 227.236 114.901 227.175 114.945C227.114 114.99 227.042 115.016 226.967 115.023C226.891 115.029 226.816 115.014 226.749 114.98L225.549 114.34L224.349 114.98C224.281 115.014 224.206 115.029 224.13 115.023C224.055 115.016 223.983 114.99 223.922 114.945C223.861 114.901 223.813 114.84 223.785 114.77C223.756 114.701 223.747 114.624 223.759 114.55L223.979 113.21L222.979 112.26C222.923 112.207 222.883 112.14 222.864 112.066C222.845 111.992 222.848 111.914 222.872 111.841C222.896 111.768 222.941 111.704 223.001 111.656C223.06 111.608 223.132 111.578 223.209 111.57L224.549 111.37L225.149 110.15C225.173 110.063 225.224 109.987 225.295 109.933C225.367 109.879 225.454 109.85 225.544 109.85C225.633 109.85 225.72 109.879 225.792 109.933C225.863 109.987 225.915 110.063 225.939 110.15Z" fill="#EBEBEB"/>
<path d="M60.7785 402L61.3785 403.21L62.7185 403.41C62.7946 403.421 62.8662 403.452 62.9252 403.502C62.9841 403.551 63.0281 403.616 63.0521 403.688C63.0761 403.761 63.0791 403.84 63.0607 403.914C63.0424 403.989 63.0036 404.057 62.9485 404.11L61.9485 405.05L62.1785 406.39C62.1903 406.465 62.1813 406.541 62.1525 406.611C62.1236 406.681 62.0761 406.741 62.015 406.786C61.954 406.83 61.8819 406.857 61.8066 406.863C61.7314 406.869 61.6559 406.854 61.5885 406.82L60.3885 406.19L59.1885 406.82C59.1211 406.854 59.0457 406.869 58.9704 406.863C58.8951 406.857 58.823 406.83 58.762 406.786C58.701 406.741 58.6534 406.681 58.6246 406.611C58.5957 406.541 58.5867 406.465 58.5985 406.39L58.8285 405.05L57.8285 404.11C57.7737 404.057 57.7346 403.99 57.7158 403.916C57.697 403.843 57.6991 403.765 57.722 403.692C57.7448 403.62 57.7875 403.555 57.8452 403.505C57.9028 403.455 57.9733 403.422 58.0485 403.41L59.3885 403.21L59.9985 402C60.0252 401.918 60.0774 401.846 60.1474 401.795C60.2175 401.744 60.3019 401.717 60.3885 401.717C60.4751 401.717 60.5595 401.744 60.6296 401.795C60.6997 401.846 60.7518 401.918 60.7785 402Z" fill="#F5F5F5"/>
<path d="M87.7481 97.3009L88.3481 98.5209L89.6981 98.7109C89.7734 98.7229 89.8438 98.7556 89.9015 98.8054C89.9591 98.8552 90.0018 98.9201 90.0247 98.9928C90.0475 99.0655 90.0496 99.1432 90.0308 99.217C90.012 99.2908 89.973 99.358 89.9181 99.4109L88.9181 100.411L89.1481 101.741C89.1641 101.816 89.1579 101.895 89.1303 101.967C89.1026 102.039 89.0548 102.102 88.9924 102.147C88.93 102.192 88.8558 102.219 88.7788 102.223C88.7017 102.227 88.6251 102.209 88.5581 102.171L87.3581 101.541L86.1581 102.171C86.0912 102.209 86.0145 102.227 85.9375 102.223C85.8604 102.219 85.7862 102.192 85.7239 102.147C85.6615 102.102 85.6136 102.039 85.586 101.967C85.5583 101.895 85.5521 101.816 85.5681 101.741L85.7881 100.411L84.7881 99.4109C84.7331 99.3573 84.6942 99.2894 84.6759 99.2148C84.6576 99.1402 84.6606 99.062 84.6845 98.9891C84.7085 98.9161 84.7525 98.8514 84.8115 98.8022C84.8704 98.753 84.942 98.7214 85.0181 98.7109L86.3581 98.5209L86.9981 97.3009C87.0302 97.2282 87.0828 97.1664 87.1494 97.1231C87.2159 97.0797 87.2937 97.0566 87.3731 97.0566C87.4526 97.0566 87.5303 97.0797 87.5969 97.1231C87.6635 97.1664 87.716 97.2282 87.7481 97.3009Z" fill="#EBEBEB"/>
<path d="M86.1287 338.32C86.1307 338.583 86.0544 338.842 85.9094 339.062C85.7645 339.282 85.5575 339.454 85.3146 339.556C85.0718 339.658 84.8041 339.686 84.5454 339.636C84.2868 339.585 84.0489 339.46 83.8619 339.274C83.6748 339.088 83.5472 338.851 83.495 338.593C83.4429 338.335 83.4687 338.067 83.569 337.823C83.6694 337.58 83.8398 337.371 84.0588 337.225C84.2777 337.078 84.5352 337 84.7987 337C85.1497 337 85.4865 337.139 85.7356 337.386C85.9848 337.633 86.1261 337.969 86.1287 338.32Z" fill="#EBEBEB"/>
<path d="M275.672 171.89C275.674 172.154 275.597 172.412 275.452 172.632C275.307 172.852 275.1 173.024 274.858 173.126C274.615 173.228 274.347 173.256 274.088 173.206C273.83 173.156 273.592 173.03 273.405 172.844C273.218 172.659 273.09 172.422 273.038 172.164C272.986 171.905 273.012 171.637 273.112 171.394C273.212 171.15 273.383 170.942 273.602 170.795C273.821 170.649 274.078 170.57 274.342 170.57C274.516 170.569 274.689 170.602 274.85 170.668C275.011 170.734 275.158 170.831 275.282 170.953C275.405 171.076 275.503 171.222 275.57 171.383C275.637 171.544 275.672 171.716 275.672 171.89Z" fill="#EBEBEB"/>
<path d="M206.711 98.4003C206.711 98.6634 206.633 98.9205 206.487 99.1392C206.34 99.3579 206.133 99.5284 205.89 99.6291C205.647 99.7297 205.379 99.7561 205.121 99.7048C204.863 99.6534 204.626 99.5268 204.44 99.3408C204.254 99.1548 204.128 98.9178 204.076 98.6598C204.025 98.4018 204.051 98.1344 204.152 97.8913C204.253 97.6483 204.423 97.4406 204.642 97.2945C204.861 97.1483 205.118 97.0703 205.381 97.0703C205.733 97.0729 206.069 97.2139 206.318 97.4628C206.567 97.7116 206.708 98.0484 206.711 98.4003Z" fill="#F5F5F5"/>
<path d="M208.815 422.544C212.766 421.612 215.213 417.653 214.28 413.703C213.348 409.752 209.389 407.305 205.439 408.237C201.488 409.17 199.041 413.128 199.974 417.079C200.906 421.03 204.865 423.477 208.815 422.544Z" fill="#F0F0F0"/>
<path d="M204.598 411.09C203.093 411.087 201.625 411.563 200.408 412.45C199.787 413.876 199.634 415.462 199.973 416.98C200.311 418.498 201.123 419.869 202.291 420.896C203.459 421.923 204.923 422.552 206.472 422.693C208.021 422.834 209.574 422.479 210.908 421.68C211.499 420.587 211.796 419.36 211.77 418.119C211.743 416.877 211.395 415.664 210.759 414.597C210.123 413.531 209.221 412.648 208.141 412.035C207.061 411.421 205.84 411.099 204.598 411.1V411.09Z" fill="#E6E6E6"/>
<path d="M147.678 287.64H86.8281V260.17L147.678 187.83H176.798V261.73H191.888V287.64H176.798V310.12H147.678V287.64ZM147.678 261.73V223.89L115.518 261.73H147.678Z" fill="#2463EB"/>
<path d="M202.297 249.511C202.297 226.651 206.41 210.651 214.637 201.511C222.863 192.371 235.4 187.804 252.247 187.811C260.333 187.811 266.977 188.811 272.177 190.811C276.901 192.513 281.226 195.164 284.887 198.601C287.972 201.547 290.586 204.95 292.637 208.691C294.666 212.596 296.194 216.742 297.187 221.031C299.448 230.191 300.576 239.595 300.547 249.031C300.547 270.844 296.857 286.807 289.477 296.921C282.097 307.034 269.387 312.094 251.347 312.101C241.227 312.101 233.05 310.487 226.817 307.261C220.533 303.981 215.241 299.082 211.487 293.071C208.587 288.644 206.33 282.587 204.717 274.901C203.042 266.543 202.231 258.034 202.297 249.511ZM235.437 249.591C235.437 264.924 236.787 275.381 239.487 280.961C242.187 286.541 246.11 289.344 251.257 289.371C252.89 289.389 254.511 289.083 256.025 288.47C257.539 287.857 258.916 286.95 260.077 285.801C262.57 283.421 264.403 279.661 265.577 274.521C266.75 269.381 267.337 261.381 267.337 250.521C267.337 234.561 265.983 223.831 263.277 218.331C260.57 212.831 256.51 210.084 251.097 210.091C245.577 210.091 241.577 212.894 239.097 218.501C236.617 224.107 235.397 234.471 235.437 249.591Z" fill="#2463EB"/>
<path d="M371.737 287.64H310.887V260.17L371.737 187.83H400.857V261.73H415.997V287.64H400.857V310.12H371.737V287.64ZM371.737 261.73V223.89L339.587 261.73H371.737Z" fill="#2463EB"/>
<g opacity="0.3">
<path d="M200.998 145.62C200.998 145.99 200.888 146.352 200.682 146.66C200.476 146.968 200.183 147.207 199.841 147.349C199.499 147.49 199.122 147.526 198.759 147.453C198.396 147.38 198.063 147.201 197.802 146.939C197.541 146.676 197.364 146.342 197.293 145.979C197.222 145.615 197.26 145.239 197.403 144.897C197.546 144.556 197.787 144.265 198.096 144.06C198.405 143.856 198.768 143.748 199.138 143.75C199.383 143.75 199.626 143.798 199.852 143.893C200.078 143.987 200.284 144.125 200.457 144.298C200.629 144.472 200.766 144.678 200.859 144.905C200.952 145.132 200.999 145.375 200.998 145.62Z" fill="#2463EB"/>
<path d="M72.9684 217.451C73.6975 217.451 74.2884 216.86 74.2884 216.131C74.2884 215.402 73.6975 214.811 72.9684 214.811C72.2394 214.811 71.6484 215.402 71.6484 216.131C71.6484 216.86 72.2394 217.451 72.9684 217.451Z" fill="#2463EB"/>
<path d="M291.05 410.219C292.094 410.219 292.94 409.373 292.94 408.329C292.94 407.286 292.094 406.439 291.05 406.439C290.006 406.439 289.16 407.286 289.16 408.329C289.16 409.373 290.006 410.219 291.05 410.219Z" fill="#2463EB"/>
<path d="M336.5 333.32C337.229 333.32 337.82 332.729 337.82 332C337.82 331.271 337.229 330.68 336.5 330.68C335.771 330.68 335.18 331.271 335.18 332C335.18 332.729 335.771 333.32 336.5 333.32Z" fill="#2463EB"/>
<path d="M424.167 95.6188C424.167 95.8799 424.09 96.1351 423.945 96.3522C423.8 96.5693 423.594 96.7384 423.352 96.8383C423.111 96.9383 422.846 96.9644 422.59 96.9135C422.334 96.8625 422.099 96.7368 421.914 96.5522C421.729 96.3676 421.604 96.1324 421.553 95.8763C421.502 95.6203 421.528 95.3549 421.628 95.1137C421.728 94.8725 421.897 94.6663 422.114 94.5213C422.331 94.3762 422.586 94.2988 422.847 94.2988C423.197 94.2988 423.533 94.4379 423.781 94.6854C424.028 94.933 424.167 95.2687 424.167 95.6188Z" fill="#2463EB"/>
<path d="M172.749 68.9997C172.749 69.2608 172.672 69.516 172.527 69.733C172.382 69.9501 172.176 70.1193 171.935 70.2192C171.693 70.3191 171.428 70.3453 171.172 70.2943C170.916 70.2434 170.681 70.1177 170.496 69.9331C170.311 69.7485 170.186 69.5133 170.135 69.2572C170.084 69.0012 170.11 68.7357 170.21 68.4945C170.31 68.2533 170.479 68.0472 170.696 67.9021C170.913 67.7571 171.168 67.6797 171.429 67.6797C171.779 67.6823 172.113 67.8222 172.36 68.0692C172.607 68.3162 172.747 68.6504 172.749 68.9997Z" fill="#2463EB"/>
<path d="M277.699 138.259C278.428 138.259 279.019 137.668 279.019 136.939C279.019 136.21 278.428 135.619 277.699 135.619C276.97 135.619 276.379 136.21 276.379 136.939C276.379 137.668 276.97 138.259 277.699 138.259Z" fill="#2463EB"/>
</g>
<path d="M141.23 138.269C153.331 138.269 163.14 128.46 163.14 116.359C163.14 104.259 153.331 94.4492 141.23 94.4492C129.13 94.4492 119.32 104.259 119.32 116.359C119.32 128.46 129.13 138.269 141.23 138.269Z" fill="#2463EB"/>
<path opacity="0.7" d="M141.23 138.269C153.331 138.269 163.14 128.46 163.14 116.359C163.14 104.259 153.331 94.4492 141.23 94.4492C129.13 94.4492 119.32 104.259 119.32 116.359C119.32 128.46 129.13 138.269 141.23 138.269Z" fill="white"/>
<path opacity="0.2" d="M133.68 99.8302C130.696 99.821 127.742 100.423 125 101.6C121.63 105.304 119.629 110.05 119.332 115.049C119.034 120.048 120.457 124.998 123.364 129.075C126.27 133.153 130.485 136.112 135.308 137.462C140.13 138.811 145.269 138.468 149.87 136.49C152.722 133.347 154.6 129.443 155.277 125.253C155.953 121.062 155.398 116.766 153.679 112.885C151.961 109.003 149.152 105.705 145.595 103.389C142.037 101.074 137.884 99.8408 133.64 99.8402L133.68 99.8302Z" fill="#2463EB"/>
<path opacity="0.2" d="M131.5 105.619C131.5 106.015 131.383 106.401 131.163 106.73C130.943 107.059 130.631 107.316 130.265 107.467C129.9 107.618 129.498 107.658 129.11 107.581C128.722 107.504 128.365 107.313 128.086 107.033C127.806 106.754 127.616 106.397 127.538 106.009C127.461 105.621 127.501 105.219 127.652 104.854C127.804 104.488 128.06 104.176 128.389 103.956C128.718 103.736 129.104 103.619 129.5 103.619C130.03 103.619 130.539 103.83 130.914 104.205C131.289 104.58 131.5 105.089 131.5 105.619Z" fill="#2463EB"/>
<path opacity="0.2" d="M155.059 103.619C155.059 104.015 154.941 104.401 154.722 104.73C154.502 105.059 154.189 105.316 153.824 105.467C153.459 105.618 153.056 105.658 152.668 105.581C152.28 105.504 151.924 105.313 151.644 105.033C151.365 104.754 151.174 104.397 151.097 104.009C151.02 103.621 151.059 103.219 151.211 102.854C151.362 102.488 151.619 102.176 151.947 101.956C152.276 101.736 152.663 101.619 153.059 101.619C153.589 101.619 154.098 101.83 154.473 102.205C154.848 102.58 155.059 103.089 155.059 103.619Z" fill="#2463EB"/>
<path opacity="0.2" d="M151.06 117.899C151.06 118.548 150.868 119.182 150.507 119.721C150.147 120.261 149.635 120.681 149.035 120.929C148.436 121.178 147.776 121.243 147.14 121.116C146.504 120.99 145.919 120.677 145.461 120.218C145.002 119.76 144.69 119.175 144.563 118.539C144.436 117.903 144.501 117.243 144.75 116.644C144.998 116.045 145.418 115.532 145.958 115.172C146.497 114.812 147.131 114.619 147.78 114.619C148.65 114.619 149.484 114.965 150.099 115.58C150.714 116.195 151.06 117.029 151.06 117.899Z" fill="#2463EB"/>
<path opacity="0.2" d="M140.639 127.249C140.639 128.115 140.382 128.962 139.901 129.683C139.419 130.403 138.735 130.964 137.935 131.296C137.135 131.627 136.254 131.714 135.404 131.545C134.555 131.376 133.774 130.959 133.162 130.346C132.549 129.734 132.132 128.953 131.963 128.104C131.794 127.254 131.881 126.373 132.212 125.573C132.544 124.773 133.105 124.089 133.826 123.607C134.546 123.126 135.393 122.869 136.259 122.869C137.421 122.869 138.535 123.331 139.356 124.152C140.177 124.973 140.639 126.087 140.639 127.249Z" fill="#2463EB"/>
<path d="M400.9 380.646C403.339 370.31 396.938 359.953 386.601 357.513C376.265 355.074 365.908 361.475 363.468 371.812C361.028 382.148 367.43 392.505 377.767 394.945C388.103 397.384 398.46 390.983 400.9 380.646Z" fill="#2463EB"/>
<path opacity="0.3" d="M400.9 380.646C403.339 370.31 396.938 359.953 386.601 357.513C376.265 355.074 365.908 361.475 363.468 371.812C361.028 382.148 367.43 392.505 377.767 394.945C388.103 397.384 398.46 390.983 400.9 380.646Z" fill="white"/>
<path opacity="0.4" d="M394.328 361.339C390.065 360.053 385.488 360.286 381.378 362C377.268 363.713 373.881 366.801 371.795 370.735C369.708 374.669 369.053 379.205 369.94 383.569C370.827 387.932 373.202 391.852 376.658 394.659C378.451 395.204 380.315 395.48 382.188 395.479C386.158 395.479 390.031 394.249 393.274 391.959C396.517 389.67 398.972 386.433 400.303 382.692C401.633 378.952 401.772 374.891 400.703 371.068C399.633 367.245 397.406 363.847 394.328 361.339Z" fill="#2463EB"/>
<path d="M363.83 382C343.3 391.66 358.61 399.11 387.54 388.71C414.33 379.08 424.54 366.94 400.54 370.71C401.83 375.76 368.28 388.83 363.83 382Z" fill="#2463EB"/>
<path opacity="0.2" d="M394.098 187.83C367.208 206 332.398 230 322.788 287.64H320.738C330.088 230.64 363.628 206.07 390.528 187.83H394.098Z" fill="black"/>
<path d="M254.999 368.269C237.999 368.269 221.189 360.599 212.999 348.079C207.949 340.339 202.079 324.129 219.559 302.499L221.109 303.759C208.749 319.059 206.469 334.409 214.679 346.989C224.679 362.289 248.269 369.989 268.409 364.509C289.039 358.899 301.559 340.959 302.769 315.289C306.899 227.479 353.549 200.429 387.609 180.679C408.779 168.409 424.069 159.549 420.709 140.839C420.239 138.249 419.209 136.459 417.539 135.359C413.189 132.489 404.689 134.479 394.849 136.769C375.539 141.269 349.099 147.429 333.349 120.639L335.079 119.639C350.079 145.169 374.649 139.439 394.399 134.839C404.689 132.449 413.569 130.379 418.639 133.709C420.789 135.119 422.109 137.349 422.639 140.509C426.249 160.589 409.639 170.229 388.589 182.429C354.919 201.949 308.819 228.679 304.739 315.429C303.479 342.029 290.419 360.639 268.899 366.489C264.365 367.696 259.691 368.295 254.999 368.269Z" fill="#2463EB"/>
<path opacity="0.2" d="M254.999 368.269C237.999 368.269 221.189 360.599 212.999 348.079C207.949 340.339 202.079 324.129 219.559 302.499L221.109 303.759C208.749 319.059 206.469 334.409 214.679 346.989C224.679 362.289 248.269 369.989 268.409 364.509C289.039 358.899 301.559 340.959 302.769 315.289C306.899 227.479 353.549 200.429 387.609 180.679C408.779 168.409 424.069 159.549 420.709 140.839C420.239 138.249 419.209 136.459 417.539 135.359C413.189 132.489 404.689 134.479 394.849 136.769C375.539 141.269 349.099 147.429 333.349 120.639L335.079 119.639C350.079 145.169 374.649 139.439 394.399 134.839C404.689 132.449 413.569 130.379 418.639 133.709C420.789 135.119 422.109 137.349 422.639 140.509C426.249 160.589 409.639 170.229 388.589 182.429C354.919 201.949 308.819 228.679 304.739 315.429C303.479 342.029 290.419 360.639 268.899 366.489C264.365 367.696 259.691 368.295 254.999 368.269Z" fill="white"/>
<path d="M312.758 97C317.366 97.0266 321.943 97.7446 326.338 99.13C326.338 99.13 337.338 117.9 338.638 122.2C338.178 126.44 331.028 133.39 331.028 133.39L312.758 97Z" fill="#2463EB"/>
<path opacity="0.3" d="M312.758 97C317.366 97.0266 321.943 97.7446 326.338 99.13C326.338 99.13 337.338 117.9 338.638 122.2C338.178 126.44 331.028 133.39 331.028 133.39L312.758 97Z" fill="white"/>
<path d="M345.337 188.13C341.101 182.951 337.238 177.477 333.777 171.75C332.937 170.303 332.14 168.83 331.387 167.33C330.957 166.48 330.547 165.63 330.147 164.77C329.622 163.933 329.215 163.028 328.937 162.08C327.737 149.41 332.077 140.08 327.937 129.91L311.457 136.35C311.457 136.35 312.857 154.47 316.057 165.35C318.057 172.08 322.537 177.9 326.867 183.29C328.217 184.97 329.517 186.7 330.867 188.39C332.217 190.08 333.577 191.45 334.867 193.04C336.817 195.45 337.457 197.76 335.987 200.6L335.737 201.05C335.317 201.79 337.277 202.63 338.517 201.05C340.517 198.47 340.237 198.63 341.977 196.43C343.037 195.1 344.247 193.65 345.297 192.43C345.804 191.83 346.085 191.072 346.092 190.287C346.099 189.502 345.832 188.739 345.337 188.13Z" fill="#2463EB"/>
<path opacity="0.7" d="M345.337 188.13C341.101 182.951 337.238 177.477 333.777 171.75C332.937 170.303 332.14 168.83 331.387 167.33C330.957 166.48 330.547 165.63 330.147 164.77C329.622 163.933 329.215 163.028 328.937 162.08C327.737 149.41 332.077 140.08 327.937 129.91L311.457 136.35C311.457 136.35 312.857 154.47 316.057 165.35C318.057 172.08 322.537 177.9 326.867 183.29C328.217 184.97 329.517 186.7 330.867 188.39C332.217 190.08 333.577 191.45 334.867 193.04C336.817 195.45 337.457 197.76 335.987 200.6L335.737 201.05C335.317 201.79 337.277 202.63 338.517 201.05C340.517 198.47 340.237 198.63 341.977 196.43C343.037 195.1 344.247 193.65 345.297 192.43C345.804 191.83 346.085 191.072 346.092 190.287C346.099 189.502 345.832 188.739 345.337 188.13Z" fill="white"/>
<path opacity="0.3" d="M341.308 182.92C338.693 185.723 335.791 188.244 332.648 190.44C333.078 190.92 333.498 191.44 333.928 191.9C337.074 189.775 339.932 187.25 342.428 184.39L341.308 182.92Z" fill="#2463EB"/>
<path opacity="0.3" d="M345.34 188.13L345.22 187.99C344.45 188.873 344.002 189.99 343.95 191.16C343.885 191.963 344.016 192.769 344.33 193.51L345.28 192.38C345.776 191.786 346.053 191.04 346.064 190.266C346.075 189.492 345.819 188.738 345.34 188.13Z" fill="#2463EB"/>
<path d="M308.839 109C307.052 111.675 304.909 114.094 302.469 116.19C301.116 117.356 299.633 118.363 298.049 119.19C297.217 119.616 296.355 119.981 295.469 120.28L294.789 120.5L294.569 120.56L294.099 120.69C293.81 120.759 293.515 120.806 293.219 120.83C292.375 120.895 291.527 120.817 290.709 120.6C289.678 120.307 288.689 119.88 287.769 119.33C287.029 118.897 286.311 118.427 285.619 117.92C284.369 116.99 283.173 115.988 282.039 114.92C279.851 112.847 277.844 110.593 276.039 108.18C275.691 107.71 275.519 107.133 275.551 106.55C275.583 105.966 275.818 105.412 276.215 104.983C276.612 104.554 277.146 104.277 277.726 104.199C278.305 104.122 278.893 104.25 279.389 104.56H279.469C281.829 106.06 284.209 107.64 286.529 109.05C287.709 109.74 288.849 110.44 289.979 110.98C290.495 111.25 291.026 111.491 291.569 111.7C291.907 111.849 292.27 111.938 292.639 111.96C292.699 111.96 292.639 111.89 292.269 111.9C292.152 111.893 292.035 111.893 291.919 111.9L291.699 111.95L292.029 111.78C292.473 111.541 292.904 111.277 293.319 110.99C294.214 110.359 295.05 109.65 295.819 108.87C297.566 107.039 299.202 105.106 300.719 103.08C301.55 102.15 302.698 101.565 303.939 101.438C305.179 101.311 306.422 101.653 307.424 102.395C308.426 103.138 309.114 104.228 309.354 105.452C309.593 106.676 309.367 107.945 308.719 109.01L308.839 109Z" fill="#2463EB"/>
<path opacity="0.7" d="M308.839 109C307.052 111.675 304.909 114.094 302.469 116.19C301.116 117.356 299.633 118.363 298.049 119.19C297.217 119.616 296.355 119.981 295.469 120.28L294.789 120.5L294.569 120.56L294.099 120.69C293.81 120.759 293.515 120.806 293.219 120.83C292.375 120.895 291.527 120.817 290.709 120.6C289.678 120.307 288.689 119.88 287.769 119.33C287.029 118.897 286.311 118.427 285.619 117.92C284.369 116.99 283.173 115.988 282.039 114.92C279.851 112.847 277.844 110.593 276.039 108.18C275.691 107.71 275.519 107.133 275.551 106.55C275.583 105.966 275.818 105.412 276.215 104.983C276.612 104.554 277.146 104.277 277.726 104.199C278.305 104.122 278.893 104.25 279.389 104.56H279.469C281.829 106.06 284.209 107.64 286.529 109.05C287.709 109.74 288.849 110.44 289.979 110.98C290.495 111.25 291.026 111.491 291.569 111.7C291.907 111.849 292.27 111.938 292.639 111.96C292.699 111.96 292.639 111.89 292.269 111.9C292.152 111.893 292.035 111.893 291.919 111.9L291.699 111.95L292.029 111.78C292.473 111.541 292.904 111.277 293.319 110.99C294.214 110.359 295.05 109.65 295.819 108.87C297.566 107.039 299.202 105.106 300.719 103.08C301.55 102.15 302.698 101.565 303.939 101.438C305.179 101.311 306.422 101.653 307.424 102.395C308.426 103.138 309.114 104.228 309.354 105.452C309.593 106.676 309.367 107.945 308.719 109.01L308.839 109Z" fill="white"/>
<path d="M272.287 102.419L273.457 104.419C273.457 104.419 274.347 107.039 276.137 107.519L280.997 105.949L280.747 105.539C280.127 104.599 280.197 102.769 280.407 101.249C280.617 99.7286 279.837 99.6786 279.257 100.059C278.846 100.531 278.558 101.098 278.417 101.709C278.179 101.378 277.915 101.067 277.627 100.779L276.147 99.2986C275.837 98.9951 275.423 98.8203 274.989 98.8092C274.555 98.798 274.133 98.9514 273.807 99.2386L272.607 100.309C272.323 100.572 272.136 100.924 272.078 101.308C272.02 101.691 272.094 102.083 272.287 102.419Z" fill="#2463EB"/>
<path opacity="0.7" d="M272.287 102.419L273.457 104.419C273.457 104.419 274.347 107.039 276.137 107.519L280.997 105.949L280.747 105.539C280.127 104.599 280.197 102.769 280.407 101.249C280.617 99.7286 279.837 99.6786 279.257 100.059C278.846 100.531 278.558 101.098 278.417 101.709C278.179 101.378 277.915 101.067 277.627 100.779L276.147 99.2986C275.837 98.9951 275.423 98.8203 274.989 98.8092C274.555 98.798 274.133 98.9514 273.807 99.2386L272.607 100.309C272.323 100.572 272.136 100.924 272.078 101.308C272.02 101.691 272.094 102.083 272.287 102.419Z" fill="white"/>
<path d="M317.669 95.2185C312.278 96.6473 307.115 98.8252 302.329 101.688C301.582 102.156 300.996 102.84 300.65 103.65C300.303 104.459 300.212 105.356 300.389 106.218C302.319 115.658 306.709 128.298 311.449 136.348L333.559 127.198C333.709 123.298 328.339 110.678 322.869 98.4785C321.889 96.2885 319.999 94.6585 317.669 95.2185Z" fill="#2463EB"/>
<path opacity="0.8" d="M317.669 95.2185C312.278 96.6473 307.115 98.8252 302.329 101.688C301.582 102.156 300.996 102.84 300.65 103.65C300.303 104.459 300.212 105.356 300.389 106.218C302.319 115.658 306.709 128.298 311.449 136.348L333.559 127.198C333.709 123.298 328.339 110.678 322.869 98.4785C321.889 96.2885 319.999 94.6585 317.669 95.2185Z" fill="white"/>
<path opacity="0.3" d="M326.3 106.21L321.91 104.74C322.91 107.31 326.44 110.56 328.91 112.47C328.11 110.47 327.22 108.37 326.3 106.21Z" fill="#2463EB"/>
<path d="M316.221 85.3194C314.391 81.8394 310.441 80.0894 305.701 80.4794C301.701 80.8194 298.161 84.8994 298.581 87.0994C299.001 89.2994 302.361 90.2394 303.001 90.9994L300.231 92.9994C299.903 93.2362 299.626 93.537 299.417 93.8837C299.208 94.2303 299.072 94.6156 299.016 95.0164C298.959 95.4172 298.985 95.8252 299.091 96.2158C299.197 96.6064 299.38 96.9716 299.631 97.2894C300.801 98.7694 302.341 100.289 303.231 101.409C310.891 101.209 316.561 98.2894 318.611 95.4794C317.841 91.9194 318.001 88.7794 316.221 85.3194Z" fill="#2463EB"/>
<path opacity="0.8" d="M316.221 85.3194C314.391 81.8394 310.441 80.0894 305.701 80.4794C301.701 80.8194 298.161 84.8994 298.581 87.0994C299.001 89.2994 302.361 90.2394 303.001 90.9994L300.231 92.9994C299.903 93.2362 299.626 93.537 299.417 93.8837C299.208 94.2303 299.072 94.6156 299.016 95.0164C298.959 95.4172 298.985 95.8252 299.091 96.2158C299.197 96.6064 299.38 96.9716 299.631 97.2894C300.801 98.7694 302.341 100.289 303.231 101.409C310.891 101.209 316.561 98.2894 318.611 95.4794C317.841 91.9194 318.001 88.7794 316.221 85.3194Z" fill="white"/>
<path d="M312.459 87.4791C313.003 88.8737 313.121 90.3983 312.798 91.86C312.476 93.3217 311.727 94.655 310.647 95.6914C309.567 96.7278 308.204 97.4206 306.73 97.6825C305.256 97.9443 303.738 97.7633 302.367 97.1624C300.996 96.5614 299.834 95.5675 299.028 94.3063C298.222 93.0451 297.807 91.5732 297.837 90.0766C297.868 88.58 298.341 87.126 299.197 85.8983C300.054 84.6706 301.255 83.7243 302.649 83.1791C304.52 82.4502 306.604 82.4935 308.443 83.2997C310.283 84.106 311.727 85.6091 312.459 87.4791Z" fill="#263238"/>
<path d="M377.387 177.599C377.277 174.309 377.127 174.599 377.037 171.829C376.977 170.129 376.967 168.239 376.957 166.609C376.954 165.835 376.683 165.086 376.191 164.488C375.699 163.891 375.016 163.481 374.257 163.329C372.937 163.059 371.607 162.809 370.257 162.529C368.527 162.159 366.817 161.759 365.127 161.269C363.807 160.889 362.507 160.469 361.217 159.999C359.927 159.529 358.477 158.999 357.137 158.379C355.557 157.709 353.997 156.989 352.457 156.239C350.727 155.419 349.017 154.559 347.307 153.689C340.727 142.799 340.587 135.619 333.527 127.199L318.367 134.059C318.367 134.059 329.507 153.819 337.087 162.199C341.457 167.019 348.307 169.199 354.417 170.779C358.827 171.909 363.297 172.779 367.767 173.609C369.507 173.929 371.397 174.049 372.897 175.089C374.007 175.94 374.768 177.167 375.037 178.539C375.104 178.819 375.164 179.099 375.217 179.379C375.407 180.219 377.457 179.579 377.387 177.599Z" fill="#2463EB"/>
<path opacity="0.8" d="M377.387 177.599C377.277 174.309 377.127 174.599 377.037 171.829C376.977 170.129 376.967 168.239 376.957 166.609C376.954 165.835 376.683 165.086 376.191 164.488C375.699 163.891 375.016 163.481 374.257 163.329C372.937 163.059 371.607 162.809 370.257 162.529C368.527 162.159 366.817 161.759 365.127 161.269C363.807 160.889 362.507 160.469 361.217 159.999C359.927 159.529 358.477 158.999 357.137 158.379C355.557 157.709 353.997 156.989 352.457 156.239C350.727 155.419 349.017 154.559 347.307 153.689C340.727 142.799 340.587 135.619 333.527 127.199L318.367 134.059C318.367 134.059 329.507 153.819 337.087 162.199C341.457 167.019 348.307 169.199 354.417 170.779C358.827 171.909 363.297 172.779 367.767 173.609C369.507 173.929 371.397 174.049 372.897 175.089C374.007 175.94 374.768 177.167 375.037 178.539C375.104 178.819 375.164 179.099 375.217 179.379C375.407 180.219 377.457 179.579 377.387 177.599Z" fill="white"/>
<path opacity="0.3" d="M369.7 162.4C369.1 162.27 368.5 162.14 367.89 161.99C367.94 165.45 366.32 171.41 365.73 173.22L367.63 173.58C368.876 169.978 369.573 166.209 369.7 162.4Z" fill="#2463EB"/>
<path opacity="0.3" d="M376.999 166.609C376.996 165.836 376.727 165.088 376.237 164.491C375.747 163.893 375.066 163.483 374.309 163.329L373.309 163.139C373.469 164.275 374.051 165.31 374.939 166.039C375.509 166.566 376.194 166.956 376.939 167.179C376.999 166.999 376.999 166.799 376.999 166.609Z" fill="#2463EB"/>
<path d="M311.048 87.5394C311.448 89.0594 309.748 90.6493 308.398 89.3393C307.138 87.9884 305.759 86.7534 304.278 85.6494C302.888 84.7794 304.738 83.2593 306.928 83.8493C307.862 84.0841 308.726 84.5427 309.444 85.1856C310.161 85.8284 310.712 86.6362 311.048 87.5394Z" fill="white"/>
<path d="M311.159 135.86C310.459 136.12 311.739 137.32 311.739 137.32C311.739 137.32 325.739 132.53 334.239 127.6C334.259 127.301 334.208 127.002 334.09 126.727C333.972 126.452 333.789 126.21 333.559 126.02C326.284 129.72 318.805 133.005 311.159 135.86Z" fill="#2463EB"/>
<path opacity="0.5" d="M311.159 135.86C310.459 136.12 311.739 137.32 311.739 137.32C311.739 137.32 325.739 132.53 334.239 127.6C334.259 127.301 334.208 127.002 334.09 126.727C333.972 126.452 333.789 126.21 333.559 126.02C326.284 129.72 318.805 133.005 311.159 135.86Z" fill="white"/>
<path d="M321.457 94.5599C324.217 95.9599 326.807 97.4299 329.457 99.0599C330.747 99.8799 332.027 100.71 333.297 101.61C334.567 102.51 335.827 103.43 337.097 104.47L337.567 104.86L338.157 105.4C338.509 105.714 338.842 106.048 339.157 106.4C339.477 106.75 339.747 107.09 340.007 107.4C340.267 107.71 340.547 108.08 340.777 108.4C341.709 109.685 342.57 111.021 343.357 112.4C344.907 115.074 346.244 117.866 347.357 120.75C347.563 121.295 347.573 121.894 347.387 122.446C347.201 122.998 346.829 123.468 346.335 123.777C345.842 124.085 345.256 124.214 344.679 124.139C344.101 124.065 343.567 123.793 343.167 123.37L343.117 123.31C341.117 121.18 339.187 118.94 337.247 116.85C335.307 114.76 333.337 112.64 331.707 111.71C329.437 110.3 326.907 108.89 324.397 107.51L316.837 103.31C315.665 102.689 314.787 101.628 314.397 100.361C314.007 99.0929 314.136 97.7221 314.757 96.5499C315.378 95.3776 316.438 94.4999 317.706 94.1098C318.974 93.7198 320.345 93.8493 321.517 94.4699L321.457 94.5599Z" fill="#2463EB"/>
<path opacity="0.8" d="M321.457 94.5599C324.217 95.9599 326.807 97.4299 329.457 99.0599C330.747 99.8799 332.027 100.71 333.297 101.61C334.567 102.51 335.827 103.43 337.097 104.47L337.567 104.86L338.157 105.4C338.509 105.714 338.842 106.048 339.157 106.4C339.477 106.75 339.747 107.09 340.007 107.4C340.267 107.71 340.547 108.08 340.777 108.4C341.709 109.685 342.57 111.021 343.357 112.4C344.907 115.074 346.244 117.866 347.357 120.75C347.563 121.295 347.573 121.894 347.387 122.446C347.201 122.998 346.829 123.468 346.335 123.777C345.842 124.085 345.256 124.214 344.679 124.139C344.101 124.065 343.567 123.793 343.167 123.37L343.117 123.31C341.117 121.18 339.187 118.94 337.247 116.85C335.307 114.76 333.337 112.64 331.707 111.71C329.437 110.3 326.907 108.89 324.397 107.51L316.837 103.31C315.665 102.689 314.787 101.628 314.397 100.361C314.007 99.0929 314.136 97.7221 314.757 96.5499C315.378 95.3776 316.438 94.4999 317.706 94.1098C318.974 93.7198 320.345 93.8493 321.517 94.4699L321.457 94.5599Z" fill="white"/>
<path d="M349.73 125.739L348.88 123.609C348.88 123.609 348.41 120.889 346.72 120.129L341.72 120.919L341.89 121.359C342.35 122.359 342 124.189 341.55 125.649C341.1 127.109 341.86 127.299 342.5 127.009C342.86 126.849 343.21 126.199 343.59 125.509C343.776 125.857 343.987 126.191 344.22 126.509L345.45 128.199C345.707 128.549 346.087 128.789 346.513 128.871C346.94 128.952 347.382 128.87 347.75 128.639L349.11 127.769C349.428 127.551 349.663 127.231 349.776 126.863C349.888 126.494 349.872 126.097 349.73 125.739Z" fill="#2463EB"/>
<path opacity="0.8" d="M349.73 125.739L348.88 123.609C348.88 123.609 348.41 120.889 346.72 120.129L341.72 120.919L341.89 121.359C342.35 122.359 342 124.189 341.55 125.649C341.1 127.109 341.86 127.299 342.5 127.009C342.86 126.849 343.21 126.199 343.59 125.509C343.776 125.857 343.987 126.191 344.22 126.509L345.45 128.199C345.707 128.549 346.087 128.789 346.513 128.871C346.94 128.952 347.382 128.87 347.75 128.639L349.11 127.769C349.428 127.551 349.663 127.231 349.776 126.863C349.888 126.494 349.872 126.097 349.73 125.739Z" fill="white"/>
<path opacity="0.3" d="M317.237 106.059L316.017 106.159L308.527 124.239C308.937 124.268 309.348 124.234 309.747 124.139C309.747 124.139 319.507 120.499 322.457 119.139C320.477 115.049 317.237 106.059 317.237 106.059Z" fill="#2463EB"/>
<path d="M303.57 110.8C304.48 115.526 306.17 120.068 308.57 124.24C312.23 122.98 318.33 120.6 321.29 119.24C319.301 114.975 317.535 110.609 316 106.16C312.87 106.37 306 109 303.57 110.8Z" fill="white"/>
<path opacity="0.3" d="M310.997 114.71C310.851 115.199 310.563 115.633 310.17 115.959C309.777 116.284 309.296 116.485 308.788 116.537C308.28 116.589 307.768 116.489 307.317 116.25C306.866 116.011 306.496 115.644 306.254 115.195C306.012 114.745 305.909 114.234 305.957 113.726C306.005 113.218 306.203 112.736 306.526 112.34C306.848 111.945 307.281 111.654 307.769 111.504C308.257 111.354 308.778 111.353 309.267 111.5C309.922 111.696 310.472 112.145 310.796 112.747C311.121 113.348 311.193 114.055 310.997 114.71Z" fill="#2463EB"/>
<path opacity="0.6" d="M312.908 111.27C312.869 111.437 312.781 111.588 312.654 111.704C312.528 111.819 312.369 111.894 312.2 111.918C312.03 111.942 311.857 111.914 311.703 111.838C311.55 111.762 311.423 111.641 311.339 111.492C311.255 111.342 311.219 111.171 311.234 111C311.249 110.829 311.316 110.667 311.425 110.535C311.534 110.403 311.681 110.307 311.846 110.26C312.01 110.212 312.186 110.216 312.348 110.27C312.551 110.335 312.721 110.474 312.825 110.659C312.929 110.845 312.959 111.063 312.908 111.27Z" fill="#2463EB"/>
<path opacity="0.6" d="M315.148 110.399C315.124 110.515 315.077 110.625 315.009 110.722C314.94 110.818 314.853 110.9 314.751 110.96C314.649 111.021 314.536 111.06 314.419 111.074C314.301 111.089 314.182 111.079 314.069 111.044C313.955 111.01 313.851 110.953 313.761 110.875C313.671 110.798 313.598 110.703 313.547 110.596C313.497 110.49 313.469 110.373 313.465 110.255C313.462 110.137 313.483 110.019 313.528 109.909C313.56 109.804 313.613 109.705 313.683 109.62C313.753 109.534 313.839 109.463 313.937 109.411C314.034 109.359 314.141 109.327 314.251 109.316C314.361 109.306 314.472 109.317 314.578 109.349C314.792 109.414 314.972 109.561 315.079 109.757C315.185 109.954 315.21 110.185 315.148 110.399Z" fill="#2463EB"/>
<path opacity="0.5" d="M318.288 118.189L309.038 121.839L308.488 120.019L317.728 116.369L318.288 118.189Z" fill="#2463EB"/>
<path opacity="0.2" d="M267.259 257.171C267.237 262.994 266.675 268.803 265.579 274.521C264.399 279.661 262.565 283.421 260.079 285.801C258.92 286.951 257.545 287.859 256.032 288.472C254.52 289.085 252.9 289.391 251.269 289.371C246.129 289.371 242.205 286.568 239.499 280.961C239.023 279.954 238.619 278.915 238.289 277.851C232.572 282.761 227.249 288.111 222.369 293.851L217.059 300.111C219.916 303.008 223.214 305.434 226.829 307.301C233.055 310.521 241.229 312.135 251.349 312.141C253.129 312.141 254.849 312.091 256.519 311.991C262.641 302.932 267.707 293.202 271.619 282.991L286.469 244.271L267.259 257.171Z" fill="black"/>
<path d="M133.391 310.001L150.891 327.501L199.891 281.331C183.001 274.881 150.161 293.191 133.391 310.001Z" fill="#263238"/>
<path d="M194.418 371C188.828 365.4 176.918 353.5 176.918 353.5L223.088 304.5C229.498 321.35 211.188 354.22 194.418 371Z" fill="#263238"/>
<path d="M261.398 260.701L280.488 223.891L243.678 243.001C231.855 249.133 220.938 256.873 211.238 266.001L148.488 325.071L179.318 355.901L238.388 293.151C247.52 283.449 255.264 272.528 261.398 260.701Z" fill="#2463EB"/>
<path opacity="0.6" d="M261.398 260.701L280.488 223.891L243.678 243.001C231.855 249.133 220.938 256.873 211.238 266.001L148.488 325.071L179.318 355.901L238.388 293.151C247.52 283.449 255.264 272.528 261.398 260.701Z" fill="white"/>
<path d="M222.201 295.081C229.325 295.081 235.101 289.306 235.101 282.181C235.101 275.057 229.325 269.281 222.201 269.281C215.076 269.281 209.301 275.057 209.301 282.181C209.301 289.306 215.076 295.081 222.201 295.081Z" fill="white"/>
<path d="M222.2 290.471C226.779 290.471 230.49 286.759 230.49 282.181C230.49 277.602 226.779 273.891 222.2 273.891C217.622 273.891 213.91 277.602 213.91 282.181C213.91 286.759 217.622 290.471 222.2 290.471Z" fill="#2463EB"/>
<path opacity="0.3" d="M189.749 344.821L159.559 314.631L184.279 291.371L213.009 320.111L189.749 344.821Z" fill="#2463EB"/>
<path d="M140.219 337.621C117.619 339.451 110.129 353.921 107.569 373.151C106.269 382.961 105.689 392.891 97.459 398.631C96.9639 398.968 96.5912 399.455 96.3966 400.022C96.2019 400.588 96.196 401.202 96.3795 401.771C96.5631 402.341 96.9263 402.836 97.4147 403.182C97.9032 403.528 98.4906 403.707 99.089 403.691C129.429 402.741 143.579 387.891 145.359 381.691C144.892 384.932 144.056 388.109 142.869 391.161C142.651 391.7 142.608 392.293 142.747 392.857C142.886 393.422 143.199 393.928 143.642 394.303C144.086 394.679 144.636 394.905 145.216 394.95C145.795 394.994 146.374 394.855 146.869 394.551C155.379 389.221 166.059 379.401 166.769 363.471C160.509 354.601 140.219 337.621 140.219 337.621Z" fill="#2463EB"/>
<path opacity="0.2" d="M140.219 337.621C117.619 339.451 110.129 353.921 107.569 373.151C106.269 382.961 105.689 392.891 97.459 398.631C96.9639 398.968 96.5912 399.455 96.3966 400.022C96.2019 400.588 96.196 401.202 96.3795 401.771C96.5631 402.341 96.9263 402.836 97.4147 403.182C97.9032 403.528 98.4906 403.707 99.089 403.691C129.429 402.741 143.579 387.891 145.359 381.691C144.892 384.932 144.056 388.109 142.869 391.161C142.651 391.7 142.608 392.293 142.747 392.857C142.886 393.422 143.199 393.928 143.642 394.303C144.086 394.679 144.636 394.905 145.216 394.95C145.795 394.994 146.374 394.855 146.869 394.551C155.379 389.221 166.059 379.401 166.769 363.471C160.509 354.601 140.219 337.621 140.219 337.621Z" fill="white"/>
<path d="M170.278 370.3L134.078 334.1L153.358 329.93L174.448 351.02L170.278 370.3Z" fill="#2463EB"/>
</svg>
