<svg width="1024" height="1024" viewBox="0 0 1024 1024" fill="none" xmlns="http://www.w3.org/2000/svg">
<path d="M335.7 335.501C339.724 291.21 367.172 250.571 411.32 223.542C417.079 220.016 424.966 215.533 428.847 213.578C437.431 209.255 442.409 205.023 445.295 199.596C447.208 195.998 447.514 193.599 447.823 179.801C447.94 174.568 448.057 169.334 448.174 164.101C447.001 163.611 445.827 163.12 444.653 162.63C440.496 160.893 437.999 156.637 438.004 151.301C438.008 147.278 441.004 141.32 443.506 140.36C445.729 139.507 445.339 138.12 442 135.001C441 134.067 440 133.133 439 132.199C439 126.999 439 121.8 439 116.6C439 102.283 439.166 100.835 441.02 98.9807C443.013 96.9877 443.962 96.9647 512.485 97.2307C577.569 97.4837 582.042 97.6127 583.715 99.2837C585.238 100.805 585.547 103.277 585.823 116.098C586.177 132.563 585.452 135.348 580.487 136.594C577.164 137.428 577.343 139.222 580.906 140.799C589.283 144.507 588.702 159.174 580.034 162.815C578.696 163.377 577.358 163.939 576.02 164.501C576.019 168.168 576.017 171.834 576.016 175.501C576.006 201.86 577.264 203.704 606.216 219.758C653.054 245.73 682.227 285.998 687.897 332.501C688.668 338.828 688.995 421.594 688.997 611.163C689 906.678 689.354 889.187 683.101 902.289C677.271 914.505 665.003 924.755 651.055 929.065C623.906 937.454 454.68 939.274 388 931.895C360.106 928.808 341.584 913.558 336.511 889.501C335.228 883.417 335.054 846.96 335.185 611.001C335.268 461.676 335.5 337.701 335.7 335.501ZM683.388 326.098C682.614 321.476 680.436 313.079 678.548 307.438C666.13 270.328 639.664 241.677 596.328 218.432C589.903 214.986 583.662 210.758 580.855 207.951C574.3 201.396 573 196.493 573 178.319C573 173.546 573 168.774 573 164.001C571.583 163.938 570.167 163.874 568.75 163.811C566.412 163.707 539.248 163.594 508.384 163.561C489.679 163.541 470.973 163.521 452.268 163.501C452.106 168.843 451.942 174.184 451.78 179.526C451.04 203.866 448.826 207.211 424.8 220.279C416.935 224.557 406.45 230.955 401.5 234.497C367.84 258.585 346.502 291.17 340.597 327.501C339.344 335.207 339.088 375.821 338.817 610.001C338.516 870.05 338.588 883.819 340.286 889.972C341.268 893.531 343.28 898.831 344.758 901.749C350.297 912.689 364.08 923.05 377.624 926.456C387.605 928.966 424.433 931.283 480.834 932.948C533.193 934.494 626.853 930.813 645.75 926.467C664.348 922.19 678.774 908.36 683.416 890.357C684.844 884.818 684.99 857.126 684.898 609.357C684.812 377.993 684.573 333.172 683.388 326.098ZM448.25 101.201C446.333 101.301 444.417 101.401 442.5 101.501C442.401 105.668 442.301 109.834 442.202 114.001C442.038 120.876 442.17 127.964 442.497 129.751C443.081 132.948 443.179 133.001 448.545 133.001C450.363 133.001 452.182 133.001 454 133.001C454 127.651 454 122.301 454 116.951C454 111.601 454 106.251 454 100.901C452.083 101.001 450.167 101.101 448.25 101.201ZM580.686 145.175C579.915 144.45 579.142 143.726 578.371 143.001C556.621 143.001 534.87 143.001 513.12 143.001C447.769 143.001 444.944 143.138 442.765 146.401C441.197 148.749 441.965 155.966 444 158.001C445.96 159.961 447.333 160.001 512.5 160.001C577.667 160.001 579.04 159.961 581 158.001C583.923 155.078 583.751 148.054 580.686 145.175ZM454 137.001C453.667 137.001 453.333 137.001 453 137.001C452.333 137.334 451.667 137.668 451 138.001C451 138.251 451 138.501 451 138.751C451 139.164 478.787 139.501 512.75 139.501C566.972 139.501 574.5 139.318 574.5 138.001C574.5 136.681 567.25 136.531 454 137.001ZM463 101.001C461 101.001 459 101.001 457 101.001C457 106.334 457 111.668 457 117.001C457 122.334 457 127.668 457 133.001C459 133.001 461 133.001 463 133.001C465 133.001 467 133.001 469 133.001C469 127.668 469 122.334 469 117.001C469 111.668 469 106.334 469 101.001C467 101.001 465 101.001 463 101.001ZM477.5 101.001C475.667 101.001 473.833 101.001 472 101.001C472 106.334 472 111.668 472 117.001C472 122.334 472 127.668 472 133.001C473.833 133.001 475.667 133.001 477.5 133.001C479.333 133.001 481.167 133.001 483 133.001C483 127.668 483 122.334 483 117.001C483 111.668 483 106.334 483 101.001C481.167 101.001 479.333 101.001 477.5 101.001ZM492.5 101.001C490.667 101.001 488.833 101.001 487 101.001C487 106.334 487 111.668 487 117.001C487 122.334 487 127.668 487 133.001C488.833 133.001 490.667 133.001 492.5 133.001C494.333 133.001 496.167 133.001 498 133.001C498 127.668 498 122.334 498 117.001C498 111.668 498 106.334 498 101.001C496.167 101.001 494.333 101.001 492.5 101.001ZM507 101.001C505 101.001 503 101.001 501 101.001C501 106.334 501 111.668 501 117.001C501 122.334 501 127.668 501 133.001C503 133.001 505 133.001 507 133.001C509 133.001 511 133.001 513 133.001C513 127.668 513 122.334 513 117.001C513 111.668 513 106.334 513 101.001C511 101.001 509 101.001 507 101.001ZM522.5 101.001C520.333 101.001 518.167 101.001 516 101.001C516 106.334 516 111.668 516 117.001C516 122.334 516 127.668 516 133.001C518.167 133.001 520.333 133.001 522.5 133.001C524.667 133.001 526.833 133.001 529 133.001C529 127.668 529 122.334 529 117.001C529 111.668 529 106.334 529 101.001C526.833 101.001 524.667 101.001 522.5 101.001ZM538.5 101.001C536.333 101.001 534.167 101.001 532 101.001C532 106.334 532 111.668 532 117.001C532 122.334 532 127.668 532 133.001C534.167 133.001 536.333 133.001 538.5 133.001C540.667 133.001 542.833 133.001 545 133.001C545 127.668 545 122.334 545 117.001C545 111.668 545 106.334 545 101.001C542.833 101.001 540.667 101.001 538.5 101.001ZM556.927 100.692C555.787 100.394 553.312 100.4 551.427 100.706C550.285 100.891 549.142 101.078 548 101.263C548 106.553 548 111.842 548 117.132C548 122.422 548 127.711 548 133.001C549.833 133.001 551.667 133.001 553.5 133.001C555.333 133.001 557.167 133.001 559 133.001C559 127.707 559 122.412 559 117.118C559 101.89 558.914 101.212 556.927 100.692ZM570.602 100.776C569.283 100.524 566.808 100.523 565.102 100.773C564.068 100.925 563.034 101.076 562 101.228C562 106.524 562 111.819 562 117.115C562 122.41 562 127.705 562 133.001C563.833 133.001 565.667 133.001 567.5 133.001C569.333 133.001 571.167 133.001 573 133.001C573 127.707 573 122.412 573 117.118C573 111.824 573 106.528 573 101.234C572.201 101.081 571.401 100.929 570.602 100.776ZM577.007 101.989C576.131 103.406 575.74 128.606 576.554 131.17C577.419 133.896 581.817 133.586 582.519 130.751C582.825 129.513 582.946 122.426 582.788 115.001C582.503 101.627 582.478 101.498 580.113 101.164C578.8 100.978 577.402 101.349 577.007 101.989Z" fill="#1B27D8"/>
<path d="M350.222 555.598C354.078 553.083 366.295 548.196 375.116 545.64C393.977 540.174 417.609 539.708 437.999 544.401C443.774 545.73 456.824 549.532 466.999 552.849C486.018 559.049 507.176 564.996 510.218 564.999C511.163 565 515.38 562.754 519.588 560.007C530.6 552.818 540.238 550.001 553.821 550.001C561.469 550.001 566.608 550.574 571.759 552.002C574.166 552.669 576.573 553.336 578.98 554.003C580.466 552.868 581.953 551.734 583.439 550.599C592.341 543.804 603.506 542.361 623.999 545.357C629.224 546.121 636.311 546.524 639.749 546.253C644.107 545.91 645.999 546.112 645.999 546.921C645.999 548.599 642.172 555.966 639.334 559.751C638.522 560.834 637.709 561.918 636.897 563.001C637.73 563.001 638.563 563.001 639.396 563.001C642.69 563.001 656.152 558.713 666.314 554.427C670.782 552.543 674.565 551.001 674.719 551.001C674.873 551.001 674.999 625.05 674.999 715.554C674.999 899.224 675.403 888.43 668.109 899.703C662.043 909.079 652.53 914.91 639.999 916.934C630.495 918.469 594.836 920.783 560.499 922.091C501.979 924.321 393.611 920.441 377.499 915.54C360.268 910.299 350.625 897.665 349.005 878.207C348.56 872.868 348.14 798.432 348.071 712.792C348.029 660.889 347.987 608.985 347.945 557.082C348.704 556.587 349.463 556.093 350.222 555.598ZM424.311 562.001C421.54 562.001 397.695 568.155 394.837 569.608C392.289 570.903 385.999 581.616 385.999 584.661C385.999 586.577 388.276 586.368 404.162 583.001C411.946 581.351 418.48 580.001 418.682 580.001C419.062 580.001 419.591 578.737 423.595 568.251C425.716 562.698 425.795 562.001 424.311 562.001ZM427.8 601.001C424.005 592.476 420.255 584.849 419.466 584.052C418.213 582.788 416.033 583.012 402.338 585.812C393.707 587.577 386.491 589.175 386.302 589.364C386.113 589.553 387.504 593.037 389.392 597.105C391.28 601.173 394.637 608.442 396.851 613.259C399.065 618.076 401.656 622.316 402.609 622.682C404.303 623.332 431.675 618.47 433.684 617.162C434.304 616.759 432.007 610.452 427.8 601.001ZM451.99 651.495C450.319 650.462 447.113 651.934 433.504 659.981C426.351 664.211 417.994 669.082 414.933 670.805C411.872 672.528 408.617 674.765 407.701 675.777C405.694 677.994 399.814 689.897 393.716 704.084C388.802 715.515 387.566 719.616 388.806 720.382C389.95 721.089 406.075 711.688 422.481 700.75C427.105 697.667 431.73 694.584 436.354 691.501C438.071 687.501 439.787 683.501 441.504 679.501C444.337 672.901 448.082 664.702 449.827 661.28C453.164 654.735 453.653 652.523 451.99 651.495ZM461.005 717.389C449.402 705.901 439.104 696.129 438.122 695.674C436.767 695.046 432.788 697.176 421.594 704.523C413.485 709.845 403.059 716.217 398.425 718.682C393.791 721.147 389.999 723.588 389.999 724.105C389.999 725.6 397.25 733.096 415.185 750.142C430.446 764.646 432.182 766.001 435.503 766.001C438.141 766.001 443.288 763.769 454.317 757.842C476.57 745.883 481.453 742.779 481.8 740.37C482.028 738.79 476.929 733.155 461.005 717.389ZM442.581 592.857C436.762 578.676 429.413 563.067 428.664 563.299C427.514 563.655 422.008 578 422.003 580.651C421.999 582.79 435.234 612.636 436.945 614.347C437.953 615.355 442.196 607.596 443.776 601.857C444.604 598.849 444.395 597.278 442.581 592.857ZM496.002 693.501C494.324 690.137 461.462 657.167 457.285 654.657C455.883 653.814 453.915 657.453 445.622 676.237C442.529 683.242 439.999 689.948 439.999 691.14C439.999 692.645 446.887 700.052 462.565 715.404C488.301 740.605 485.351 739.581 490.862 725.233C493.862 717.423 497.977 702.279 497.991 699.001C497.994 698.176 497.099 695.701 496.002 693.501ZM610.301 717.564C604.156 715.206 564.064 714.103 559.533 716.168C556.399 717.596 551.964 724.158 544.599 738.265C539.012 748.967 537.449 755.52 540.249 756.502C540.937 756.743 550.049 757.627 560.499 758.466C570.949 759.305 582.302 760.254 585.728 760.574C587.804 760.768 589.881 760.962 591.957 761.156C595.297 754.435 598.638 747.714 601.978 740.993C607.489 729.904 611.999 720.242 611.999 719.523C611.999 718.804 611.235 717.922 610.301 717.564ZM606.654 791.501C602.139 782.151 597.107 772.027 595.472 769.003C594.481 767.17 593.49 765.338 592.499 763.505C583.666 762.802 574.832 762.098 565.999 761.395C551.424 760.234 539.411 759.346 539.304 759.421C539.197 759.496 542.61 766.744 546.888 775.529C551.166 784.313 555.941 794.426 557.497 798.001C562.809 810.202 564.07 810.664 594.749 811.655C614.237 812.284 614.996 812.238 614.931 810.405C614.894 809.358 611.169 800.851 606.654 791.501ZM636.972 765.83C635.906 763.811 631.906 755.261 628.085 746.83C620.676 730.482 616.256 722.001 615.144 722.001C614.768 722.001 610.013 730.928 604.579 741.84C601.286 748.453 597.992 755.067 594.699 761.68C597.56 767.484 600.42 773.286 603.281 779.09C608.001 788.666 613.25 799.616 614.946 803.423C615.974 805.73 617.002 808.038 618.03 810.345C619.059 809.371 620.087 808.397 621.116 807.423C625.699 803.083 632.5 793.235 635.952 785.939C639.585 778.258 639.932 771.433 636.972 765.83ZM636.029 548.001C632.196 548.001 624.208 547.277 618.279 546.392C605.335 544.46 597.588 545.056 590.585 548.522C583.471 552.043 577.949 556.11 578.679 557.292C579.501 558.621 601.036 557.393 611.499 555.42C627.034 552.49 626.999 552.492 626.999 554.831C626.999 556.416 626.057 557.177 623.117 557.969C616.031 559.877 599.607 561.989 591.808 561.995C587.578 561.998 583.864 562.412 583.554 562.913C582.795 564.14 591.504 570.431 597.548 573.022C600.744 574.392 603.297 574.874 604.961 574.421C606.357 574.041 609.299 573.798 611.499 573.882C615.887 574.049 619.855 572.79 627.569 568.783C631.576 566.702 633.725 564.543 637.819 558.482C640.668 554.264 642.999 550.18 642.999 549.407C642.999 548.333 641.351 548.001 636.029 548.001ZM382.999 885.001C382.582 885.352 382.166 885.704 381.749 886.055C381.332 886.406 380.916 886.757 380.499 887.108C381.332 886.739 382.166 886.37 382.999 886.001C383.477 886.001 383.954 886.001 384.432 886.001C385.22 886.001 386.12 885.101 386.999 882.001C387.867 880.666 388.736 879.33 389.604 877.995C392.887 872.947 392.162 871.001 386.999 871.001C385.832 871.001 384.666 871.001 383.499 871.001C381.055 871.001 379.999 871.453 379.999 872.501C379.999 873.549 381.055 874.001 386.999 874.001C386.999 876.001 386.999 878.001 386.999 880.001C386.505 880.001 386.012 880.001 385.518 880.001C384.703 880.001 383.804 881.126 382.999 885.001ZM373.118 875.251C371.813 879.769 371.813 883.377 373.118 888.558C373.806 891.291 374.802 893.001 375.706 893.001C376.892 893.001 377.022 892.182 376.382 888.751C375.379 883.374 375.366 880.457 376.325 875.751C376.941 872.73 376.795 872.001 375.573 872.001C374.721 872.001 373.645 873.425 373.118 875.251ZM380.023 846.48C377.736 848.549 377.504 849.577 379.1 850.563C379.705 850.937 381.15 850.294 382.311 849.133C383.94 847.504 384.151 846.753 383.234 845.836C382.317 844.919 381.585 845.066 380.023 846.48ZM381.808 856.824C380.372 858.383 378.935 859.942 377.499 861.501C379.616 861.601 381.732 861.701 383.849 861.801C388.711 862.031 390.099 861.797 389.771 860.801C389.535 860.086 388.366 859.358 387.173 859.182C386.45 859.076 385.726 858.968 385.003 858.862C385.836 857.77 386.668 856.679 387.501 855.587C390.414 851.767 390.645 849.372 388.344 846.829C385.764 843.978 384.705 844.616 385.447 848.574C386.054 851.811 385.711 852.59 381.808 856.824ZM393.867 848.501C392.869 853.096 393.316 854.491 395.829 854.618C400.928 854.876 401.123 858.469 396.077 859.165C392.773 859.622 392.351 861.621 395.398 862.386C403.115 864.323 407.215 854.99 399.966 851.987C396.178 850.418 396.204 849.333 400.052 848.488C404.288 847.559 403.168 845.501 398.425 845.501C394.896 845.501 394.456 845.791 393.867 848.501ZM395.843 872.177C395.367 872.905 395.095 874.848 395.238 876.496C395.453 878.964 396.029 879.583 398.499 880.006C402.287 880.655 402.401 883.04 398.729 884.801C397.206 885.531 396.22 886.55 396.538 887.065C397.305 888.306 400.656 888.255 403.065 886.966C406.961 884.881 404.349 877.001 399.761 877.001C396.832 877.001 398.243 874.548 401.385 874.178C402.932 873.996 403.95 873.345 403.731 872.678C403.173 870.975 396.889 870.576 395.843 872.177ZM408.564 874.764C406.477 878.611 406.654 882.292 409.072 885.366C412.545 889.781 418.918 888.541 420.822 883.078C423.959 874.079 412.977 866.631 408.564 874.764ZM415.199 844.201C414.458 844.942 413.999 848.579 413.999 853.701C413.999 861.334 414.16 862.001 415.999 862.001C417.659 862.001 417.999 861.334 417.999 858.084C417.999 855.841 418.533 853.988 419.249 853.748C420.219 853.422 420.171 852.713 419.032 850.576C417.708 848.091 417.733 847.729 419.282 846.862C420.226 846.334 420.999 845.249 420.999 844.451C420.999 842.684 416.893 842.507 415.199 844.201ZM430.767 877.645C430.289 877.94 430.032 880.279 430.198 882.842C430.414 886.183 430.923 887.501 431.999 887.501C433.011 887.501 433.6 886.28 433.809 883.751C434.005 881.38 434.627 880.001 435.499 880.001C436.371 880.001 436.993 881.38 437.189 883.751C437.597 888.68 440.293 888.913 440.999 884.079C441.707 879.233 443.797 878.978 444.185 883.689C444.587 888.562 447.351 889.027 447.809 884.297C448.381 878.389 446.948 877.251 438.847 877.175C434.881 877.138 431.245 877.349 430.767 877.645ZM436.999 853.001C436.666 853.001 436.332 853.001 435.999 853.001C435.999 853.334 435.999 853.668 435.999 854.001C435.999 854.998 435.999 855.996 435.999 856.993C435.999 858.982 436.669 860.322 439.999 862.001C440.332 862.334 440.666 862.668 440.999 863.001C441.249 863.028 441.499 863.054 441.749 863.081C442.162 863.125 443.736 862.226 447.999 859.001C448.332 858.668 448.666 858.334 448.999 858.001C448.999 857.35 448.999 856.699 448.999 856.048C448.999 854.974 447.874 853.398 443.999 851.001C442.999 851.001 441.999 851.001 440.999 851.001C439.666 851.668 438.332 852.334 436.999 853.001ZM458.999 852.001C456.332 851.668 453.666 851.334 450.999 851.001C450.999 851.501 450.999 852.001 450.999 852.501C450.999 853.349 451.894 854.001 453.058 854.001C454.19 854.001 454.865 854.451 453.999 856.001C453.666 856.334 453.332 856.668 452.999 857.001C452.582 857.832 452.166 858.662 451.749 859.493C450.504 861.975 450.519 861.985 455.249 861.993C458.808 861.999 459.999 861.625 459.999 860.501C459.999 859.64 459.097 859.001 457.884 859.001C455.864 859.001 455.842 858.889 458.999 854.001C458.999 853.334 458.999 852.668 458.999 852.001ZM452.249 872.251C451.327 871.944 450.999 873.712 450.999 879.001C450.999 884.29 451.327 886.058 452.249 885.751C453.074 885.476 453.499 883.179 453.499 879.001C453.499 874.823 453.074 872.526 452.249 872.251ZM459.352 873.001C458.332 873.001 457.997 873.553 458.394 874.587C459.806 878.267 460.124 883.889 459.124 887.509C457.917 891.882 458.272 892.849 460.426 891.061C464.003 888.092 463.105 873.001 459.352 873.001ZM498.071 603.001C495.551 619.759 501.277 636.333 513.972 649.028C531.732 666.788 558.017 671.097 580.223 659.888C587.357 656.287 597.548 646.937 602.142 639.778C612.572 623.525 613.599 601.634 604.758 584.001C601.954 578.407 600.758 577.104 596.182 574.652C589.973 571.325 588.39 571.777 592.917 575.586C594.66 577.053 597.009 580.061 598.137 582.272C600.736 587.366 599.582 590.448 594.247 592.657C592.186 593.51 588.213 595.283 585.42 596.596C564.905 606.242 558.999 607.743 558.999 603.309C558.999 601.268 571.91 571.063 574.168 567.821C575.331 566.151 575.651 564.904 575.017 564.512C573.829 563.778 571.999 564.706 571.999 566.043C571.999 567.26 556.982 603.271 556.052 604.284C554.391 606.094 552.1 603.449 549.479 596.696C547.943 592.738 544.731 584.892 542.342 579.26C537.005 566.676 536.737 562.705 541.074 560.462C547.448 557.166 561.258 557.636 571.121 561.484C572.3 561.944 572.874 561.432 573.223 559.609C573.817 556.504 573.254 556.273 561.618 554.841C544.278 552.707 528.534 557.816 515.995 569.644C505.358 579.679 500.11 589.445 498.071 603.001Z" fill="#1626E4"/>
<path d="M498.071 603C500.11 589.444 505.357 579.678 515.994 569.643C528.533 557.815 544.278 552.706 561.618 554.84C573.254 556.272 573.817 556.503 573.223 559.608C572.874 561.431 572.3 561.943 571.121 561.483C561.258 557.635 547.448 557.165 541.074 560.461C536.737 562.704 537.005 566.675 542.342 579.259C544.731 584.891 547.942 592.737 549.478 596.695C552.099 603.448 554.39 606.093 556.051 604.283C556.981 603.27 571.999 567.259 571.999 566.042C571.999 564.705 573.829 563.777 575.017 564.511C575.651 564.903 575.331 566.15 574.168 567.82C571.91 571.062 558.999 601.267 558.999 603.308C558.999 607.742 564.905 606.241 585.42 596.595C588.213 595.282 592.186 593.509 594.246 592.656C599.581 590.447 600.736 587.365 598.137 582.271C597.009 580.06 594.66 577.052 592.917 575.585C588.39 571.776 589.972 571.324 596.181 574.651C600.757 577.103 601.953 578.406 604.757 584C613.598 601.633 612.572 623.524 602.142 639.777C597.548 646.936 587.357 656.286 580.223 659.887C558.017 671.096 531.732 666.787 513.972 649.027C501.277 636.332 495.551 619.758 498.071 603ZM544.817 608.099C543.541 607.602 535.351 603.977 526.616 600.045C517.881 596.113 509.827 593.032 508.717 593.198C504.44 593.839 502.704 598.15 502.272 609.206C501.938 617.738 502.18 620.099 503.684 623C506.569 628.564 509.617 628.221 529.499 620.094C543.117 614.528 546.561 612.733 546.817 611.074C547.035 609.662 546.399 608.716 544.817 608.099ZM542.61 584C534.309 564.024 533.463 563.134 525.972 566.512C521.066 568.724 511.771 577.723 510.016 581.959C507.74 587.455 509.152 589.424 518.613 593.941C533.174 600.893 546.082 606.13 547.832 605.797C548.749 605.622 549.584 604.584 549.689 603.49C549.794 602.396 546.61 593.625 542.61 584ZM548.433 615.336C545.88 614.356 516.016 626.864 511.801 630.679C509.544 632.721 509.472 637.766 511.652 641.027C518.514 651.289 530.321 657.932 533.942 653.569C535.838 651.284 549.986 619.684 549.993 617.719C549.996 616.739 549.294 615.666 548.433 615.336ZM564.538 637.073C557.284 619.251 556.606 618 554.191 618C552.836 618 550.525 622.204 544.699 635.273C540.464 644.773 536.999 653.763 536.999 655.25C536.999 658.993 540.394 660.942 548.99 662.133C561.232 663.829 571.14 660.492 570.908 654.75C570.858 653.513 567.991 645.558 564.538 637.073ZM596.749 631.339C595.512 630.234 592.024 628.302 588.999 627.046C585.974 625.79 578.611 622.537 572.637 619.817C561.628 614.805 558.999 614.421 558.999 617.825C558.999 619.667 569.419 646.044 572.501 652.004C575.535 657.872 583.946 655.229 592.777 645.633C599.325 638.518 600.411 634.609 596.749 631.339ZM606.118 601.836C605.061 596.842 602.37 593 599.931 593C598.819 593 589.717 596.585 579.704 600.966C555.644 611.494 555.639 610.826 579.809 620.748C600.338 629.175 601.735 629.267 604.619 622.364C606.41 618.079 607.217 607.028 606.118 601.836Z" fill="#EEF2F3"/>
<path d="M461.006 717.387C476.93 733.153 482.029 738.788 481.801 740.368C481.454 742.777 476.571 745.881 454.318 757.84C443.289 763.767 438.142 765.999 435.504 765.999C432.183 765.999 430.447 764.644 415.186 750.14C397.251 733.094 390 725.598 390 724.103C390 723.586 393.792 721.145 398.426 718.68C403.06 716.215 413.486 709.843 421.595 704.521C432.789 697.174 436.768 695.044 438.123 695.672C439.105 696.127 449.403 705.899 461.006 717.387Z" fill="#FBF8EE"/>
<path d="M481 391.001C493.905 390.46 497.666 390.768 498.592 391.445C499.715 392.266 500.038 394.009 499.81 398.031C499.52 403.142 499.342 403.483 497.096 403.235C494.346 402.931 491 405.523 491 407.956C491 410.656 493.154 412.001 497.476 412.001C498.835 412.001 500.194 412.001 501.553 412.001C501.544 410.502 501.535 409.003 501.526 407.504C501.511 405.031 501.837 403.006 502.25 403.004C502.5 403.003 502.75 403.002 503 403.001C504.55 403.867 505 403.417 505 402.56C505 402.04 505 401.521 505 401.001C505.667 401.668 506.333 402.334 507 403.001C507.333 403.334 507.667 403.668 508 404.001C506.535 406.447 505.069 408.892 503.604 411.338C504.42 411.084 505.236 410.83 506.052 410.576C512.495 408.571 513.357 408.792 517.298 413.456C519.723 416.326 521.353 419.458 521.808 422.123C522.632 426.948 524.579 428.574 528.388 427.618C531.968 426.719 532.706 424.401 530.271 421.7C529.181 420.49 527.471 418.071 526.471 416.323C524.655 413.148 524.657 413.14 527.497 409.416C530.203 405.868 530.379 405.793 531.138 407.845C531.577 409.031 532.637 410.001 533.493 410.001C535.685 410.001 537 405.865 537 398.971C537 392.711 535.729 391.001 531.079 391.001C529.71 391.001 528.572 389.919 527.662 387.751C526.008 383.813 521.872 377.492 518.49 373.734C515.813 370.758 515.265 367.136 517.2 365.201C519.102 363.299 524.473 363.761 526.5 366.001C527.495 367.101 529.279 368.001 530.464 368.001C531.649 368.001 533.486 368.636 534.546 369.411C536.42 370.782 536.422 370.877 534.632 372.855C533.619 373.974 531.414 375.027 529.731 375.195C528.711 375.297 527.692 375.399 526.672 375.501C527.802 377.1 528.931 378.699 530.061 380.298C533.141 384.656 533.774 385.068 536.976 384.798C540.051 384.539 540.834 383.881 543.122 379.639C544.564 376.965 546.243 374.469 546.854 374.091C547.465 373.713 548.578 371.626 549.327 369.453C550.536 365.945 551.093 365.466 554.282 365.194C557.665 364.905 557.935 365.105 558.9 368.601C559.464 370.643 561.18 373.681 562.713 375.352C565.409 378.291 565.434 378.421 563.5 379.308C561.929 380.028 560.98 379.665 559.076 377.613C556.708 375.062 552.742 374.22 550.376 375.766C548.806 376.792 547.684 382.613 548.704 384.436C549.443 385.756 549.894 385.768 552.279 384.531C554.748 383.25 555.521 383.341 560.378 385.489C563.331 386.795 566.742 389.129 567.959 390.676C568.696 391.613 569.434 392.551 570.171 393.488C569.392 393.67 568.615 393.852 567.836 394.034C564.145 394.897 564.25 399.077 568.072 403.43C570.937 406.693 571.109 407.232 569.781 408.78C567.091 411.915 566.999 413.845 569.401 416.724C570.676 418.251 572.478 420.983 573.407 422.794C574.336 424.605 576.199 426.506 577.548 427.019C578.897 427.532 580 428.652 580 429.508C580 431.641 577.133 432.565 574.881 431.159C571.527 429.064 569.912 429.772 569.289 433.609C568.706 437.2 568.675 437.22 562.823 437.751C560.863 437.929 558.902 438.106 556.942 438.284C555.468 436.679 553.994 435.073 552.52 433.468C550.088 430.819 548.327 428.28 548.608 427.826C548.889 427.372 551.004 426.981 553.309 426.956C555.614 426.931 558.85 426.315 560.5 425.587C561.5 425.146 562.5 424.705 563.5 424.264C562.262 424.019 561.024 423.773 559.786 423.528C555.038 422.587 553.466 420.829 555.073 418.255C556.108 416.598 555.89 416.2 553.381 415.177C551.144 414.265 548.934 414.294 543.5 415.306C541.167 415.741 538.833 416.175 536.5 416.61C536.333 418.457 536.167 420.305 536 422.152C535.457 428.173 534.171 430.344 529.814 432.597C526.492 434.315 524.367 433.528 519.25 428.685C516.461 426.045 516 424.927 516 420.805C516 419.204 516 417.602 516 416.001C513.5 416.001 511 416.001 508.5 416.001C506 416.001 503.5 416.001 501 416.001C501 418.834 501 421.668 501 424.501C501 427.334 501 430.168 501 433.001C502.643 433.001 504.287 433.001 505.93 433.001C510.282 433.001 510.898 432.737 511.18 430.751C511.599 427.8 514.407 427.843 514.827 430.806C515.371 434.647 513.328 436.001 506.988 436.001C499.223 436.001 497.048 434.186 496.168 426.975C495.561 422 495.275 421.501 493.03 421.501C489.752 421.501 488.034 425.041 488.015 431.834C488.004 435.651 487.645 437.049 486.75 436.752C485.851 436.453 485.422 432.528 485.222 422.753C484.984 411.09 485.232 408.414 486.972 403.835C489.836 396.301 489.656 395.215 485.42 394.42C483.451 394.051 481.651 393.131 481.42 392.375C481.28 391.917 481.14 391.459 481 391.001ZM551 391.001C548.333 391.001 545.667 391.001 543 391.001C543 393.668 543 396.334 543 399.001C543 401.668 543 404.334 543 407.001C545.667 407.001 548.333 407.001 551 407.001C553.667 407.001 556.333 407.001 559 407.001C559 404.334 559 401.668 559 399.001C559 396.334 559 393.668 559 391.001C556.333 391.001 553.667 391.001 551 391.001ZM505.5 404.001C505.225 404.001 505 404.226 505 404.501C505 404.776 505.225 405.001 505.5 405.001C505.775 405.001 506 404.776 506 404.501C506 404.226 505.775 404.001 505.5 404.001Z" fill="#1B27D8"/>
<path d="M610.302 717.562C611.236 717.92 612 718.802 612 719.521C612 720.24 607.49 729.902 601.979 740.991C598.639 747.712 595.298 754.433 591.958 761.154C589.882 760.96 587.805 760.766 585.729 760.572C582.303 760.252 570.95 759.303 560.5 758.464C550.05 757.625 540.938 756.741 540.25 756.5C537.45 755.518 539.013 748.965 544.6 738.263C551.965 724.156 556.4 717.594 559.534 716.166C564.065 714.101 604.157 715.204 610.302 717.562Z" fill="#FBF8EE"/>
<path d="M447.456 343.035C449.797 341.092 451 342.768 451 347.973C451 353.146 450.959 353.088 460.338 361.087C463.93 364.151 464.135 364.621 463.54 368.43C462.184 377.119 462.387 380.433 464.298 380.81C467.759 381.492 469 379.145 469 371.912C469 366.171 469.311 364.903 470.934 364.034C474.017 362.384 476.628 362.815 479.818 365.499C481.452 366.874 483.666 367.999 484.739 367.999C486.854 367.999 490 365.085 490 363.127C490 362.459 491.962 359.795 494.36 357.206C501.724 349.256 502.641 345.889 498.5 341.999C496.408 340.034 496 338.733 496 334.025C496 328.484 497.146 325.999 499.7 325.999C500.481 325.999 501 327.209 501 329.03C501 332.758 503.675 334.164 505.645 331.47C506.39 330.451 507 327.276 507 324.415C507 320.875 507.448 319.041 508.402 318.675C510.545 317.853 511 318.879 511 324.543C511 334.414 516.083 334.006 516.801 324.078C517.16 319.121 517.563 317.999 518.991 317.999C520.33 317.999 520.893 319.141 521.385 322.847C521.739 325.513 522.307 327.971 522.646 328.311C523.784 329.449 526.763 327.078 527.404 324.525C528.169 321.476 529.108 321.356 531.5 323.999C532.495 325.099 533.927 325.999 534.68 325.999C536.48 325.999 538 321.848 538 316.934C538 312.911 537.259 312.14 535.287 314.112C533.235 316.164 532 313.927 532 308.162C532 299.214 535.853 295.565 540.882 299.749C542.811 301.354 543.007 302.661 543.243 315.488C543.329 320.151 543.414 324.814 543.5 329.477C545.021 329.694 546.542 329.911 548.063 330.128C553.118 330.85 559 335.662 559 339.076C559 341.778 552.981 341.741 550.521 339.023C548.048 336.29 547 337.342 547 342.558C547 345.016 546.527 346.999 545.941 346.999C545.359 346.999 543.11 345.574 540.942 343.832C537.069 340.72 535.816 340.643 535.398 343.492C535.087 345.609 531.143 350.852 528.996 352.001C527.791 352.646 526.242 352.661 524.619 352.044C521.61 350.9 520.451 346.28 521.324 338.908C521.644 336.208 521.567 333.999 521.153 333.999C519.323 333.999 518.205 336.492 518.692 339.49C518.996 341.361 518.748 343.036 518.11 343.431C516.334 344.529 516.839 350.235 519 353.499C521.713 357.595 521.515 358.999 518.223 358.999C514.479 358.999 511 356.397 511 353.597C511 351.506 508.288 347.999 506.671 347.999C506.302 347.999 506 349.704 506 351.787C506 355.009 505.253 356.31 501 360.499C496.821 364.615 496 366.02 496 369.056C496 374.498 491.745 377.806 489 374.499C488.315 373.674 486.785 372.999 485.6 372.999C484.415 372.999 482.438 372.293 481.207 371.431C478.131 369.277 474.58 369.932 474.183 372.727C473.912 374.633 474.45 375.047 477.912 375.601C482.518 376.338 485.604 378.212 484.677 379.712C484.331 380.271 482.183 380.979 479.903 381.285C473.634 382.126 472.853 383.593 476.903 386.91C482.737 391.688 478.38 393.535 468.409 390.51C462.55 388.733 456.831 388.568 455.267 390.132C453.15 392.249 450.999 390.293 451.028 386.28C451.049 383.429 451.787 381.781 454.028 379.582C456.611 377.047 457 375.945 457 371.158C457 369.322 457 367.486 457 365.65C456.229 366.375 455.457 367.1 454.686 367.825C451.439 370.876 451 370.602 451 365.522C451 361.85 450.55 360.751 448.5 359.407C446.241 357.927 446 357.116 446 351.006C446 346.305 446.444 343.875 447.456 343.035ZM532.443 338.222C530.589 335.575 527.478 335.312 526.553 337.723C525.753 339.809 528.384 341.999 531.691 341.999C534.406 341.999 534.557 341.24 532.443 338.222Z" fill="#1B27D8"/>
<path d="M496.003 693.5C497.1 695.7 497.995 698.175 497.992 699C497.978 702.278 493.863 717.422 490.863 725.232C485.352 739.58 488.302 740.604 462.566 715.403C446.888 700.051 440 692.644 440 691.139C440 689.947 442.53 683.241 445.623 676.236C453.916 657.452 455.884 653.813 457.286 654.656C461.463 657.166 494.325 690.136 496.003 693.5Z" fill="#FBF8EE"/>
<path d="M580.686 145.174C583.751 148.053 583.923 155.077 581 158C579.04 159.96 577.667 160 512.5 160C447.333 160 445.96 159.96 444 158C441.965 155.965 441.197 148.748 442.765 146.4C444.944 143.137 447.769 143 513.12 143C534.87 143 556.621 143 578.371 143C579.142 143.725 579.915 144.449 580.686 145.174Z" fill="#FBF8EE"/>
<path d="M636.972 765.829C639.932 771.432 639.585 778.257 635.952 785.938C632.5 793.234 625.699 803.082 621.116 807.422C620.087 808.396 619.059 809.371 618.03 810.345C617.002 808.038 615.974 805.729 614.946 803.422C613.25 799.615 608.001 788.665 603.281 779.089C600.42 773.285 597.56 767.483 594.699 761.679C597.992 755.066 601.286 748.452 604.579 741.839C610.013 730.927 614.768 722 615.144 722C616.256 722 620.676 730.481 628.085 746.829C631.906 755.26 635.906 763.81 636.972 765.829Z" fill="#FBF8EE"/>
<path d="M451.992 651.494C453.655 652.522 453.166 654.734 449.829 661.279C448.084 664.701 444.339 672.9 441.506 679.5C439.789 683.5 438.073 687.5 436.356 691.5C431.732 694.583 427.107 697.666 422.483 700.749C406.077 711.687 389.952 721.088 388.808 720.381C387.568 719.615 388.804 715.514 393.718 704.083C399.816 689.896 405.696 677.993 407.703 675.776C408.619 674.764 411.874 672.527 414.935 670.804C417.996 669.081 426.353 664.21 433.506 659.98C447.115 651.933 450.321 650.461 451.992 651.494Z" fill="#FBF8EE"/>
<path d="M441.503 288.881C444.139 284.03 448.239 283 464.901 283C469.934 283 474.967 283 480 283C480 290 480 297 480 304C480 311 480 318 480 325C473.333 325 466.667 325 460 325C453.333 325 446.667 325 440 325C440.013 319.417 440.027 313.833 440.04 308.25C440.07 295.719 440.438 290.84 441.503 288.881ZM473.333 289.667C472.966 289.3 468.271 289 462.898 289C453.216 289 448.242 290.023 446.786 292.313C446.371 292.966 446.023 299.237 446.015 306.25C446.01 310.5 446.005 314.75 446 319C450.667 319 455.333 319 460 319C464.667 319 469.333 319 474 319C474 314.222 474 309.445 474 304.667C474 296.784 473.7 290.034 473.333 289.667Z" fill="#1B27D8"/>
<path d="M459.25 397.759C469.837 397.472 478.837 397.436 479.25 397.678C479.663 397.92 480 406.866 480 417.559C480 424.039 480 430.52 480 437C474.75 436.999 469.5 436.997 464.25 436.996C450.273 436.993 448.131 436.768 445.225 434.996C443.424 433.898 441.511 431.845 440.975 430.434C440.439 429.023 440 421.212 440 413.075C440 408.143 440 403.212 440 398.28C446.417 398.106 452.833 397.933 459.25 397.759ZM460.027 403C455.351 403 450.676 403 446 403C446 406.963 446 410.926 446 414.889C446 431.496 446.003 431.5 461.661 431.5C465.607 431.5 469.554 431.5 473.5 431.5C473.592 426.75 473.685 422 473.777 417.25C473.869 412.5 473.963 407.75 474.055 403C469.379 403 464.703 403 460.027 403Z" fill="#1B27D8"/>
<path d="M563.25 283.002C587.677 283.004 588.995 284.348 588.998 309.25C588.998 314.5 589 319.75 589 325C582.167 325 575.333 325 568.5 325C561.667 325 554.833 325 548 325C548 318 548 311 548 304C548 297 548 290 548 283C553.083 283.001 558.167 283.001 563.25 283.002ZM581.963 293.235C580.616 289.881 577.073 289 564.935 289C561.29 289 557.645 289 554 289C554 294 554 299 554 304C554 309 554 314 554 319C558.833 319 563.667 319 568.5 319C573.333 319 578.167 319 583 319C582.979 315.083 582.958 311.167 582.937 307.25C582.902 300.788 582.463 294.481 581.963 293.235Z" fill="#1B27D8"/>
<path d="M427.8 601C432.007 610.451 434.304 616.758 433.684 617.161C431.675 618.469 404.303 623.331 402.609 622.681C401.656 622.315 399.065 618.075 396.851 613.258C394.637 608.441 391.28 601.172 389.392 597.104C387.504 593.036 386.113 589.552 386.302 589.363C386.491 589.174 393.707 587.576 402.338 585.811C416.033 583.011 418.213 582.787 419.466 584.051C420.255 584.848 424.005 592.475 427.8 601Z" fill="#FBF8EE"/>
<path d="M581.963 293.235C582.463 294.481 582.902 300.788 582.937 307.25C582.958 311.167 582.979 315.083 583 319C578.167 319 573.333 319 568.5 319C563.667 319 558.833 319 554 319C554 314 554 309 554 304C554 299 554 294 554 289C557.645 289 561.29 289 564.935 289C577.073 289 580.616 289.881 581.963 293.235ZM561.349 295.419C560.372 295.794 560 298.145 560 303.933C560 310.815 560.269 312.074 561.934 312.965C564.386 314.277 571.078 314.301 574.475 313.009C577.028 312.038 577.076 311.852 576.791 303.759C576.694 301.006 576.597 298.253 576.5 295.5C574.2 295.4 571.899 295.301 569.599 295.201C565.804 295.036 562.091 295.134 561.349 295.419Z" fill="#FBF8EE"/>
<path d="M544.818 608.099C546.4 608.716 547.036 609.662 546.818 611.074C546.562 612.733 543.117 614.528 529.499 620.094C509.617 628.221 506.569 628.564 503.684 623C502.18 620.099 501.938 617.738 502.272 609.206C502.704 598.15 504.44 593.839 508.717 593.198C509.827 593.032 517.882 596.113 526.617 600.045C535.352 603.977 543.542 607.602 544.818 608.099Z" fill="#1626E4"/>
<path d="M564.539 637.073C567.992 645.558 570.859 653.513 570.909 654.75C571.141 660.492 561.233 663.829 548.991 662.133C540.395 660.942 537 658.993 537 655.25C537 653.763 540.465 644.773 544.7 635.273C550.526 622.204 552.837 618 554.192 618C556.607 618 557.285 619.251 564.539 637.073Z" fill="#1626E4"/>
<path d="M473.333 289.667C473.7 290.034 474 296.784 474 304.667C474 309.445 474 314.222 474 319C469.333 319 464.667 319 460 319C455.333 319 450.667 319 446 319C446.005 314.75 446.01 310.5 446.015 306.25C446.023 299.237 446.371 292.966 446.786 292.313C448.242 290.023 453.216 289 462.898 289C468.271 289 472.966 289.3 473.333 289.667ZM452.2 296.2C451.487 296.913 451 300.348 451 304.665C451 313.119 451.822 314 459.712 314C467.147 314 469 312.181 469 304.878C469 295.842 468.247 295 460.165 295C456.237 295 452.897 295.503 452.2 296.2Z" fill="#FBF8EE"/>
<path d="M542.612 583.999C546.612 593.624 549.797 602.395 549.692 603.489C549.587 604.583 548.751 605.621 547.834 605.796C546.084 606.129 533.176 600.892 518.615 593.94C509.154 589.423 507.742 587.454 510.018 581.958C511.773 577.722 521.068 568.723 525.974 566.511C533.465 563.133 534.311 564.023 542.612 583.999Z" fill="#1626E4"/>
<path d="M548.434 615.336C549.295 615.666 549.997 616.739 549.994 617.719C549.987 619.684 535.839 651.284 533.943 653.569C530.322 657.932 518.515 651.289 511.653 641.027C509.473 637.766 509.545 632.721 511.802 630.679C516.017 626.864 545.881 614.356 548.434 615.336Z" fill="#1626E4"/>
<path d="M596.75 631.339C600.412 634.609 599.326 638.518 592.778 645.633C583.947 655.229 575.536 657.872 572.502 652.004C569.42 646.044 559 619.667 559 617.825C559 614.421 561.629 614.805 572.638 619.817C578.612 622.537 585.975 625.79 589 627.046C592.025 628.302 595.513 630.234 596.75 631.339Z" fill="#1626E4"/>
<path d="M460.027 403C464.703 403 469.379 403 474.055 403C473.963 407.75 473.869 412.5 473.777 417.25C473.685 422 473.592 426.75 473.5 431.5C469.554 431.5 465.607 431.5 461.661 431.5C446.003 431.5 446 431.496 446 414.889C446 410.926 446 406.963 446 403C450.676 403 455.351 403 460.027 403ZM467.37 408.704C466.167 407.501 453.484 407.916 452.2 409.2C450.456 410.944 450.623 423.442 452.41 424.925C453.272 425.64 456.478 425.98 460.66 425.798C462.94 425.699 465.22 425.599 467.5 425.5C467.596 422.818 467.691 420.136 467.787 417.454C467.945 413.029 467.757 409.091 467.37 408.704Z" fill="#EEF2F3"/>
<path d="M606.119 601.836C607.218 607.028 606.412 618.079 604.621 622.364C601.737 629.267 600.34 629.175 579.811 620.748C555.641 610.826 555.645 611.494 579.705 600.966C589.718 596.585 598.82 593 599.932 593C602.371 593 605.062 596.842 606.119 601.836Z" fill="#1626E4"/>
<path d="M442.582 592.856C444.396 597.277 444.605 598.848 443.777 601.856C442.197 607.595 437.954 615.354 436.946 614.346C435.235 612.635 422 582.789 422.004 580.65C422.009 577.999 427.515 563.653 428.665 563.297C429.414 563.065 436.763 578.675 442.582 592.856Z" fill="#FBF8EE"/>
<path d="M424.312 562C425.796 562 425.717 562.697 423.596 568.25C419.592 578.736 419.063 580 418.683 580C418.481 580 411.947 581.35 404.163 583C388.277 586.367 386 586.576 386 584.66C386 581.615 392.29 570.902 394.838 569.607C397.696 568.154 421.541 562 424.312 562Z" fill="#FBF8EE"/>
<path d="M538.5 101C540.667 101 542.833 101 545 101C545 106.333 545 111.667 545 117C545 122.333 545 127.667 545 133C542.833 133 540.667 133 538.5 133C536.333 133 534.167 133 532 133C532 127.667 532 122.333 532 117C532 111.667 532 106.333 532 101C534.167 101 536.333 101 538.5 101Z" fill="#FBF8EE"/>
<path d="M522.5 101C524.667 101 526.833 101 529 101C529 106.333 529 111.667 529 117C529 122.333 529 127.667 529 133C526.833 133 524.667 133 522.5 133C520.333 133 518.167 133 516 133C516 127.667 516 122.333 516 117C516 111.667 516 106.333 516 101C518.167 101 520.333 101 522.5 101Z" fill="#FBF8EE"/>
<path d="M507 101C509 101 511 101 513 101C513 106.333 513 111.667 513 117C513 122.333 513 127.667 513 133C511 133 509 133 507 133C505 133 503 133 501 133C501 127.667 501 122.333 501 117C501 111.667 501 106.333 501 101C503 101 505 101 507 101Z" fill="#FBF8EE"/>
<path d="M463 101C465 101 467 101 469 101C469 106.333 469 111.667 469 117C469 122.333 469 127.667 469 133C467 133 465 133 463 133C461 133 459 133 457 133C457 127.667 457 122.333 457 117C457 111.667 457 106.333 457 101C459 101 461 101 463 101Z" fill="#FBF8EE"/>
<path d="M488.055 291.607C489.759 290.173 491.738 289 492.453 289C494.663 289 496.262 291.813 495.586 294.508C494.841 297.478 496.44 301 498.534 301C499.34 301 499.999 301.9 499.999 303C499.999 304.333 499.332 305 497.999 305C496.224 305 495.999 305.666 495.999 310.927C495.999 316.204 495.697 317.091 493.249 319.009C490.981 320.785 490.411 322.156 489.999 326.831C489.573 331.666 489.205 332.5 487.499 332.5C485.578 332.5 485.488 331.743 485.228 313.357C485.138 306.976 485.047 300.595 484.957 294.214C485.99 293.345 487.022 292.476 488.055 291.607Z" fill="#1B27D8"/>
<path d="M448.251 101.2C450.168 101.1 452.084 101 454.001 100.9C454.001 106.25 454.001 111.6 454.001 116.95C454.001 122.3 454.001 127.65 454.001 133C452.183 133 450.364 133 448.546 133C443.18 133 443.082 132.947 442.498 129.75C442.171 127.963 442.039 120.875 442.203 114C442.302 109.833 442.402 105.667 442.501 101.5C444.418 101.4 446.334 101.3 448.251 101.2Z" fill="#FBF8EE"/>
<path d="M570.602 100.776C571.401 100.929 572.201 101.081 573 101.234C573 106.528 573 111.824 573 117.118C573 122.412 573 127.707 573 133.001C571.167 133.001 569.333 133.001 567.5 133.001C565.667 133.001 563.833 133.001 562 133.001C562 127.705 562 122.41 562 117.115C562 111.819 562 106.524 562 101.228C563.034 101.076 564.068 100.925 565.102 100.773C566.808 100.523 569.283 100.524 570.602 100.776Z" fill="#FBF8EE"/>
<path d="M492.5 101C494.333 101 496.167 101 498 101C498 106.333 498 111.667 498 117C498 122.333 498 127.667 498 133C496.167 133 494.333 133 492.5 133C490.667 133 488.833 133 487 133C487 127.667 487 122.333 487 117C487 111.667 487 106.333 487 101C488.833 101 490.667 101 492.5 101Z" fill="#FBF8EE"/>
<path d="M477.5 101C479.333 101 481.167 101 483 101C483 106.333 483 111.667 483 117C483 122.333 483 127.667 483 133C481.167 133 479.333 133 477.5 133C475.667 133 473.833 133 472 133C472 127.667 472 122.333 472 117C472 111.667 472 106.333 472 101C473.833 101 475.667 101 477.5 101Z" fill="#FBF8EE"/>
<path d="M456.386 330C468.976 330 473.435 330.346 475.636 331.494C477.211 332.316 479.458 332.991 480.628 332.994C482.914 333.001 485.408 335.259 484.325 336.342C483.963 336.704 481.747 337 479.401 337C475.803 337 474.802 337.469 473 340C470.186 343.952 465.674 344.164 463.721 340.437C463.273 339.583 462.826 338.728 462.378 337.874C461.989 338.728 461.6 339.583 461.211 340.437C459.493 344.207 454.7 343.96 450.913 339.906C448.929 337.782 446.765 336.644 444.011 336.275C440.387 335.789 440 335.46 440 332.868C440 331.912 440 330.956 440 330C445.462 330 450.924 330 456.386 330Z" fill="#1B27D8"/>
<path d="M556.927 100.69C558.914 101.21 559 101.888 559 117.116C559 122.41 559 127.705 559 132.999C557.167 132.999 555.333 132.999 553.5 132.999C551.667 132.999 549.833 132.999 548 132.999C548 127.709 548 122.42 548 117.13C548 111.84 548 106.551 548 101.261C549.142 101.076 550.285 100.889 551.427 100.704C553.312 100.398 555.787 100.392 556.927 100.69Z" fill="#FBF8EE"/>
<path d="M501.666 380.666C502.033 380.299 503.945 379.968 505.916 379.929C507.887 379.89 510.399 379.505 511.499 379.074C513.907 378.13 517.192 380.058 520.074 384.105C521.715 386.41 521.885 387.344 520.971 389.051C520.352 390.209 520.114 391.856 520.443 392.713C520.969 394.085 521.279 394.055 523.043 392.459C525.362 390.36 527.699 391.731 526.616 394.554C526.129 395.823 525.23 396.095 523.003 395.65C520.476 395.145 519.629 395.57 517.269 398.528C514.075 402.531 512.309 402.817 508.634 399.926C506.448 398.206 505.999 397.045 505.999 393.101C505.999 389.324 505.486 387.865 503.499 385.999C501.002 383.653 500.408 381.924 501.666 380.666Z" fill="#1626E4"/>
<path d="M561.349 295.419C562.091 295.134 565.804 295.036 569.599 295.201C571.899 295.301 574.2 295.4 576.5 295.5C576.597 298.253 576.694 301.006 576.791 303.759C577.076 311.852 577.028 312.038 574.475 313.009C571.078 314.301 564.386 314.277 561.934 312.965C560.269 312.074 560 310.815 560 303.933C560 298.145 560.372 295.794 561.349 295.419Z" fill="#1626E4"/>
<path d="M551 391C553.667 391 556.333 391 559 391C559 393.667 559 396.333 559 399C559 401.667 559 404.333 559 407C556.333 407 553.667 407 551 407C548.333 407 545.667 407 543 407C543 404.333 543 401.667 543 399C543 396.333 543 393.667 543 391C545.667 391 548.333 391 551 391ZM550.497 396.363C548.128 397.272 548.942 401.5 551.486 401.5C553.692 401.5 554.791 398.391 553.161 396.761C552.596 396.196 551.398 396.017 550.497 396.363Z" fill="#FBF8EE"/>
<path d="M467.369 408.704C467.756 409.091 467.944 413.029 467.786 417.454C467.69 420.136 467.595 422.818 467.499 425.5C465.219 425.599 462.939 425.699 460.659 425.798C456.477 425.98 453.271 425.64 452.409 424.925C450.622 423.442 450.455 410.944 452.199 409.2C453.483 407.916 466.166 407.501 467.369 408.704Z" fill="#1626E4"/>
<path d="M452.2 296.2C452.897 295.503 456.237 295 460.165 295C468.247 295 469 295.842 469 304.878C469 312.181 467.147 314 459.712 314C451.822 314 451 313.119 451 304.665C451 300.348 451.487 296.913 452.2 296.2Z" fill="#1626E4"/>
<path d="M537.638 348.696C538.021 348.313 540.622 347.996 543.418 347.993C546.214 347.99 550.219 347.511 552.319 346.928C558.232 345.286 561.827 349.39 556.573 351.784C555.006 352.498 554.031 353.886 553.823 355.695C553.603 357.615 552.862 358.591 551.471 358.79C550.354 358.95 549.004 360.075 548.471 361.29C547.7 363.048 546.528 363.561 542.741 363.804C536.759 364.188 535.157 361.819 539.339 358.772C542.721 356.308 542.778 352.933 539.471 350.927C538.08 350.083 537.255 349.079 537.638 348.696Z" fill="#1B27D8"/>
<path d="M572.749 405.659C573.161 405.406 576.138 405.28 579.363 405.381C588.334 405.661 588.999 406.919 588.999 423.612C588.999 428.075 588.999 432.538 588.999 437.001C587.832 437.001 586.666 437.001 585.499 437.001C581.658 437.001 581.184 435.884 583.172 431.521C583.563 430.663 583.954 429.805 584.345 428.947C583.954 428.556 583.563 428.165 583.172 427.774C581.725 426.327 581.658 422.028 583.027 418.426C583.845 416.275 583.711 415.34 582.372 413.861C580.213 411.475 579.14 411.519 576.387 414.106C575.155 415.264 573.664 415.912 573.073 415.547C571.864 414.8 571.588 406.372 572.749 405.659Z" fill="#1B27D8"/>
<path d="M577.5 330C581.333 330 585.167 330 589 330C589 331 589 332 589 333C589 335.622 588.646 336 586.188 336C584.223 336 582.708 336.904 581.158 339C579.766 340.883 578.048 342 576.542 342C574.135 342 571 339.684 571 337.907C571 337.384 569.875 336.444 568.5 335.818C566.87 335.075 566 333.864 566 332.339C566 330.022 566.11 330 577.5 330Z" fill="#1B27D8"/>
<path d="M577.008 101.988C577.403 101.348 578.801 100.977 580.114 101.163C582.479 101.497 582.504 101.626 582.789 115C582.947 122.425 582.826 129.512 582.52 130.75C581.818 133.585 577.42 133.895 576.555 131.169C575.741 128.605 576.132 103.405 577.008 101.988Z" fill="#EEF2F3"/>
<path d="M573.584 348.607C574.454 348.273 576.704 348 578.584 348C581.715 348 582.002 347.748 582.002 345C582.002 342.696 582.452 342 583.945 342C586.796 342 589.002 345.833 589.002 350.788C589.002 357.063 587.66 359 583.313 359C580.35 359 578.998 358.246 575.848 354.834C571.56 350.189 571.303 349.482 573.584 348.607Z" fill="#1B27D8"/>
<path d="M453 137C453.333 137 453.667 137 454 137C474 137 494 137 514 137C553.333 137 574 137.344 574 138C574 138.656 553.353 139 514.059 139C475.138 139 453.922 138.649 453 137Z" fill="#FBF8EE"/>
<path d="M514.452 294.203C516.688 293.184 516.998 292.431 516.998 288.021C516.998 286.347 516.998 284.674 516.998 283C519.165 283 521.331 283 523.498 283C528.496 283 529.998 283.333 529.998 284.443C529.998 286.195 526.204 289 523.834 289C521.571 289 520.555 290.761 521.89 292.369C523.312 294.083 516.998 300.337 514.354 299.833C511.412 299.272 511.476 295.559 514.452 294.203Z" fill="#1B27D8"/>
<path d="M437 853C438.333 852.333 439.667 851.667 441 851C442 851 443 851 444 851C447.875 853.397 449 854.973 449 856.047C449 856.698 449 857.349 449 858C448.667 858.333 448.333 858.667 448 859C443.737 862.225 442.163 863.124 441.75 863.08C441.5 863.053 441.25 863.027 441 863C440.667 862.667 440.333 862.333 440 862C436.67 860.321 436 858.981 436 856.992C436 855.995 436 854.997 436 854C436.333 853.667 436.667 853.333 437 853ZM443.574 854.39C443.049 854.189 442.525 853.987 442 853.786C441.475 853.987 440.951 854.189 440.426 854.39C437.941 855.344 439.149 858.5 442 858.5C444.851 858.5 446.059 855.344 443.574 854.39Z" fill="#DCDBEF"/>
<path d="M441.96 371.535C443.307 370.316 444.727 369.964 446.503 370.41C450.744 371.475 450.892 374.735 446.767 376.233C446.364 376.379 445.874 379.687 445.678 383.584C445.277 391.574 444.711 392.999 441.941 392.999C440.151 392.999 440 392.233 440 383.154C440 374.646 440.267 373.068 441.96 371.535Z" fill="#1B27D8"/>
<path d="M497.36 283.415C498.109 283.128 501.372 283.029 504.61 283.196C506.573 283.297 508.535 283.399 510.498 283.5C510.599 285.25 510.699 287 510.8 288.75C511.072 293.467 510.895 294 509.062 294C507.455 294 506.886 293.151 506.382 290C505.687 285.654 503.997 284.93 500.58 287.515C499.157 288.592 498.318 288.681 497.33 287.861C495.606 286.43 495.622 284.082 497.36 283.415Z" fill="#1B27D8"/>
<path d="M430.768 877.644C431.246 877.348 434.882 877.137 438.848 877.174C446.949 877.25 448.382 878.388 447.81 884.296C447.352 889.026 444.588 888.562 444.186 883.688C443.798 878.977 441.708 879.233 441 884.079C440.294 888.912 437.598 888.679 437.19 883.75C436.994 881.379 436.372 880 435.5 880C434.628 880 434.006 881.379 433.81 883.75C433.601 886.279 433.012 887.5 432 887.5C430.924 887.5 430.415 886.182 430.199 882.841C430.033 880.278 430.29 877.94 430.768 877.644Z" fill="#ECF0F1"/>
<path d="M585.542 377C586.723 377 587.903 377 589.084 377C588.987 379.583 588.889 382.167 588.792 384.75C588.504 392.383 588.458 392.505 585.744 392.817C582.31 393.212 581.22 390.905 582.828 386.644C583.592 384.62 583.648 383.248 582.992 382.592C582.447 382.047 582 380.565 582 379.3C582 377.333 582.513 377 585.542 377Z" fill="#1B27D8"/>
<path d="M381.809 856.824C385.712 852.589 386.055 851.811 385.448 848.574C384.706 844.616 385.765 843.978 388.345 846.829C390.646 849.372 390.415 851.766 387.502 855.586C386.669 856.678 385.837 857.769 385.004 858.861C385.727 858.967 386.451 859.075 387.174 859.181C388.367 859.357 389.536 860.085 389.772 860.8C390.1 861.796 388.712 862.03 383.85 861.8C381.733 861.7 379.617 861.6 377.5 861.5C378.936 859.941 380.373 858.383 381.809 856.824Z" fill="#EDEFF3"/>
<path d="M487.499 342.999C489.445 342.259 490.86 342.394 493.054 343.528C495.447 344.765 495.998 345.695 495.998 348.49C495.998 352.538 493.604 354.283 488.702 353.809C485.64 353.513 485.484 353.288 485.193 348.745C484.915 344.414 485.12 343.904 487.499 342.999Z" fill="#1B27D8"/>
<path d="M415.2 844.199C416.894 842.505 421 842.682 421 844.449C421 845.247 420.227 846.332 419.283 846.86C417.734 847.727 417.709 848.089 419.033 850.574C420.172 852.711 420.22 853.42 419.25 853.746C418.534 853.986 418 855.839 418 858.082C418 861.332 417.66 861.999 416 861.999C414.161 861.999 414 861.332 414 853.699C414 848.577 414.459 844.94 415.2 844.199Z" fill="#D4D5EB"/>
<path d="M408.566 874.763C412.979 866.63 423.961 874.078 420.824 883.077C418.92 888.54 412.547 889.781 409.074 885.365C406.656 882.291 406.479 878.61 408.566 874.763ZM416.921 876.75C415.651 874.569 412.42 874.467 411.608 876.582C410.239 880.149 410.968 883.854 413.175 884.555C416.884 885.732 419.264 880.773 416.921 876.75Z" fill="#EDEFF3"/>
<path d="M395.842 872.177C396.888 870.576 403.172 870.976 403.73 872.679C403.949 873.346 402.931 873.997 401.384 874.179C398.242 874.549 396.831 877.001 399.76 877.001C404.348 877.001 406.96 884.881 403.064 886.966C400.655 888.255 397.304 888.306 396.537 887.065C396.219 886.55 397.205 885.531 398.728 884.801C402.4 883.041 402.286 880.655 398.498 880.006C396.028 879.583 395.452 878.964 395.237 876.497C395.094 874.849 395.366 872.905 395.842 872.177Z" fill="#EEF2F3"/>
<path d="M451 851C453.667 851.333 456.333 851.667 459 852C459 852.667 459 853.333 459 854C455.843 858.888 455.865 859 457.885 859C459.098 859 460 859.639 460 860.5C460 861.624 458.809 861.998 455.25 861.992C450.52 861.984 450.505 861.974 451.75 859.492C452.167 858.661 452.583 857.831 453 857C453.333 856.667 453.667 856.333 454 856C454.866 854.45 454.191 854 453.059 854C451.895 854 451 853.348 451 852.5C451 852 451 851.5 451 851Z" fill="#DFE0EC"/>
<path d="M453 137.001C453.922 138.65 475.138 139.001 514.059 139.001C553.353 139.001 574 138.657 574 138.001C574 137.345 553.333 137.001 514 137.001C494 137.001 474 137.001 454 137.001C567.25 136.531 574.5 136.681 574.5 138.001C574.5 139.318 566.972 139.501 512.75 139.501C478.787 139.501 451 139.164 451 138.751C451 138.501 451 138.251 451 138.001C451.667 137.668 452.333 137.334 453 137.001Z" fill="#6368C6"/>
<path d="M373.119 875.25C373.646 873.424 374.722 872 375.574 872C376.796 872 376.942 872.729 376.326 875.75C375.367 880.456 375.38 883.373 376.383 888.75C377.023 892.181 376.893 893 375.707 893C374.803 893 373.807 891.29 373.119 888.557C371.814 883.376 371.814 879.768 373.119 875.25Z" fill="#D3D4EE"/>
<path d="M393.869 848.5C394.458 845.79 394.898 845.5 398.427 845.5C403.17 845.5 404.29 847.558 400.054 848.488C396.206 849.333 396.18 850.417 399.968 851.986C407.217 854.989 403.117 864.322 395.4 862.385C392.353 861.62 392.775 859.622 396.079 859.165C401.125 858.468 400.93 854.875 395.831 854.617C393.318 854.49 392.871 853.095 393.869 848.5Z" fill="#EDEFF3"/>
<path d="M523.829 314.654C526.277 312.439 528.301 312.569 530.582 315.089C532.438 317.14 532.438 317.206 530.546 318.589C528.253 320.266 526.548 320.363 523.934 318.964C521.524 317.674 521.503 316.759 523.829 314.654Z" fill="#1B27D8"/>
<path d="M470.448 355.441C472.817 353.889 479.999 354.276 479.999 355.956C479.999 357.773 476.022 360 472.777 360C468.299 360 467.093 357.639 470.448 355.441Z" fill="#1B27D8"/>
<path d="M416.92 876.749C419.263 880.772 416.883 885.731 413.174 884.554C410.967 883.853 410.238 880.148 411.607 876.581C412.419 874.466 415.65 874.568 416.92 876.749Z" fill="#1B27D8"/>
<path d="M560.631 353.701C561.731 352.601 569.807 352.881 570.526 354.044C571.838 356.167 568.774 358.106 564.594 357.799C560.701 357.513 558.792 355.54 560.631 353.701Z" fill="#1B27D8"/>
<path d="M577.155 393.245C579.914 390.486 582.017 392.482 581.986 397.831C581.963 401.88 580.45 403.742 578.279 402.398C576.139 401.073 575.394 395.006 577.155 393.245Z" fill="#1B27D8"/>
<path d="M516.364 461.308C517.29 461.663 518 463.049 518 464.499C518 467.415 515.536 468.827 513.114 467.299C512.226 466.739 511.5 465.479 511.5 464.499C511.5 462.258 514.208 460.481 516.364 461.308Z" fill="#FBF8EE"/>
<path d="M565.501 492.361C567.755 493.226 567.393 497.739 565.01 498.496C563.915 498.844 562.565 498.848 562.01 498.505C560.454 497.543 560.817 493.007 562.501 492.361C563.001 492.169 563.501 491.977 564.001 491.785C564.501 491.977 565.001 492.169 565.501 492.361Z" fill="#FBF8EE"/>
<path d="M501.897 309.563C503.145 308.792 509 310.061 509 311.102C509 312.57 504.089 315.248 502.508 314.641C500.871 314.013 500.444 310.461 501.897 309.563Z" fill="#1B27D8"/>
<path d="M452.25 872.25C453.075 872.525 453.5 874.822 453.5 879C453.5 883.178 453.075 885.475 452.25 885.75C451.328 886.057 451 884.289 451 879C451 873.711 451.328 871.943 452.25 872.25Z" fill="#ECF0F1"/>
<path d="M459.355 873C463.108 873 464.006 888.092 460.429 891.061C458.275 892.849 457.92 891.881 459.127 887.508C460.127 883.888 459.809 878.267 458.397 874.587C458 873.553 458.335 873 459.355 873Z" fill="#ECF0F1"/>
<path d="M387 871C392.163 871 392.888 872.946 389.605 877.994C388.737 879.329 387.868 880.665 387 882C387 881.333 387 880.667 387 880C387 878 387 876 387 874C387 873 387 872 387 871Z" fill="#EEF2F3"/>
<path d="M583.501 364.361C585.88 363.448 587.887 364.695 588.598 367.529C589.546 371.305 587.721 372.701 584.552 370.625C581.741 368.783 581.151 365.263 583.501 364.361Z" fill="#1B27D8"/>
<path d="M537.626 431.709C538.865 430.47 542.766 430.946 543.325 432.403C544.118 434.47 541.666 437.274 539.436 436.849C537.501 436.48 536.291 433.044 537.626 431.709Z" fill="#1B27D8"/>
<path d="M387 874C381.056 874 380 873.548 380 872.5C380 871.452 381.056 871 383.5 871C384.667 871 385.833 871 387 871C387 872 387 873 387 874Z" fill="#DBDBEF"/>
<path d="M387 882C386.121 885.1 385.221 886 384.433 886C383.955 886 383.478 886 383 886C383 885.667 383 885.333 383 885C383.805 881.125 384.704 880 385.519 880C386.013 880 386.506 880 387 880C387 880.667 387 881.333 387 882Z" fill="#E4E3F4"/>
<path d="M532.445 338.223C534.559 341.241 534.408 342 531.693 342C528.386 342 525.755 339.81 526.555 337.724C527.48 335.313 530.591 335.576 532.445 338.223Z" fill="#FBF8EE"/>
<path d="M380.024 846.479C381.586 845.065 382.318 844.918 383.235 845.835C384.152 846.752 383.941 847.503 382.312 849.132C381.151 850.293 379.706 850.936 379.101 850.562C377.505 849.576 377.737 848.548 380.024 846.479Z" fill="#EDEFF3"/>
<path d="M487.189 381.211C488.677 379.723 491.654 379.63 492.528 381.043C493.51 382.631 490.936 385.134 488.667 384.797C486.214 384.433 485.558 382.842 487.189 381.211Z" fill="#1B27D8"/>
<path d="M504.2 493.201C507.186 490.215 511.859 493.527 509.88 497.225C508.302 500.173 503 498.844 503 495.501C503 494.896 503.54 493.861 504.2 493.201Z" fill="#EEF2F3"/>
<path d="M497.567 320.337C498.429 320.006 499.644 320.245 500.267 320.868C500.645 321.246 501.022 321.623 501.4 322.001C501.022 322.379 500.645 322.756 500.267 323.134C498.987 324.414 496 323.621 496 322.001C496 321.416 496.705 320.668 497.567 320.337Z" fill="#1B27D8"/>
<path d="M507.499 421.362C509.706 420.515 511.242 422.252 510.834 425.135C510.609 426.722 509.841 427.5 508.499 427.5C505.886 427.5 505.04 422.306 507.499 421.362Z" fill="#1B27D8"/>
<path d="M537.486 290.012C539.037 288.725 541.999 289.272 541.999 290.847C541.999 292.431 539.085 294.248 537.512 293.644C535.594 292.908 535.585 291.59 537.486 290.012Z" fill="#1B27D8"/>
<path d="M443.576 854.389C446.061 855.343 444.853 858.499 442.002 858.499C439.151 858.499 437.943 855.343 440.428 854.389C440.953 854.188 441.477 853.986 442.002 853.785C442.527 853.986 443.051 854.188 443.576 854.389Z" fill="#2D33D0"/>
<path d="M517.449 311.841C519.387 310.958 520.344 310.944 521.185 311.785C522.768 313.368 520.295 316.188 517.666 315.798C514.631 315.347 514.512 313.179 517.449 311.841Z" fill="#1B27D8"/>
<path d="M464.087 349.446C464.685 349.076 465.675 349.275 466.287 349.887C466.658 350.258 467.029 350.629 467.4 351C467.029 351.371 466.658 351.742 466.287 352.113C465.133 353.267 463 352.545 463 351C463 350.515 463.489 349.816 464.087 349.446Z" fill="#1B27D8"/>
<path d="M482.087 355.446C482.685 355.076 483.675 355.275 484.287 355.887C484.658 356.258 485.029 356.629 485.4 357C485.029 357.371 484.658 357.742 484.287 358.113C483.133 359.267 481 358.545 481 357C481 356.515 481.489 355.816 482.087 355.446Z" fill="#1B27D8"/>
<path d="M533.087 354.446C533.685 354.076 534.675 354.275 535.287 354.887C535.658 355.258 536.029 355.629 536.4 356C536.029 356.371 535.658 356.742 535.287 357.113C534.133 358.267 532 357.545 532 356C532 355.515 532.489 354.816 533.087 354.446Z" fill="#1B27D8"/>
<path d="M508.087 360.446C508.685 360.076 509.675 360.275 510.287 360.887C510.658 361.258 511.029 361.629 511.4 362C511.029 362.371 510.658 362.742 510.287 363.113C509.133 364.267 507 363.545 507 362C507 361.515 507.489 360.816 508.087 360.446Z" fill="#1B27D8"/>
<path d="M502.087 370.446C502.685 370.076 503.675 370.275 504.287 370.887C504.658 371.258 505.029 371.629 505.4 372C505.029 372.371 504.658 372.742 504.287 373.113C503.133 374.267 501 373.545 501 372C501 371.515 501.489 370.816 502.087 370.446Z" fill="#1B27D8"/>
<path d="M475.499 343.364C476.4 343.018 477.598 343.197 478.163 343.762C479.793 345.392 478.694 348.501 476.488 348.501C473.944 348.501 473.13 344.273 475.499 343.364Z" fill="#1B27D8"/>
<path d="M550.499 396.364C551.4 396.018 552.598 396.197 553.163 396.762C554.793 398.392 553.694 401.501 551.488 401.501C548.944 401.501 548.13 397.273 550.499 396.364Z" fill="#1B27D8"/>
<path d="M577.454 370.38C579.288 369.676 581.002 370.701 581.002 372.5C581.002 374.558 579.114 375.338 577.458 373.964C575.604 372.426 575.603 371.09 577.454 370.38Z" fill="#1B27D8"/>
<path d="M441.493 359.364C442.396 359.018 443.614 359.214 444.2 359.8C445.724 361.324 444.33 364.21 442.263 363.812C439.961 363.369 439.407 360.165 441.493 359.364Z" fill="#1B27D8"/>
<path d="M502.493 294.364C503.396 294.018 504.614 294.214 505.2 294.8C506.724 296.324 505.33 299.21 503.263 298.812C500.961 298.369 500.407 295.165 502.493 294.364Z" fill="#1B27D8"/>
<path d="M568.568 341.336C569.43 341.005 570.648 341.247 571.275 341.874C572.682 343.281 569.807 346.616 568.097 345.559C566.482 344.561 566.764 342.028 568.568 341.336Z" fill="#1B27D8"/>
<path d="M538.568 283.336C539.43 283.005 540.648 283.247 541.275 283.874C542.682 285.281 539.807 288.616 538.097 287.559C536.482 286.561 536.764 284.028 538.568 283.336Z" fill="#1B27D8"/>
<path d="M545.031 420.48C545.659 420.092 546.644 420.245 547.219 420.82C548.563 422.164 547.39 425.297 545.748 424.75C544.076 424.193 543.601 421.364 545.031 420.48Z" fill="#1B27D8"/>
<path d="M568.693 365.638C569.929 364.402 572.999 365.016 572.999 366.499C572.999 367.324 572.126 367.999 571.058 367.999C568.971 367.999 567.65 366.681 568.693 365.638Z" fill="#1B27D8"/>
<path d="M487.25 284.25C487.938 284.479 488.5 285.042 488.5 285.5C488.5 285.958 487.938 286.521 487.25 286.75C486.562 286.979 486 286.417 486 285.5C486 284.583 486.562 284.021 487.25 284.25Z" fill="#1B27D8"/>
<path d="M494.802 461C495.462 461 496.002 461.54 496.002 462.2C496.002 462.6 496.002 463 496.002 463.4C495.602 463 495.202 462.6 494.802 462.2C494.402 461.8 494.002 461.4 493.602 461C494.002 461 494.402 461 494.802 461Z" fill="#FBF8EE"/>
<path d="M508 302C508.55 302 509 302.45 509 303C509 303.55 508.55 304 508 304C507.45 304 507 303.55 507 303C507 302.45 507.45 302 508 302Z" fill="#1B27D8"/>
<path d="M482 414C482.55 414 483 414.45 483 415C483 415.55 482.55 416 482 416C481.45 416 481 415.55 481 415C481 414.45 481.45 414 482 414Z" fill="#EEF2F3"/>
<path d="M503 403C503.667 402.333 504.333 401.667 505 401C505 401.52 505 402.039 505 402.559C505 403.416 504.55 403.866 503 403Z" fill="#1626E4"/>
<path d="M383 886C382.167 886.369 381.333 886.738 380.5 887.107C380.917 886.756 381.333 886.405 381.75 886.054C382.167 885.703 382.583 885.351 383 885C383 885.333 383 885.667 383 886Z" fill="#EEF2F3"/>
<path d="M573.123 387.209C573.879 387.461 574.386 387.967 574.248 388.334C573.78 389.581 573.105 389.504 572.426 388.126C571.984 387.229 572.226 386.91 573.123 387.209Z" fill="#1B27D8"/>
<path d="M561.5 333C561.775 333 562 333.225 562 333.5C562 333.775 561.775 334 561.5 334C561.225 334 561 333.775 561 333.5C561 333.225 561.225 333 561.5 333Z" fill="#1B27D8"/>
<path d="M528.5 360C528.775 360 529 360.225 529 360.5C529 360.775 528.775 361 528.5 361C528.225 361 528 360.775 528 360.5C528 360.225 528.225 360 528.5 360Z" fill="#1B27D8"/>
<path d="M505.5 404C505.775 404 506 404.225 506 404.5C506 404.775 505.775 405 505.5 405C505.225 405 505 404.775 505 404.5C505 404.225 505.225 404 505.5 404Z" fill="#1626E4"/>
<path d="M436 853C436.333 853 436.667 853 437 853C436.667 853.333 436.333 853.667 436 854C436 853.667 436 853.333 436 853Z" fill="#2D33D0"/>
<path d="M510.5 522.15C510.775 522.232 510.55 522.3 510 522.3C509.45 522.3 509.225 522.232 509.5 522.15C509.667 522.1 509.833 522.05 510 522C510.167 522.05 510.333 522.1 510.5 522.15Z" fill="#FBF8EE"/>
<path d="M461.816 477.184C463.373 477.376 464.525 477.877 465.272 478.688C466.04 479.477 466.424 480.459 466.424 481.632C466.424 482.805 465.987 483.915 465.112 484.96C464.259 486.005 463.16 486.816 461.816 487.392C461.219 487.627 460.429 487.797 459.448 487.904C458.488 488.011 457.496 488.064 456.472 488.064C454.765 488.064 453.016 487.904 451.224 487.584C450.904 487.52 450.563 487.36 450.2 487.104C449.859 486.848 449.688 486.475 449.688 485.984C449.667 484.021 449.592 481.291 449.464 477.792L449.432 476.032C449.347 473.301 449.304 471.157 449.304 469.6C449.304 469.323 449.464 469.003 449.784 468.64C450.125 468.256 450.531 468.043 451 468C451.277 468 451.544 467.989 451.8 467.968C454.211 467.733 455.821 467.616 456.632 467.616C458.232 467.616 459.64 467.776 460.856 468.096C462.093 468.395 463.117 468.949 463.928 469.76C464.227 470.101 464.472 470.539 464.664 471.072C464.856 471.584 464.952 472.085 464.952 472.576C464.973 473.621 464.696 474.581 464.12 475.456C463.565 476.331 462.797 476.907 461.816 477.184ZM456.824 470.336C456.099 470.336 455.341 470.379 454.552 470.464C453.784 470.549 453.133 470.656 452.6 470.784L452.792 476.832L453.944 476.8C455.8 476.608 457.165 476.448 458.04 476.32C458.595 476.192 459.139 475.947 459.672 475.584C460.205 475.2 460.643 474.805 460.984 474.4C461.347 473.973 461.528 473.653 461.528 473.44C461.528 473.12 461.464 472.8 461.336 472.48C461.208 472.139 461.069 471.893 460.92 471.744C460.344 471.189 459.757 470.816 459.16 470.624C458.563 470.432 457.784 470.336 456.824 470.336ZM452.888 485.248C453.976 485.397 455.011 485.472 455.992 485.472C458.147 485.472 459.843 485.195 461.08 484.64C462.339 484.064 462.968 482.976 462.968 481.376C462.968 480.736 462.488 480.203 461.528 479.776C460.568 479.349 459.533 479.136 458.424 479.136C457.677 479.136 456.728 479.221 455.576 479.392C454.659 479.52 453.763 479.605 452.888 479.648C452.931 480.928 452.952 481.739 452.952 482.08C452.952 482.741 452.941 483.243 452.92 483.584L452.888 485.248ZM472.968 483.04C472.968 483.851 473.085 484.48 473.32 484.928C473.576 485.355 473.896 485.568 474.28 485.568C474.493 485.568 474.696 485.557 474.888 485.536C475.08 485.493 475.272 485.472 475.464 485.472C475.677 485.472 475.858 485.579 476.008 485.792C476.178 486.005 476.264 486.24 476.264 486.496C476.264 487.008 476.018 487.413 475.528 487.712C475.058 487.989 474.418 488.128 473.608 488.128C473.032 488.128 472.445 487.957 471.848 487.616C471.272 487.253 470.792 486.699 470.408 485.952C470.024 485.184 469.832 484.235 469.832 483.104C469.832 480.672 469.874 478.613 469.96 476.928C470.066 474.923 470.12 472.395 470.12 469.344C470.12 468.384 470.173 467.712 470.28 467.328C470.408 467.029 470.61 466.805 470.888 466.656C471.186 466.485 471.496 466.4 471.816 466.4C472.136 466.4 472.413 466.453 472.648 466.56C472.904 466.667 473.074 466.837 473.16 467.072C473.245 467.328 473.298 467.584 473.32 467.84C473.362 468.075 473.384 468.416 473.384 468.864C473.384 469.739 473.352 470.581 473.288 471.392C473.245 472.373 473.224 473.088 473.224 473.536C473.053 477.291 472.968 480.459 472.968 483.04ZM477.838 477.216C477.667 477.216 477.507 477.152 477.358 477.024C477.23 476.875 477.166 476.704 477.166 476.512C477.166 476.021 477.379 475.563 477.806 475.136C477.934 475.072 478.19 474.965 478.574 474.816C478.958 474.667 479.299 474.592 479.598 474.592C480.409 474.592 481.07 474.816 481.582 475.264C482.094 475.691 482.35 476.309 482.35 477.12C482.35 477.355 482.307 477.856 482.222 478.624C482.137 479.52 482.094 480.213 482.094 480.704C482.094 482.197 482.297 483.403 482.702 484.32C482.851 484.619 483.086 484.853 483.406 485.024C483.726 485.195 484.014 485.28 484.27 485.28C484.889 485.28 485.39 485.173 485.774 484.96C486.158 484.747 486.574 484.405 487.022 483.936C487.47 483.467 487.758 482.933 487.886 482.336C488.035 481.739 488.142 480.917 488.206 479.872C488.249 479.189 488.291 478.688 488.334 478.368C488.441 477.344 488.494 476.469 488.494 475.744C488.494 475.275 488.622 474.891 488.878 474.592C489.134 474.272 489.486 474.112 489.934 474.112C490.19 474.112 490.478 474.197 490.798 474.368C491.139 474.517 491.363 474.699 491.47 474.912C491.598 475.125 491.662 475.477 491.662 475.968C491.662 476.224 491.63 476.469 491.566 476.704C491.417 477.237 491.342 477.877 491.342 478.624L491.374 480.288C491.374 481.803 491.481 482.923 491.694 483.648C491.801 483.989 491.95 484.341 492.142 484.704C492.334 485.045 492.515 485.333 492.686 485.568C493.113 486.037 493.39 486.368 493.518 486.56C493.646 486.731 493.71 486.901 493.71 487.072C493.71 487.328 493.582 487.573 493.326 487.808C493.091 488.021 492.835 488.128 492.558 488.128C491.769 488.128 491.086 487.861 490.51 487.328C489.934 486.795 489.507 486.101 489.23 485.248C488.505 486.08 487.833 486.752 487.214 487.264C486.787 487.563 486.265 487.787 485.646 487.936C485.027 488.064 484.409 488.128 483.79 488.128C482.958 488.128 482.115 487.787 481.262 487.104C480.409 486.421 479.833 485.632 479.534 484.736C479.513 484.693 479.449 484.523 479.342 484.224C479.257 483.925 479.214 483.477 479.214 482.88C479.214 482.091 479.257 481.099 479.342 479.904C479.406 479.136 479.438 478.432 479.438 477.792C479.438 477.6 479.363 477.44 479.214 477.312C479.086 477.184 478.937 477.12 478.766 477.12C478.638 477.12 478.489 477.141 478.318 477.184C478.169 477.205 478.009 477.216 477.838 477.216ZM495.814 480.672C495.814 479.371 496.102 478.293 496.678 477.44C497.254 476.565 498.054 475.744 499.078 474.976C499.376 474.763 499.878 474.581 500.582 474.432C501.286 474.261 501.904 474.176 502.438 474.176C503.078 474.176 503.75 474.315 504.454 474.592C505.179 474.848 505.766 475.147 506.214 475.488C507.003 476.064 507.547 476.736 507.846 477.504C508.144 478.251 508.294 479.147 508.294 480.192C508.294 480.64 508.038 481.077 507.526 481.504C507.035 481.909 506.502 482.112 505.926 482.112L504.71 482.08C504.091 482.08 503.206 482.101 502.054 482.144L501.382 482.176C500.912 482.219 500.56 482.24 500.326 482.24C499.984 482.24 499.515 482.197 498.918 482.112C499.003 483.115 499.376 483.904 500.038 484.48C500.699 485.035 501.414 485.312 502.182 485.312C503.526 485.312 504.464 485.045 504.998 484.512C505.446 484.192 505.744 483.989 505.894 483.904C506.043 483.819 506.278 483.776 506.598 483.776C506.939 483.776 507.238 483.936 507.494 484.256C507.75 484.576 507.878 484.896 507.878 485.216C507.878 485.579 507.654 485.952 507.206 486.336C506.779 486.699 506.192 487.083 505.446 487.488C505.04 487.659 504.486 487.808 503.782 487.936C503.078 488.064 502.491 488.128 502.022 488.128C501.275 488.128 500.443 487.915 499.526 487.488C498.608 487.04 497.926 486.549 497.478 486.016C497.03 485.483 496.635 484.725 496.294 483.744C495.974 482.763 495.814 481.739 495.814 480.672ZM502.182 479.808C503.696 479.808 504.806 479.755 505.51 479.648C505.467 479.029 505.275 478.528 504.934 478.144C504.592 477.739 504.123 477.397 503.526 477.12C503.334 477.035 503.163 476.971 503.014 476.928C502.864 476.885 502.694 476.864 502.502 476.864C501.52 476.864 500.688 477.131 500.006 477.664C499.344 478.197 498.95 478.88 498.822 479.712C499.888 479.776 501.008 479.808 502.182 479.808ZM512.089 482.24C512.089 481.045 512.1 480.139 512.121 479.52L512.153 476.48C512.153 475.243 512.121 473.888 512.057 472.416C512.036 471.968 511.961 471.349 511.833 470.56C511.662 469.365 511.577 468.469 511.577 467.872C511.577 466.891 512.068 466.4 513.049 466.4C513.668 466.4 514.105 466.571 514.361 466.912C514.638 467.232 514.83 467.744 514.937 468.448C515.15 469.92 515.257 471.648 515.257 473.632C515.257 474.229 515.236 475.125 515.193 476.32C515.598 475.68 516.121 475.179 516.761 474.816C517.422 474.453 518.073 474.272 518.713 474.272C520.569 474.272 522.169 475.04 523.513 476.576C523.876 477.109 524.196 477.749 524.473 478.496C524.772 479.221 524.921 479.851 524.921 480.384C524.921 481.323 524.814 482.187 524.601 482.976C524.409 483.765 524.057 484.533 523.545 485.28C523.033 486.027 522.382 486.635 521.593 487.104C520.825 487.573 519.929 487.808 518.905 487.808C518.009 487.808 517.198 487.627 516.473 487.264C515.769 486.901 515.204 486.421 514.777 485.824C514.67 486.357 514.436 486.891 514.073 487.424C513.71 487.936 513.294 488.192 512.825 488.192C512.441 488.192 512.121 488.096 511.865 487.904C511.609 487.691 511.481 487.381 511.481 486.976C511.481 486.677 511.545 486.304 511.673 485.856C511.801 485.237 511.897 484.672 511.961 484.16C512.046 483.627 512.089 482.987 512.089 482.24ZM518.105 485.152C519.15 485.152 520.025 484.789 520.729 484.064C521.433 483.317 521.785 482.315 521.785 481.056C521.785 479.904 521.476 478.912 520.857 478.08C520.644 477.803 520.334 477.579 519.929 477.408C519.545 477.237 519.161 477.152 518.777 477.152C517.881 477.152 517.124 477.419 516.505 477.952C515.886 478.464 515.534 479.179 515.449 480.096C515.364 481.333 515.321 482.4 515.321 483.296C515.577 483.787 515.961 484.224 516.473 484.608C517.006 484.971 517.55 485.152 518.105 485.152ZM527.69 480.768C527.69 480 527.829 479.285 528.106 478.624C528.383 477.941 528.789 477.237 529.322 476.512C529.855 475.787 530.591 475.221 531.53 474.816C532.469 474.389 533.493 474.176 534.602 474.176C535.455 474.176 536.277 474.357 537.066 474.72C537.877 475.061 538.602 475.488 539.242 476C539.327 476.149 539.477 476.427 539.69 476.832C539.903 477.216 540.053 477.568 540.138 477.888C540.245 478.208 540.298 478.539 540.298 478.88C540.298 480.309 539.775 481.269 538.73 481.76C537.685 482.229 536.362 482.464 534.762 482.464C533.162 482.464 531.861 482.357 530.858 482.144C530.901 482.549 531.007 482.955 531.178 483.36C531.349 483.765 531.551 484.075 531.786 484.288C532.213 484.693 532.629 484.96 533.034 485.088C533.461 485.195 534.026 485.248 534.73 485.248C535.797 485.248 536.629 485.045 537.226 484.64C537.781 484.277 538.207 484.096 538.506 484.096C538.911 484.096 539.221 484.224 539.434 484.48C539.647 484.715 539.754 485.024 539.754 485.408C539.754 486.219 539.231 486.88 538.186 487.392C537.162 487.904 535.999 488.16 534.698 488.16C533.674 488.16 532.661 487.979 531.658 487.616C530.655 487.253 529.855 486.741 529.258 486.08C528.853 485.397 528.49 484.565 528.17 483.584C527.85 482.603 527.69 481.664 527.69 480.768ZM534.73 476.8C534.261 476.8 533.77 476.885 533.258 477.056C532.767 477.205 532.383 477.44 532.106 477.76C531.765 478.123 531.509 478.453 531.338 478.752C531.189 479.051 531.093 479.424 531.05 479.872C531.285 479.872 531.509 479.883 531.722 479.904C531.935 479.925 532.138 479.947 532.33 479.968C533.269 480.053 533.973 480.096 534.442 480.096C535.381 480.096 536.095 479.957 536.586 479.68C537.098 479.403 537.354 479.029 537.354 478.56C537.354 478.112 537.066 477.707 536.49 477.344C535.935 476.981 535.349 476.8 534.73 476.8ZM547.832 486.72C547.789 487.083 547.64 487.403 547.384 487.68C547.128 487.957 546.797 488.096 546.391 488.096C545.752 488.096 545.282 487.979 544.984 487.744C544.685 487.488 544.536 487.029 544.536 486.368C544.536 485.472 544.589 484.491 544.696 483.424C544.781 482.187 544.824 481.237 544.824 480.576C544.824 480.235 544.802 479.808 544.76 479.296C544.717 478.827 544.696 478.475 544.696 478.24C544.632 477.877 544.482 477.589 544.248 477.376C544.034 477.163 543.693 476.981 543.224 476.832C543.032 476.747 542.872 476.608 542.743 476.416C542.616 476.203 542.552 476.011 542.552 475.84C542.552 475.349 542.744 474.976 543.128 474.72C543.512 474.464 543.981 474.336 544.536 474.336C545.154 474.336 545.688 474.549 546.136 474.976C546.584 475.403 546.925 475.936 547.16 476.576C547.65 475.872 548.248 475.307 548.952 474.88C549.677 474.453 550.381 474.24 551.064 474.24C551.938 474.24 552.674 474.389 553.272 474.688C553.89 474.965 554.2 475.456 554.2 476.16C554.2 476.565 554.018 476.992 553.656 477.44C553.314 477.867 552.962 478.08 552.6 478.08C552.322 478.08 551.992 477.952 551.608 477.696C551.458 477.589 551.288 477.504 551.095 477.44C550.925 477.355 550.744 477.312 550.552 477.312C550.21 477.312 549.89 477.365 549.592 477.472C549.293 477.579 549.09 477.707 548.984 477.856C548.642 478.389 548.386 478.869 548.216 479.296C548.066 479.723 547.992 480.181 547.992 480.672C547.992 481.035 547.981 481.323 547.96 481.536L547.928 483.36L547.96 484.576C547.96 485.472 547.917 486.187 547.832 486.72ZM560.838 486.72C560.838 487.083 560.7 487.403 560.422 487.68C560.145 487.957 559.804 488.096 559.398 488.096C558.758 488.096 558.289 487.979 557.99 487.744C557.692 487.488 557.542 487.029 557.542 486.368C557.542 485.579 557.521 484.544 557.478 483.264C557.436 482.197 557.414 481.301 557.414 480.576C557.414 480.235 557.436 479.787 557.478 479.232C557.521 478.72 557.542 478.336 557.542 478.08C557.478 477.675 557.318 477.344 557.062 477.088C556.806 476.811 556.476 476.672 556.07 476.672C555.878 476.672 555.718 476.587 555.59 476.416C555.462 476.224 555.398 476.032 555.398 475.84C555.398 475.349 555.59 474.976 555.974 474.72C556.38 474.464 556.86 474.336 557.414 474.336C558.566 474.336 559.366 475.019 559.814 476.384C560.369 475.744 560.998 475.232 561.702 474.848C562.428 474.443 563.121 474.24 563.782 474.24C564.572 474.24 565.286 474.453 565.926 474.88C566.588 475.307 566.918 475.883 566.918 476.608C566.918 477.013 566.737 477.429 566.374 477.856C566.033 478.283 565.681 478.496 565.318 478.496C565.126 478.496 564.956 478.453 564.806 478.368C564.678 478.261 564.518 478.112 564.326 477.92C564.113 477.707 563.932 477.557 563.782 477.472C563.633 477.365 563.462 477.312 563.27 477.312C562.929 477.312 562.609 477.365 562.31 477.472C562.012 477.579 561.809 477.707 561.702 477.856C561.361 478.389 561.105 478.869 560.934 479.296C560.785 479.723 560.71 480.181 560.71 480.672C560.71 481.035 560.7 481.323 560.678 481.536L560.646 483.36C560.646 483.637 560.657 483.947 560.678 484.288C560.7 484.629 560.721 484.885 560.742 485.056C560.806 485.632 560.838 486.187 560.838 486.72ZM572.309 494.528C571.136 494.528 570.282 494.315 569.749 493.888C569.237 493.483 568.981 493.035 568.981 492.544C568.981 491.797 569.333 491.424 570.037 491.424C570.25 491.424 570.528 491.488 570.869 491.616C571.21 491.765 571.53 491.84 571.829 491.84C572.298 491.84 572.682 491.531 572.981 490.912C573.28 490.293 573.578 489.291 573.877 487.904C573.216 487.136 572.405 485.92 571.445 484.256C570.506 482.592 569.696 480.96 569.013 479.36C568.33 477.739 567.989 476.587 567.989 475.904C567.989 475.371 568.17 474.976 568.533 474.72C568.917 474.464 569.354 474.336 569.845 474.336C570.229 474.336 570.528 474.411 570.741 474.56C570.954 474.688 571.104 474.933 571.189 475.296C571.701 477.109 572.245 478.699 572.821 480.064C573.418 481.429 574.176 482.912 575.093 484.512C575.456 483.68 575.936 482.261 576.533 480.256C577.194 478.016 577.749 476.427 578.197 475.488C578.389 475.104 578.624 474.795 578.901 474.56C579.2 474.325 579.53 474.208 579.893 474.208C580.256 474.208 580.64 474.347 581.045 474.624C581.472 474.88 581.685 475.189 581.685 475.552C581.685 475.765 581.61 476.021 581.461 476.32C580.629 478.24 579.893 480.053 579.253 481.76C578.634 483.445 578.037 485.301 577.461 487.328C577.12 488.459 576.757 489.536 576.373 490.56C576.01 491.584 575.754 492.213 575.605 492.448C575.178 493.045 574.698 493.536 574.165 493.92C573.632 494.325 573.013 494.528 572.309 494.528ZM450.936 489.68C451.341 489.68 451.704 489.787 452.024 490C452.365 490.213 452.568 490.587 452.632 491.12C452.888 492.805 453.048 494.491 453.112 496.176C453.197 497.84 453.24 499.728 453.24 501.84C453.24 502.736 453.165 504.368 453.016 506.736C453.955 506.821 454.68 506.864 455.192 506.864C455.555 506.864 456.376 506.811 457.656 506.704C458.403 506.597 459.053 506.544 459.608 506.544C460.12 506.544 460.589 506.597 461.016 506.704C461.443 506.789 461.88 506.939 462.328 507.152C462.776 507.408 463 507.803 463 508.336C463 508.763 462.861 509.147 462.584 509.488C462.328 509.829 462.019 510 461.656 510C461.4 510 460.995 509.957 460.44 509.872C459.437 509.723 458.477 509.648 457.56 509.648C457.261 509.648 456.92 509.669 456.536 509.712C456.173 509.733 455.907 509.744 455.736 509.744C455.224 509.808 454.712 509.84 454.2 509.84C453.155 509.84 452.216 509.787 451.384 509.68C450.957 509.637 450.531 509.477 450.104 509.2C449.677 508.901 449.464 508.475 449.464 507.92C449.464 507.6 449.507 506.779 449.592 505.456C449.741 503.259 449.816 501.584 449.816 500.432C449.816 499.536 449.773 498.597 449.688 497.616C449.603 496.635 449.549 496.016 449.528 495.76C449.336 493.947 449.24 492.453 449.24 491.28C449.24 490.725 449.368 490.32 449.624 490.064C449.901 489.808 450.339 489.68 450.936 489.68ZM464.596 503.216C464.596 502.405 464.746 501.595 465.044 500.784C465.343 499.952 465.738 499.195 466.228 498.512C466.719 497.829 467.498 497.275 468.564 496.848C469.631 496.4 470.58 496.176 471.412 496.176C472.266 496.176 473.13 496.293 474.004 496.528C474.9 496.763 475.519 497.125 475.86 497.616C476.65 498.725 477.044 499.813 477.044 500.88C477.044 501.456 476.916 501.947 476.66 502.352C476.426 502.757 476.084 503.195 475.636 503.664C475.274 504.048 474.698 504.304 473.908 504.432C473.14 504.56 472.372 504.624 471.604 504.624C471.114 504.624 470.516 504.581 469.812 504.496C469.108 504.389 468.426 504.261 467.764 504.112C467.807 504.539 467.914 504.955 468.084 505.36C468.255 505.765 468.458 506.075 468.692 506.288C469.119 506.693 469.556 506.949 470.004 507.056C470.474 507.163 471.071 507.216 471.796 507.216C472.564 507.216 473.279 507.088 473.94 506.832C474.474 506.64 474.911 506.544 475.252 506.544C475.658 506.544 475.967 506.672 476.18 506.928C476.394 507.163 476.5 507.472 476.5 507.856C476.5 508.389 476.191 508.827 475.572 509.168C474.954 509.509 474.239 509.765 473.428 509.936C472.639 510.085 471.999 510.16 471.508 510.16C470.506 510.16 469.535 509.979 468.596 509.616C467.658 509.253 466.879 508.741 466.26 508.08C465.748 507.483 465.343 506.768 465.044 505.936C464.746 505.083 464.596 504.176 464.596 503.216ZM471.572 498.896C471.103 498.896 470.634 498.992 470.164 499.184C469.695 499.355 469.311 499.6 469.012 499.92C468.628 500.325 468.362 500.656 468.212 500.912C468.084 501.147 467.999 501.477 467.956 501.904C468.49 502.075 469.599 502.16 471.284 502.16C472.202 502.16 472.906 502.021 473.396 501.744C473.908 501.467 474.164 501.104 474.164 500.656C474.164 500.208 473.887 499.803 473.332 499.44C472.778 499.077 472.191 498.896 471.572 498.896ZM500.294 508.88C499.974 508.283 499.772 507.621 499.686 506.896C499.601 506.149 499.558 505.125 499.558 503.824C499.558 502.587 499.388 501.509 499.046 500.592C498.705 499.675 498.001 499.216 496.934 499.216C496.529 499.216 496.124 499.344 495.718 499.6C495.334 499.835 495.046 500.133 494.854 500.496C494.556 501.072 494.353 501.701 494.246 502.384C494.14 503.045 494.086 503.813 494.086 504.688C494.086 505.243 494.118 505.808 494.182 506.384C494.182 506.555 494.193 506.832 494.214 507.216C494.257 507.579 494.278 507.909 494.278 508.208C494.278 509.488 493.83 510.128 492.934 510.128C491.761 510.128 491.142 509.509 491.078 508.272C491.078 507.397 491.089 506.928 491.11 506.864V505.488C491.11 504.72 491.078 503.973 491.014 503.248C490.95 502.523 490.876 501.979 490.79 501.616C490.598 500.912 490.342 500.368 490.022 499.984C489.724 499.6 489.244 499.408 488.582 499.408C487.644 499.408 486.886 499.813 486.31 500.624C485.905 501.264 485.638 502.043 485.51 502.96C485.382 504.133 485.286 505.061 485.222 505.744C485.18 506.405 485.158 507.173 485.158 508.048C485.158 508.667 485.052 509.168 484.838 509.552C484.646 509.936 484.273 510.128 483.718 510.128C483.313 510.128 482.886 510.021 482.438 509.808C482.012 509.573 481.798 509.264 481.798 508.88C481.798 508.475 481.841 508.069 481.926 507.664C482.118 506.448 482.214 504.272 482.214 501.136C482.214 500.624 482.086 500.133 481.83 499.664C481.596 499.173 481.308 498.928 480.966 498.928C480.881 498.928 480.721 498.971 480.486 499.056C480.273 499.141 480.113 499.184 480.006 499.184C479.729 499.184 479.473 499.056 479.238 498.8C479.025 498.544 478.918 498.331 478.918 498.16C478.918 497.627 479.174 497.179 479.686 496.816C480.22 496.432 480.774 496.24 481.35 496.24C482.14 496.24 482.812 496.485 483.366 496.976C483.921 497.467 484.348 498.149 484.646 499.024C485.137 498.171 485.798 497.488 486.63 496.976C487.462 496.443 488.39 496.176 489.414 496.176C490.054 496.176 490.566 496.261 490.95 496.432C491.356 496.581 491.686 496.805 491.942 497.104C492.198 497.381 492.529 497.808 492.934 498.384C493.468 497.701 494.15 497.168 494.982 496.784C495.836 496.4 496.71 496.208 497.606 496.208C498.673 496.208 499.633 496.645 500.486 497.52C501.34 498.373 501.916 499.365 502.214 500.496C502.364 501.072 502.438 502.181 502.438 503.824L502.566 505.68C502.673 506.789 503.036 507.461 503.654 507.696C504.38 507.909 504.742 508.133 504.742 508.368C504.742 508.88 504.614 509.253 504.358 509.488C504.166 509.616 503.9 509.755 503.558 509.904C503.217 510.053 502.95 510.128 502.758 510.128C501.606 510.128 500.785 509.712 500.294 508.88ZM519.617 499.728C519.787 500.027 519.926 500.464 520.033 501.04C520.139 501.595 520.193 502.096 520.193 502.544C520.193 503.12 520.129 503.76 520.001 504.464C519.873 505.168 519.755 505.712 519.649 506.096C518.177 508.784 516.001 510.128 513.121 510.128C512.054 510.128 510.966 509.776 509.857 509.072C508.747 508.368 507.979 507.557 507.553 506.64C506.977 504.827 506.689 503.664 506.689 503.152C506.689 502.299 506.87 501.392 507.233 500.432C507.617 499.472 508.097 498.64 508.673 497.936C509.057 497.445 509.718 497.029 510.657 496.688C511.595 496.325 512.449 496.144 513.217 496.144C514.71 496.144 515.969 496.432 516.993 497.008C518.038 497.563 518.913 498.469 519.617 499.728ZM516.833 504.88C516.939 504.667 516.993 503.952 516.993 502.736C516.993 502.117 516.875 501.509 516.641 500.912C516.427 500.315 516.107 499.803 515.681 499.376C515.638 499.333 515.521 499.269 515.329 499.184C515.137 499.077 514.87 498.981 514.529 498.896C514.209 498.789 513.835 498.736 513.409 498.736C512.214 498.736 511.339 499.216 510.785 500.176C510.23 501.136 509.953 502.224 509.953 503.44C509.953 503.632 510.017 504.027 510.145 504.624C510.273 505.221 510.369 505.605 510.433 505.776C510.603 506.075 510.945 506.427 511.457 506.832C511.99 507.216 512.566 507.408 513.185 507.408C514.145 507.408 514.902 507.184 515.457 506.736C516.033 506.267 516.491 505.648 516.833 504.88ZM523.003 498.736C522.832 498.608 522.693 498.48 522.587 498.352C522.48 498.203 522.427 497.947 522.427 497.584C522.427 497.179 522.565 496.869 522.843 496.656C523.141 496.421 523.483 496.304 523.867 496.304C524.613 496.304 525.253 496.496 525.786 496.88C526.341 497.264 526.747 497.797 527.003 498.48C527.472 497.605 528.069 497.008 528.795 496.688C529.52 496.347 530.523 496.176 531.803 496.176C532.315 496.176 532.837 496.336 533.371 496.656C533.925 496.955 534.427 497.328 534.875 497.776C535.237 498.245 535.547 498.832 535.803 499.536C536.059 500.219 536.187 500.837 536.187 501.392C536.187 501.712 536.165 502.235 536.123 502.96C536.08 503.728 536.059 504.336 536.059 504.784C536.059 506.277 536.347 507.195 536.923 507.536C537.008 507.579 537.168 507.632 537.403 507.696C537.637 507.76 537.808 507.824 537.915 507.888C538.043 507.952 538.107 508.048 538.107 508.176C538.128 508.688 537.936 509.115 537.531 509.456C537.147 509.776 536.677 509.936 536.123 509.936C535.291 509.936 534.64 509.712 534.171 509.264C533.701 508.816 533.371 508.133 533.179 507.216C533.072 506.875 533.019 506.373 533.019 505.712C533.019 505.349 533.04 504.763 533.083 503.952C533.147 503.312 533.179 502.629 533.179 501.904C533.179 501.157 532.965 500.507 532.539 499.952C532.112 499.376 531.525 499.088 530.779 499.088C530.331 499.088 529.861 499.227 529.371 499.504C528.88 499.76 528.539 500.08 528.347 500.464C528.027 501.125 527.813 501.797 527.707 502.48C527.451 503.803 527.323 505.072 527.323 506.288C527.323 506.587 527.344 507.163 527.387 508.016C527.387 508.08 527.387 508.24 527.387 508.496C527.387 508.731 527.355 508.955 527.291 509.168C527.248 509.381 527.163 509.573 527.035 509.744C526.949 509.829 526.789 509.915 526.555 510C526.32 510.085 526.117 510.128 525.947 510.128C525.648 510.128 525.275 510 524.827 509.744C524.379 509.488 524.112 509.2 524.027 508.88L523.995 508.432C523.995 508.261 524.016 508.005 524.059 507.664C524.315 506.171 524.443 504.869 524.443 503.76C524.443 503.269 524.432 502.896 524.411 502.64L524.379 501.168C524.379 500.72 524.251 500.293 523.995 499.888C523.739 499.461 523.408 499.077 523.003 498.736ZM554.849 508.464C554.849 508.933 554.593 509.328 554.081 509.648C553.569 509.968 553.1 510.128 552.673 510.128C551.884 510.128 551.244 510.032 550.753 509.84C550.284 509.627 549.836 509.243 549.409 508.688C548.876 509.179 548.129 509.552 547.169 509.808C546.209 510.043 545.324 510.16 544.513 510.16C543.19 510.16 542.092 509.808 541.217 509.104C540.364 508.379 539.937 507.323 539.937 505.936C539.937 505.339 540.118 504.741 540.481 504.144C540.844 503.525 541.292 503.035 541.825 502.672C542.401 502.288 543.052 502.032 543.777 501.904C544.502 501.755 545.345 501.68 546.305 501.68C546.753 501.68 547.286 501.765 547.905 501.936C548.524 502.107 549.014 502.288 549.377 502.48V501.968C549.377 500.816 549.089 500.027 548.513 499.6C547.958 499.152 547.062 498.928 545.825 498.928C545.441 498.928 545.089 498.992 544.769 499.12C544.47 499.227 544.118 499.387 543.713 499.6C543.329 499.813 542.966 499.92 542.625 499.92C542.326 499.92 542.038 499.803 541.761 499.568C541.484 499.312 541.345 499.045 541.345 498.768C541.345 497.872 541.9 497.221 543.009 496.816C544.14 496.389 545.292 496.176 546.465 496.176C547.062 496.176 547.745 496.304 548.513 496.56C549.281 496.795 549.932 497.125 550.465 497.552C551.105 498.085 551.596 498.725 551.937 499.472C552.3 500.219 552.481 501.029 552.481 501.904C552.481 502.181 552.46 502.597 552.417 503.152C552.374 503.749 552.353 504.261 552.353 504.688L552.321 505.552C552.278 506.021 552.257 506.395 552.257 506.672C552.257 506.928 552.342 507.152 552.513 507.344C552.705 507.515 552.929 507.6 553.185 507.6L554.081 507.568C554.316 507.568 554.497 507.664 554.625 507.856C554.774 508.027 554.849 508.229 554.849 508.464ZM544.513 507.632C545.43 507.632 546.198 507.536 546.817 507.344C547.436 507.152 548.182 506.8 549.057 506.288C549.142 505.925 549.196 505.445 549.217 504.848C548.044 504.293 547.073 504.016 546.305 504.016C545.58 504.016 544.993 504.048 544.545 504.112C544.097 504.155 543.692 504.336 543.329 504.656C542.966 504.976 542.785 505.488 542.785 506.192C542.785 506.597 542.977 506.939 543.361 507.216C543.766 507.493 544.15 507.632 544.513 507.632ZM569.683 489.968C569.683 490.181 569.651 490.448 569.587 490.768C569.565 490.896 569.544 491.035 569.523 491.184C569.501 491.333 569.48 491.515 569.459 491.728C569.267 493.648 569.171 496.027 569.171 498.864C569.171 501.552 569.288 503.547 569.523 504.848C569.757 506.149 570.12 506.928 570.611 507.184L571.219 507.44C571.539 507.547 571.773 507.664 571.923 507.792C572.093 507.92 572.179 508.133 572.179 508.432C572.179 508.859 571.955 509.232 571.507 509.552C571.059 509.851 570.568 510 570.035 510C569.48 510 568.936 509.776 568.403 509.328C567.869 508.859 567.432 508.272 567.091 507.568C566.728 508.336 566.088 508.955 565.171 509.424C564.253 509.872 563.379 510.096 562.547 510.096C561.8 510.096 561.149 510 560.595 509.808C560.04 509.595 559.464 509.275 558.867 508.848C558.141 508.336 557.587 507.685 557.203 506.896C556.84 506.107 556.659 505.243 556.659 504.304C556.659 503.365 556.84 502.373 557.203 501.328C557.565 500.261 557.981 499.387 558.451 498.704C559.005 497.915 559.741 497.328 560.659 496.944C561.576 496.539 562.525 496.336 563.507 496.336C564.061 496.336 564.541 496.443 564.947 496.656C565.352 496.848 565.768 497.125 566.195 497.488C566.195 496.421 566.173 495.525 566.131 494.8C566.109 494.608 566.099 494.384 566.099 494.128C566.099 492.293 566.248 490.843 566.547 489.776C566.781 488.88 567.347 488.432 568.243 488.432C568.733 488.432 569.096 488.539 569.331 488.752C569.565 488.965 569.683 489.371 569.683 489.968ZM559.763 504.24C559.763 505.328 560.115 506.16 560.819 506.736C561.139 507.035 561.405 507.237 561.619 507.344C561.832 507.451 562.099 507.504 562.419 507.504C563.037 507.504 563.624 507.333 564.179 506.992C564.755 506.629 565.203 506.16 565.523 505.584C565.864 505.008 566.035 504.389 566.035 503.728L566.003 500.56C565.555 500.048 565.139 499.696 564.755 499.504C564.392 499.291 564.008 499.184 563.603 499.184C562.237 499.184 561.299 499.707 560.787 500.752C560.509 501.243 560.264 501.797 560.051 502.416C559.859 503.035 559.763 503.643 559.763 504.24ZM574.065 503.216C574.065 502.405 574.214 501.595 574.513 500.784C574.812 499.952 575.206 499.195 575.697 498.512C576.188 497.829 576.966 497.275 578.033 496.848C579.1 496.4 580.049 496.176 580.881 496.176C581.734 496.176 582.598 496.293 583.473 496.528C584.369 496.763 584.988 497.125 585.329 497.616C586.118 498.725 586.513 499.813 586.513 500.88C586.513 501.456 586.385 501.947 586.129 502.352C585.894 502.757 585.553 503.195 585.105 503.664C584.742 504.048 584.166 504.304 583.377 504.432C582.609 504.56 581.841 504.624 581.073 504.624C580.582 504.624 579.985 504.581 579.281 504.496C578.577 504.389 577.894 504.261 577.233 504.112C577.276 504.539 577.382 504.955 577.553 505.36C577.724 505.765 577.926 506.075 578.161 506.288C578.588 506.693 579.025 506.949 579.473 507.056C579.942 507.163 580.54 507.216 581.265 507.216C582.033 507.216 582.748 507.088 583.409 506.832C583.942 506.64 584.38 506.544 584.721 506.544C585.126 506.544 585.436 506.672 585.649 506.928C585.862 507.163 585.969 507.472 585.969 507.856C585.969 508.389 585.66 508.827 585.041 509.168C584.422 509.509 583.708 509.765 582.897 509.936C582.108 510.085 581.468 510.16 580.977 510.16C579.974 510.16 579.004 509.979 578.065 509.616C577.126 509.253 576.348 508.741 575.729 508.08C575.217 507.483 574.812 506.768 574.513 505.936C574.214 505.083 574.065 504.176 574.065 503.216ZM581.041 498.896C580.572 498.896 580.102 498.992 579.633 499.184C579.164 499.355 578.78 499.6 578.481 499.92C578.097 500.325 577.83 500.656 577.681 500.912C577.553 501.147 577.468 501.477 577.425 501.904C577.958 502.075 579.068 502.16 580.753 502.16C581.67 502.16 582.374 502.021 582.865 501.744C583.377 501.467 583.633 501.104 583.633 500.656C583.633 500.208 583.356 499.803 582.801 499.44C582.246 499.077 581.66 498.896 581.041 498.896Z" fill="#1B27D8"/>
</svg>
