<svg width="64" height="64" viewBox="0 0 64 64" fill="none" xmlns="http://www.w3.org/2000/svg">
<path d="M33.3799 0.0194719C34.4469 0.0156842 35.5139 0.0128372 36.5809 0.0110924C37.0764 0.0102605 37.5719 0.00912747 38.0674 0.00727113C38.4996 0.00565283 38.9317 0.00461423 39.3639 0.00425503C39.5925 0.00404525 39.821 0.00355655 40.0496 0.00237224C40.2653 0.00126371 40.481 0.000938003 40.6967 0.00117906C40.7753 0.00113504 40.8539 0.000819841 40.9326 0.000192862C41.4471 -0.00370539 41.9174 0.0513169 42.4163 0.181202C42.458 0.191859 42.4997 0.202517 42.5427 0.213497C42.6343 0.237671 42.7246 0.264133 42.8151 0.292391C42.8475 0.302486 42.88 0.312581 42.9134 0.322982C43.8985 0.640541 44.7453 1.17829 45.4885 1.90296C45.5276 1.94109 45.567 1.97901 45.6066 2.01671C46.4858 2.85584 47.026 3.9144 47.3828 5.07605C47.3919 5.10506 47.4011 5.13406 47.4105 5.16394C47.6137 5.86147 47.6251 6.56585 47.6217 7.28715C47.6217 7.38964 47.6217 7.49213 47.6218 7.59462C47.6218 7.81364 47.6215 8.03266 47.6208 8.25169C47.6198 8.56834 47.6195 8.885 47.6194 9.20166C47.6191 9.71564 47.6183 10.2296 47.6172 10.7436C47.6161 11.2423 47.6153 11.7411 47.6148 12.2398C47.6147 12.2707 47.6147 12.3015 47.6147 12.3333C47.6145 12.488 47.6144 12.6427 47.6142 12.7975C47.613 14.0774 47.6109 15.3573 47.6082 16.6372C47.6602 16.6371 47.7122 16.637 47.7658 16.6369C49.0031 16.6342 50.2404 16.6322 51.4777 16.631C51.6304 16.6309 51.783 16.6307 51.9356 16.6305C51.966 16.6305 51.9964 16.6305 52.0277 16.6304C52.5182 16.6299 53.0088 16.629 53.4993 16.6278C54.0035 16.6267 54.5076 16.626 55.0118 16.6258C55.3223 16.6256 55.6329 16.6251 55.9434 16.6241C56.1824 16.6234 56.4214 16.6233 56.6604 16.6235C56.7578 16.6235 56.8552 16.6232 56.9526 16.6227C57.646 16.6196 58.3091 16.6646 58.9805 16.8545C59.0118 16.8632 59.0431 16.8719 59.0753 16.8809C59.3321 16.9543 59.5735 17.0476 59.8153 17.1628C59.8751 17.1903 59.935 17.2177 59.9948 17.2451C60.367 17.4177 60.714 17.6014 61.0439 17.8502C61.0852 17.8809 61.1266 17.9116 61.1691 17.9432C62.7101 19.1074 63.6085 20.7786 63.8975 22.7021C63.9459 23.0927 63.9425 23.4836 63.9416 23.8765C63.9416 23.9495 63.9416 24.0225 63.9416 24.0954C63.9416 24.2923 63.9414 24.4892 63.9411 24.686C63.9409 24.8922 63.9409 25.0984 63.9408 25.3046C63.9407 25.6945 63.9404 26.0844 63.94 26.4743C63.9395 26.9184 63.9393 27.3626 63.9391 27.8067C63.9387 28.7198 63.938 29.6329 63.9371 30.546C61.6207 30.548 59.3044 30.55 56.988 30.5511C56.9365 30.5511 56.9365 30.5511 56.884 30.5512C56.1383 30.5515 55.3927 30.5519 54.647 30.5522C54.2813 30.5523 53.9156 30.5525 53.5498 30.5526C53.5135 30.5526 53.4771 30.5527 53.4396 30.5527C52.261 30.5532 51.0824 30.5541 49.9038 30.5552C48.6922 30.5564 47.4806 30.5571 46.269 30.5574C46.0977 30.5574 45.9264 30.5574 45.755 30.5575C45.7213 30.5575 45.6876 30.5575 45.6529 30.5575C45.1112 30.5576 44.5694 30.5582 44.0277 30.5589C43.4825 30.5596 42.9373 30.5599 42.3921 30.5597C42.0685 30.5596 41.745 30.5599 41.4215 30.5606C41.1792 30.5611 40.937 30.561 40.6948 30.5606C40.5972 30.5606 40.4997 30.5607 40.4022 30.5611C39.5877 30.5641 38.8302 30.4908 38.0566 30.2225C38.0301 30.2134 38.0035 30.2043 37.9762 30.1949C36.3428 29.6248 34.9186 28.401 34.1307 26.8245C33.5619 25.6205 33.3734 24.4273 33.3751 23.1051C33.3751 23.0055 33.3751 22.9058 33.375 22.8062C33.375 22.5899 33.375 22.3737 33.3752 22.1575C33.3754 21.836 33.3754 21.5145 33.3754 21.1929C33.3753 20.652 33.3755 20.1111 33.3757 19.5702C33.3759 19.0348 33.3761 18.4993 33.3761 17.9639C33.3761 17.9306 33.3761 17.8973 33.3761 17.863C33.3762 17.6937 33.3762 17.5245 33.3762 17.3553C33.3763 16.1575 33.3765 14.9596 33.3769 13.7618C33.3773 12.5983 33.3776 11.4347 33.3777 10.2712C33.3777 10.2353 33.3777 10.1995 33.3777 10.1625C33.3778 9.80216 33.3778 9.44184 33.3779 9.08152C33.378 8.34754 33.3781 7.61356 33.3782 6.87958C33.3782 6.84583 33.3782 6.81208 33.3782 6.77732C33.3786 4.5247 33.3792 2.27209 33.3799 0.0194719Z" fill="#16A34A"/>
<path d="M0.0489384 33.4578C2.37063 33.4551 4.69232 33.4525 7.01402 33.451C7.04842 33.451 7.08282 33.4509 7.11826 33.4509C7.86593 33.4504 8.61361 33.45 9.36128 33.4496C9.72798 33.4494 10.0947 33.4492 10.4614 33.4489C10.5161 33.4489 10.5161 33.4489 10.5719 33.4489C11.7533 33.4482 12.9346 33.447 14.1159 33.4455C15.3305 33.444 16.5452 33.443 17.7598 33.4426C17.9316 33.4426 18.1034 33.4425 18.2752 33.4425C18.3091 33.4425 18.3429 33.4425 18.3777 33.4424C18.9206 33.4423 19.4634 33.4415 20.0063 33.4405C20.553 33.4396 21.0996 33.4392 21.6462 33.4395C21.9704 33.4396 22.2946 33.4393 22.6188 33.4383C22.8619 33.4376 23.1049 33.4378 23.3479 33.4383C23.4455 33.4383 23.5432 33.4381 23.6408 33.4376C24.5798 33.433 25.4474 33.5562 26.3258 33.9026C26.3548 33.914 26.3838 33.9254 26.4137 33.9372C27.993 34.5727 29.3415 35.9082 30.0179 37.4951C30.4902 38.645 30.6125 39.743 30.6109 40.9813C30.6109 41.0807 30.611 41.18 30.611 41.2794C30.6111 41.4948 30.611 41.7103 30.6109 41.9257C30.6106 42.2461 30.6106 42.5664 30.6107 42.8868C30.6107 43.4258 30.6106 43.9648 30.6103 44.5038C30.6101 45.0373 30.61 45.5707 30.6099 46.1042C30.6099 46.1374 30.6099 46.1706 30.6099 46.2048C30.6099 46.3734 30.6099 46.5421 30.6099 46.7107C30.6098 47.9043 30.6095 49.0978 30.6091 50.2914C30.6088 51.4507 30.6085 52.61 30.6083 53.7694C30.6083 53.823 30.6083 53.823 30.6083 53.8777C30.6083 54.2367 30.6082 54.5958 30.6082 54.9549C30.6081 55.6863 30.608 56.4177 30.6078 57.1491C30.6078 57.1827 30.6078 57.2163 30.6078 57.251C30.6075 59.4954 30.6068 61.7399 30.6062 63.9843C29.5812 63.9872 28.5562 63.9893 27.5312 63.9906C27.0552 63.9912 26.5792 63.9921 26.1032 63.9935C25.688 63.9947 25.2728 63.9955 24.8577 63.9957C24.6381 63.9959 24.4186 63.9963 24.199 63.9971C23.9917 63.998 23.7844 63.9982 23.5772 63.998C23.5017 63.9981 23.4262 63.9983 23.3508 63.9988C21.4869 64.0098 19.85 63.3208 18.4784 62.0436C18.4297 61.9983 18.4297 61.9983 18.3801 61.9521C17.8884 61.4718 17.4785 60.8744 17.168 60.2595C17.1474 60.2187 17.1268 60.178 17.1055 60.136C16.9426 59.8089 16.8011 59.483 16.6949 59.1324C16.6861 59.1035 16.6773 59.0746 16.6682 59.0448C16.414 58.1891 16.3601 57.3354 16.3643 56.4458C16.3644 56.3461 16.3643 56.2464 16.3643 56.1467C16.3643 55.934 16.3646 55.7213 16.3653 55.5087C16.3662 55.2012 16.3665 54.8937 16.3667 54.5863C16.3669 54.0872 16.3677 53.5881 16.3689 53.0889C16.37 52.6048 16.3708 52.1206 16.3713 51.6364C16.3713 51.6064 16.3714 51.5765 16.3714 51.5456C16.3715 51.3953 16.3717 51.2449 16.3718 51.0946C16.3731 49.8519 16.3752 48.6093 16.3778 47.3666C16.327 47.3667 16.2761 47.3668 16.2237 47.3669C15.0125 47.3696 13.8013 47.3716 12.5901 47.3728C12.4406 47.3729 12.2911 47.3731 12.1416 47.3732C12.097 47.3733 12.097 47.3733 12.0515 47.3733C11.5714 47.3739 11.0913 47.3748 10.6112 47.3759C10.1176 47.3771 9.62395 47.3778 9.13031 47.378C8.8264 47.3782 8.52249 47.3787 8.21858 47.3797C7.98443 47.3804 7.7503 47.3805 7.51615 47.3803C7.42091 47.3803 7.32566 47.3806 7.23042 47.381C5.19378 47.3906 3.41716 46.7177 1.94638 45.2717C1.7153 45.0298 1.51343 44.7674 1.3172 44.4959C1.30044 44.4729 1.28369 44.45 1.26642 44.4263C0.820391 43.807 0.49405 43.0905 0.286738 42.353C0.270031 42.2992 0.270031 42.2992 0.252988 42.2443C0.0696615 41.6247 0.0313607 40.9904 0.0354402 40.3476C0.0354739 40.2718 0.0354547 40.196 0.0353876 40.1202C0.0353539 39.9171 0.0360463 39.714 0.0368826 39.5108C0.0376327 39.2976 0.0376963 39.0843 0.0378369 38.8711C0.0382044 38.4684 0.0391775 38.0658 0.0403753 37.6632C0.0417105 37.2043 0.0423596 36.7454 0.0429549 36.2865C0.0441932 35.3436 0.0462807 34.4007 0.0489384 33.4578Z" fill="#16A34A"/>
<path d="M33.42 33.458C34.4614 33.457 35.5029 33.4563 36.5444 33.4559C37.028 33.4557 37.5116 33.4554 37.9952 33.4549C38.4168 33.4545 38.8384 33.4542 39.26 33.4542C39.4831 33.4541 39.7063 33.454 39.9294 33.4537C40.1396 33.4534 40.3499 33.4533 40.5601 33.4534C40.6371 33.4534 40.714 33.4533 40.791 33.4531C42.5455 33.4498 44.0563 34.0344 45.3892 35.1966C45.4273 35.2291 45.4653 35.2617 45.5045 35.2953C45.7474 35.5094 45.9445 35.7481 46.1422 36.0052C46.1687 36.0372 46.1951 36.0691 46.2224 36.102C46.762 36.758 47.1355 37.5733 47.3708 38.3907C47.3921 38.4598 47.3921 38.4598 47.4137 38.5303C47.6431 39.326 47.6657 40.1447 47.6618 40.968C47.6617 41.0686 47.6618 41.1691 47.6618 41.2696C47.6619 41.4839 47.6615 41.6982 47.6609 41.9124C47.6599 42.2222 47.6596 42.532 47.6594 42.8418C47.6592 43.3447 47.6584 43.8476 47.6573 44.3505C47.6562 44.8383 47.6553 45.3262 47.6548 45.814C47.6548 45.8442 47.6548 45.8744 47.6547 45.9055C47.6546 46.057 47.6544 46.2085 47.6543 46.36C47.653 47.612 47.6509 48.8641 47.6483 50.1161C47.7001 50.116 47.7519 50.1159 47.8053 50.1158C49.0377 50.1132 50.2702 50.1112 51.5026 50.1099C51.6547 50.1098 51.8067 50.1096 51.9587 50.1095C51.989 50.1094 52.0193 50.1094 52.0504 50.1094C52.5391 50.1088 53.0277 50.1079 53.5163 50.1068C54.0185 50.1056 54.5207 50.105 55.0229 50.1047C55.3322 50.1045 55.6415 50.104 55.9509 50.103C56.1889 50.1023 56.427 50.1022 56.6651 50.1024C56.7621 50.1024 56.8591 50.1021 56.9561 50.1017C57.6795 50.0983 58.3637 50.1492 59.0602 50.3638C59.0998 50.3758 59.1395 50.3879 59.1804 50.4004C60.8813 50.9374 62.2979 52.1518 63.1528 53.737C63.4575 54.3318 63.6886 54.9373 63.8285 55.5947C63.8345 55.6224 63.8405 55.6502 63.8467 55.6787C63.9629 56.2655 63.9889 56.8564 63.9868 57.453C63.9868 57.5243 63.9869 57.5957 63.987 57.667C63.9872 57.8582 63.9869 58.0493 63.9865 58.2405C63.9862 58.4413 63.9862 58.6421 63.9862 58.8428C63.9862 59.179 63.9859 59.5152 63.9853 59.8515C63.9847 60.2404 63.9845 60.6294 63.9845 61.0184C63.9846 61.4333 63.9843 61.8482 63.9839 62.2631C63.9838 62.3826 63.9838 62.5021 63.9838 62.6217C63.9837 62.8087 63.9835 62.9957 63.9831 63.1827C63.983 63.2515 63.9829 63.3202 63.983 63.389C63.983 63.4824 63.9828 63.5759 63.9825 63.6693C63.9824 63.7217 63.9823 63.7741 63.9823 63.8281C63.9772 63.944 63.9772 63.944 63.9375 63.9845C63.8845 63.9884 63.8312 63.9896 63.778 63.9896C63.7434 63.9897 63.7088 63.9899 63.6731 63.99C63.6345 63.9899 63.5959 63.9898 63.5562 63.9898C63.5154 63.9899 63.4747 63.9899 63.4327 63.99C63.2943 63.9903 63.1559 63.9902 63.0175 63.9901C62.918 63.9902 62.8186 63.9904 62.7191 63.9905C62.4731 63.9908 62.2272 63.9909 61.9812 63.9909C61.6867 63.991 61.3923 63.9912 61.0978 63.9915C60.3857 63.9921 59.6736 63.9924 58.9616 63.9926C58.6246 63.9927 58.2876 63.9928 57.9507 63.993C56.797 63.9935 55.6434 63.9939 54.4898 63.9941C54.4173 63.9941 54.3449 63.9941 54.2724 63.9941C54.1997 63.9941 54.1271 63.9941 54.0544 63.9941C53.9087 63.9941 53.7629 63.9942 53.6172 63.9942C53.581 63.9942 53.5449 63.9942 53.5077 63.9942C52.3373 63.9943 51.167 63.995 49.9966 63.9959C48.7592 63.9969 47.5217 63.9975 46.2842 63.9975C46.1482 63.9975 46.0122 63.9975 45.8762 63.9975C45.8427 63.9975 45.8093 63.9975 45.7748 63.9975C45.2368 63.9976 44.6989 63.998 44.161 63.9986C43.6196 63.9992 43.0781 63.9993 42.5367 63.999C42.2155 63.9988 41.8942 63.999 41.573 63.9996C41.3324 64.0001 41.0918 63.9999 40.8512 63.9994C40.7544 63.9994 40.6576 63.9995 40.5608 63.9998C39.8337 64.0023 39.1146 63.9613 38.4113 63.757C38.3579 63.7418 38.3579 63.7418 38.3035 63.7263C37.9132 63.6094 37.5477 63.4433 37.1851 63.2567C37.16 63.2439 37.1349 63.2311 37.1091 63.2179C35.9895 62.6356 34.9792 61.6705 34.3712 60.5477C34.3473 60.5044 34.3473 60.5044 34.3229 60.4602C34.0925 60.0409 33.9097 59.6342 33.7767 59.173C33.7563 59.1122 33.7357 59.0516 33.7147 58.991C33.4602 58.2046 33.4083 57.4724 33.4104 56.6506C33.4104 56.5504 33.4103 56.4501 33.4102 56.3499C33.4101 56.1327 33.4102 55.9155 33.4105 55.6983C33.411 55.3753 33.411 55.0523 33.4109 54.7293C33.4108 54.1858 33.4111 53.6424 33.4116 53.0989C33.412 52.5611 33.4123 52.0233 33.4124 51.4854C33.4124 51.452 33.4124 51.4185 33.4125 51.384C33.4125 51.2139 33.4125 51.0439 33.4125 50.8739C33.4127 49.6705 33.4132 48.4671 33.414 47.2636C33.4147 46.0948 33.4153 44.9259 33.4156 43.7571C33.4156 43.721 33.4156 43.685 33.4156 43.6478C33.4157 43.2858 33.4158 42.9238 33.4159 42.5617C33.4161 41.8243 33.4164 41.0868 33.4166 40.3493C33.4166 40.3154 33.4166 40.2815 33.4166 40.2466C33.4174 37.9837 33.4186 35.7208 33.42 33.458Z" fill="#16A34A"/>
<path d="M0.00872769 0.0203767C2.32664 0.0176063 4.64456 0.0150317 6.96247 0.0135285C6.99681 0.0135062 7.03116 0.0134839 7.06654 0.0134609C7.813 0.0129768 8.55946 0.0125288 9.30593 0.0121179C9.67203 0.0119162 10.0381 0.0117065 10.4042 0.0114926C10.4407 0.0114715 10.4771 0.0114503 10.5146 0.0114285C11.694 0.0107402 12.8734 0.00952596 14.0528 0.00803716C15.2655 0.00650917 16.4781 0.00551551 17.6908 0.00518784C17.8623 0.00514124 18.0339 0.00508858 18.2054 0.00503222C18.2392 0.00502131 18.2729 0.00501041 18.3077 0.00499917C18.8497 0.00480854 19.3917 0.00405976 19.9336 0.00309877C20.4794 0.00214314 21.0251 0.00178381 21.5709 0.00202014C21.8946 0.00214253 22.2182 0.00182077 22.5419 0.000840131C22.7845 0.000155693 23.0272 0.000331969 23.2698 0.00082374C23.3673 0.000891516 23.4648 0.000691261 23.5622 0.000179362C24.3544 -0.00373563 25.1502 0.054869 25.9016 0.331201C25.9405 0.345019 25.9794 0.358838 26.0194 0.373075C27.0407 0.745846 27.8383 1.32955 28.6239 2.08243C28.6516 2.10797 28.6792 2.13351 28.7077 2.15982C29.6312 3.0454 30.2562 4.42206 30.4867 5.68092C30.4967 5.72908 30.4967 5.72908 30.5068 5.77822C30.5922 6.24681 30.5767 6.719 30.5755 7.1938C30.5755 7.29466 30.5756 7.39551 30.5757 7.49636C30.5758 7.71509 30.5757 7.93381 30.5754 8.15254C30.5749 8.47778 30.5749 8.80301 30.575 9.12825C30.5751 9.67545 30.5748 10.2226 30.5743 10.7698C30.5739 11.3114 30.5736 11.853 30.5735 12.3946C30.5735 12.4283 30.5735 12.462 30.5735 12.4967C30.5734 12.6679 30.5734 12.8391 30.5734 13.0103C30.5732 14.2221 30.5727 15.4338 30.5719 16.6455C30.5712 17.8225 30.5706 18.9995 30.5703 20.1764C30.5703 20.2127 30.5703 20.249 30.5703 20.2864C30.5702 20.6509 30.5701 21.0155 30.57 21.38C30.5698 22.1225 30.5695 22.865 30.5693 23.6075C30.5693 23.6417 30.5693 23.6758 30.5693 23.711C30.5685 25.9896 30.5673 28.2682 30.5659 30.5469C29.5423 30.5497 28.5187 30.5519 27.4951 30.5532C27.0197 30.5538 26.5444 30.5546 26.069 30.556C25.6543 30.5572 25.2396 30.558 24.8249 30.5583C24.6057 30.5584 24.3864 30.5588 24.1672 30.5597C23.9601 30.5605 23.753 30.5608 23.5459 30.5606C23.4706 30.5606 23.3953 30.5609 23.32 30.5613C22.6354 30.5654 21.9387 30.5177 21.2819 30.3068C21.2332 30.2923 21.2332 30.2923 21.1836 30.2775C20.3337 30.018 19.5047 29.5635 18.8345 28.97C18.803 28.9423 18.7716 28.9147 18.7391 28.8861C18.6372 28.7945 18.5374 28.7009 18.4382 28.6061C18.4006 28.5704 18.363 28.5347 18.3242 28.4979C17.4705 27.6688 16.9214 26.5987 16.5804 25.4574C16.5641 25.4047 16.5641 25.4047 16.5474 25.3508C16.3311 24.5847 16.3204 23.7833 16.3241 22.9926C16.3242 22.8917 16.3241 22.7908 16.3241 22.6899C16.324 22.4748 16.3244 22.2596 16.325 22.0445C16.326 21.7334 16.3263 21.4224 16.3265 21.1114C16.3267 20.6065 16.3275 20.1015 16.3286 19.5966C16.3297 19.1068 16.3306 18.617 16.3311 18.1272C16.3311 18.0969 16.3311 18.0666 16.3312 18.0354C16.3313 17.8833 16.3315 17.7312 16.3316 17.5791C16.3329 16.322 16.335 15.0649 16.3376 13.8078C16.2615 13.8081 16.2615 13.8081 16.1838 13.8083C14.9745 13.8118 13.7653 13.8145 12.556 13.8161C12.4067 13.8163 12.2573 13.8165 12.108 13.8167C12.0782 13.8168 12.0485 13.8168 12.0179 13.8169C11.5386 13.8176 11.0594 13.8188 10.5802 13.8203C10.0872 13.8218 9.59425 13.8227 9.10129 13.8231C8.79792 13.8233 8.49456 13.824 8.1912 13.8253C7.95726 13.8263 7.72333 13.8263 7.48939 13.8261C7.39439 13.8262 7.29938 13.8265 7.20438 13.8271C5.52481 13.8377 3.85384 13.3828 2.54525 12.2714C2.52163 12.2514 2.498 12.2314 2.47365 12.2108C2.01836 11.8234 1.63179 11.4231 1.27699 10.9371C1.25985 10.9138 1.24271 10.8904 1.22505 10.8664C0.906643 10.4259 0.689059 9.94525 0.484326 9.44114C0.472059 9.41123 0.459791 9.38132 0.447151 9.3505C0.302853 8.99135 0.212041 8.62565 0.135059 8.24585C0.126843 8.20573 0.118627 8.16561 0.110162 8.12427C0.000790712 7.54662 0.00288709 6.95914 0.00422832 6.37309C0.00423953 6.30328 0.00423316 6.23348 0.00421078 6.16367C0.00419953 5.97634 0.00443062 5.78901 0.00470912 5.60168C0.00495887 5.40509 0.00498032 5.20851 0.0050272 5.01193C0.0051498 4.64065 0.00547425 4.26936 0.00587335 3.89808C0.00631816 3.47497 0.00653471 3.05187 0.00673321 2.62876C0.00714616 1.7593 0.00784214 0.889839 0.00872769 0.0203767Z" fill="#16A34A"/>
<path d="M57.1873 33.4434C57.234 33.4434 57.234 33.4434 57.2816 33.4435C57.7848 33.4451 58.2581 33.4838 58.7454 33.6203C58.7949 33.6336 58.7949 33.6336 58.8454 33.6472C59.7334 33.8891 60.5541 34.2541 61.2819 34.8333C61.3142 34.8585 61.3466 34.8837 61.3799 34.9097C61.8052 35.2481 62.1851 35.6063 62.5105 36.0462C62.5342 36.078 62.5342 36.078 62.5585 36.1105C63.1203 36.868 63.5372 37.7099 63.7591 38.6337C63.7766 38.7057 63.7954 38.7773 63.8144 38.8489C64.2492 40.5684 63.895 42.4519 63.0282 43.971C62.7381 44.4629 62.3823 44.8907 61.9953 45.3053C61.9564 45.3481 61.9564 45.3481 61.9168 45.3918C61.5269 45.8091 61.0525 46.1439 60.5685 46.4374C60.5458 46.4512 60.5231 46.465 60.4997 46.4792C59.3933 47.1407 58.1559 47.3822 56.8869 47.3765C56.8142 47.3765 56.7415 47.3765 56.6688 47.3765C56.4734 47.3765 56.2781 47.3761 56.0827 47.3755C55.8778 47.375 55.6729 47.375 55.468 47.3749C55.0809 47.3746 54.6938 47.3739 54.3067 47.3731C53.8656 47.3722 53.4245 47.3718 52.9834 47.3714C52.0769 47.3705 51.1704 47.3691 50.2638 47.3673C50.262 46.4443 50.2606 45.5213 50.2597 44.5983C50.2593 44.1696 50.2588 43.741 50.2579 43.3123C50.2571 42.9383 50.2566 42.5643 50.2564 42.1903C50.2563 41.9926 50.256 41.7949 50.2555 41.5972C50.2497 39.5527 50.2497 39.5527 50.4521 38.7603C50.4625 38.718 50.473 38.6757 50.4837 38.6322C50.7842 37.4489 51.3847 36.4076 52.2059 35.5206C52.2354 35.4879 52.2649 35.4551 52.2954 35.4214C53.5512 34.0769 55.4011 33.4386 57.1873 33.4434Z" fill="#16A34A"/>
<path d="M7.70946 16.6175C7.92009 16.6188 8.13071 16.6189 8.34134 16.6191C8.73854 16.6198 9.13574 16.6214 9.53294 16.6235C9.98583 16.6257 10.4387 16.6268 10.8916 16.6278C11.8218 16.6299 12.7519 16.6335 13.682 16.638C13.6848 17.5972 13.6869 18.5564 13.6881 19.5156C13.6888 19.9611 13.6896 20.4066 13.691 20.8521C13.6921 21.2408 13.6929 21.6294 13.6932 22.0181C13.6933 22.2236 13.6937 22.429 13.6946 22.6344C13.703 24.7096 13.703 24.7096 13.4194 25.5812C13.4057 25.6247 13.392 25.6683 13.3778 25.7132C12.9571 27.0117 12.2088 28.1681 11.1455 29.0103C11.1157 29.0362 11.0859 29.0621 11.0552 29.0888C9.68993 30.2674 7.81789 30.651 6.0724 30.5468C4.32808 30.3551 2.66524 29.4144 1.54831 28.0379C0.386209 26.5591 -0.154491 24.7018 0.0382435 22.8166C0.146258 21.9115 0.373838 21.0789 0.801183 20.2769C0.814166 20.2521 0.82715 20.2273 0.840526 20.2018C1.0904 19.7262 1.39163 19.3082 1.75021 18.912C1.82043 18.8339 1.88705 18.7541 1.95302 18.6723C2.08412 18.5161 2.23121 18.3859 2.38651 18.2553C2.42519 18.222 2.46386 18.1886 2.50371 18.1542C3.22115 17.548 4.08049 17.0998 4.98355 16.8658C5.0474 16.8491 5.11113 16.8319 5.17469 16.814C6.01035 16.584 6.85136 16.6114 7.70946 16.6175Z" fill="#16A34A"/>
</svg>
