<svg width="948" height="908" viewBox="0 0 948 908" fill="none" xmlns="http://www.w3.org/2000/svg">
<path d="M240.5 363.384C240.5 381.784 240.16 396.804 239.75 396.754C239.34 396.714 231.58 390.604 222.5 383.184C213.42 375.764 198.35 363.544 189 356.034C179.65 348.514 171.32 341.824 170.5 341.154C169.68 340.484 166.48 337.894 163.4 335.384L157.8 330.834H97.33C41.47 330.834 36.32 330.694 29.74 328.964C21.4 326.774 15.5 323.524 10.15 318.184C5.48 313.504 4.2 311.134 1.83 302.794C0.100002 296.694 0 289.474 0 171.834C0 53.8843 0.0999963 47.0243 1.84 41.3843C7.54 22.8843 18.67 11.9543 37.84 6.00432C42.44 4.57432 57.25 4.36433 173.5 4.05433C293.61 3.73433 304.68 3.84433 312.5 5.41433C323.11 7.55433 329.34 10.6243 336.14 17.0643C341.93 22.5343 345.46 27.9143 348.22 35.4643C349.89 40.0343 350 48.1443 350 169.334V298.334L347.08 304.284C342.76 313.104 332.75 322.684 323.98 326.384L317 329.334L278.75 329.634L240.5 329.944V363.384ZM226.93 383.584C232.46 388.124 237.32 391.834 237.74 391.834C238.16 391.834 238.5 377.454 238.5 359.884V327.944L276.75 327.604C309.37 327.304 315.74 327.004 320 325.564C331.21 321.784 341.14 312.334 345.64 301.174L348 295.334V169.334C348 160.154 348 151.614 348 143.674C348.03 47.9643 348.03 37.8643 343.54 30.4943C342.64 29.0143 341.55 27.6443 340.25 25.7043C332.98 14.9243 322.64 9.24432 306 6.87432C296.69 5.54432 62.31 5.52433 49.74 6.84433C44.65 7.38433 37.67 8.76432 34.24 9.92432C21.56 14.1943 10.5 24.8043 5.27 37.7143L3 43.3343L2.72 169.194C2.48 278.554 2.64 295.824 3.94 300.924C6.53 310.994 12.66 318.714 21.87 323.474C31.7 328.554 35.25 328.794 99.78 328.814L159.57 328.834L168.42 336.084C173.28 340.074 186.18 350.534 197.07 359.334C207.96 368.134 221.4 379.044 226.93 383.584ZM947.5 449.924V694.834H941H940.5C937.32 694.834 935.66 694.834 935.01 694.024C934.3 693.144 934.8 691.284 935.85 687.394L936 686.834C936.11 686.434 936.21 686.064 936.31 685.704C937.16 682.584 937.64 680.804 937.01 679.624C936.11 677.924 932.92 677.444 925.25 675.954C901.74 671.384 885.36 666.574 852 654.444C841.52 650.634 828.99 648.014 819.79 647.704C815.27 647.554 811.3 647.694 810.98 648.024C810.65 648.354 809.96 651.254 809.45 654.474C808.18 662.534 804.31 678.484 802.46 683.334C801.2 686.644 799.79 691.084 798.51 695.774L797.3 700.224L768.11 670.774C728.57 630.904 698.69 598.494 675.5 570.334C668.71 562.084 661.09 552.864 658.57 549.834C656.05 546.804 651.29 540.734 647.99 536.344C641.27 527.364 640.1 525.964 629.37 513.894C612.7 495.144 579.25 469.054 556.14 456.804C553.59 455.444 551.5 454.064 551.5 453.734C551.5 453.404 555.95 448.814 561.4 443.534C582.21 423.334 595.85 417.604 645 408.374C655.45 406.414 664.56 404.604 665.25 404.354C665.94 404.104 666.5 402.294 666.5 400.344C666.5 396.894 666.44 396.834 664.25 398.254C660.65 400.594 652.93 401.104 639.07 399.914C631.96 399.314 625.96 398.624 625.72 398.394C625.49 398.154 626.02 395.094 626.9 391.584C627.78 388.074 628.48 382.984 628.46 380.274L628.42 375.334L627.03 378.544C625.23 382.684 618.33 392.804 615.71 395.154C613.75 396.924 613.31 396.914 602.02 395.004C595.61 393.914 590.17 392.834 589.93 392.604C589.7 392.364 590.82 389.734 592.43 386.754C599.98 372.774 603.55 357.774 607.05 325.384L607.69 319.434L611.65 327.004C622.05 346.934 642.22 363.014 667.11 371.234L675.23 373.904L676.34 381.124C676.95 385.084 677.7 393.954 678.01 400.834C678.66 415.424 679.29 419.774 681.01 421.834C681.7 422.664 682.55 424.274 682.9 425.434C683.25 426.584 684.54 428.044 685.77 428.664C687 429.294 689.12 430.704 690.5 431.804C695.13 435.514 707.28 438.994 717.59 439.574C733.4 440.454 754.1 436.074 768.5 428.804C786.94 419.484 799.82 409.074 809.08 395.994C810.69 393.734 812.79 391.864 813.76 391.854C815.99 391.824 834.89 396.774 848 400.814C892.86 414.644 918 426.494 940.75 444.564L947.5 449.924ZM907.83 907.834H526.5V894.514C526.5 870.454 528.43 814.814 530.16 789.114C531.56 768.344 531.64 762.714 530.63 757.214C529.12 749.064 522.96 724.874 519.94 715.284C519.23 713.054 517.46 706.754 516 701.284C514.53 695.814 511.98 686.384 510.33 680.334C507.97 671.714 507.21 666.484 506.78 656.144L506.24 642.944L500.62 642.324C481.67 640.234 468.36 636.384 455.5 629.284C445.17 623.574 441.5 621.044 441.5 619.604C441.5 619.004 445.26 611.944 449.86 603.924C454.46 595.904 460.38 585.284 463.01 580.334C467.14 572.584 477.2 554.914 477.99 554.044C478.13 553.884 479.99 555.604 482.13 557.864C486.71 562.724 497.4 568.134 507.47 570.694L514.67 572.524L518.65 579.924C523.13 588.254 527.43 592.534 535.55 596.774C543.18 600.744 549.11 602.294 570 605.764C579.9 607.414 593.17 610.024 599.49 611.574C608.92 613.884 611.05 614.744 611.34 616.364C611.54 617.444 612.49 619.234 613.45 620.334C615.78 623.004 625.82 638.094 633.07 649.834C636.3 655.054 639.85 660.684 640.97 662.334C642.09 663.984 643.54 666.234 644.19 667.334C646.25 670.814 652.59 681.064 657.48 688.834C660.08 692.954 664.85 700.614 668.07 705.834C671.3 711.054 674.29 715.484 674.72 715.664C675.15 715.854 675.5 716.394 675.5 716.874C675.5 717.354 679.37 723.724 684.11 731.044C688.84 738.354 694.35 746.984 696.36 750.214C698.36 753.454 701.69 758.274 703.75 760.934C705.81 763.594 707.5 766.034 707.5 766.344C707.5 767.154 723.19 789.514 727.5 794.834C729.5 797.304 734.71 803.814 739.07 809.304C746.92 819.164 772.89 846.024 783.5 855.254C797.89 867.774 811.46 875.694 823.14 878.404C835.93 881.364 848.28 877.684 863.4 866.404C873.33 858.984 887.47 839.124 892.56 825.434C894.02 821.504 895 820.004 895.5 820.934C895.9 821.704 896.54 828.364 896.91 835.734C897.91 855.574 900.65 874.984 905.7 898.084L907.83 907.834ZM895 393.374C887.48 394.744 880.95 394.994 874 394.184C872.35 393.994 868.25 393.584 864.9 393.274L858.79 392.704L857.67 385.024C855.41 369.514 853.64 366.814 852.05 376.444C851.68 378.694 850.55 383.194 849.55 386.444L847.73 392.334L837.36 392.624C825.96 392.944 815.1 391.074 807.79 387.524L803.5 385.434V379.834C803.5 371.224 807.36 325.614 809.08 313.834C810.82 301.914 812.83 292.534 815.13 285.514C816.31 281.894 817.09 280.844 818.26 281.294C819.12 281.624 823.1 282.384 827.1 282.974C840.49 284.964 853.49 281.014 861.03 272.674C866.01 267.154 871.11 256.344 873 247.264C877.82 224.104 866.72 206.174 845.44 202.744C834.91 201.054 827.71 204.464 822.88 213.424C821.87 215.304 820.71 216.834 820.31 216.834C819.9 216.834 817.96 215.424 816 213.694C812.15 210.314 805.45 197.554 803.33 189.554C802.08 184.814 801.95 184.704 791.03 178.624C770.34 167.114 740.91 148.654 730.9 140.904C729.08 139.494 727.37 139.404 718.11 140.184C712.23 140.684 707.11 140.774 706.71 140.374C705.49 139.154 710.26 136.084 715.42 134.754L720.35 133.494L716.67 130.584C714.65 128.974 706.41 121.644 698.35 114.284C682.67 99.9743 673.06 89.6743 659.5 72.6043C654.83 66.7143 650.51 61.8943 649.92 61.8743C646.09 61.7443 628.83 76.7943 619.69 88.2343C604.26 107.544 596.46 125.184 593.58 147.334C592.64 154.514 590.66 179.654 590.43 187.334C590.34 190.074 590.12 189.854 587.85 184.894C582.82 173.854 581.07 163.804 581.14 146.334C581.21 128.204 582.93 118.674 589.13 101.964C597.62 79.0943 609.48 60.7443 627.43 42.7243C657.44 12.6043 686.05 1.34432 735.71 0.114323C767.3 -0.665677 786.9 2.45433 812.06 12.2943C827 18.1343 831.96 20.7243 845.43 29.7043C862.53 41.1143 877.69 56.2443 890.14 74.3343C904.75 95.5643 917.84 130.104 921.97 158.334C922.85 164.384 924 170.634 924.51 172.234C925.02 173.824 925.2 175.514 924.91 175.974C924.62 176.444 924.85 181.214 925.42 186.584C925.98 191.944 927.14 209.164 928 224.834C928.85 240.504 929.99 260.314 930.53 268.834C932.08 293.474 931.76 349.294 929.97 365.444C928.91 375.044 927.95 379.784 926.82 381.034C924.96 383.094 912.63 389.124 906.9 390.784C904.75 391.404 899.4 392.574 895 393.374ZM261.28 303.964C258.64 305.054 242.37 305.344 177.5 305.494C133.23 305.584 95.48 305.304 93.62 304.854C88.77 303.674 85.18 300.674 83.83 296.664C82.09 291.464 81.71 47.0843 83.43 40.9243C85.21 34.5743 87.06 32.2243 92.33 29.6543L97 27.3843L172.5 27.6943C214.02 27.8643 250.22 28.4243 252.94 28.9243C261.31 30.4943 264.57 33.6743 266.45 42.0943C267.17 45.3043 267.54 87.5443 267.6 171.724C267.6 179.834 267.61 187.434 267.62 194.574C267.7 291.574 267.71 300.824 263.79 303.004C263.08 303.394 262.26 303.564 261.28 303.964ZM95.44 279.584L95.5 282.834H255.5V60.8343H94.65L95.01 168.584C95.21 227.844 95.4 277.794 95.44 279.584ZM537.57 477.324L537.95 477.524C540.76 479.044 542.44 479.944 542.33 480.294C542.17 480.814 538.19 480.154 528.39 478.514L527.48 478.364C510.73 475.574 506.11 474.234 488.79 467.194C451.64 452.074 446.57 450.594 433 450.944L425 451.144L412.15 432.244C392.49 403.314 390.41 397.464 397.32 390.554C400.47 387.404 399.53 387.594 445 380.814C456 379.164 467.45 377.374 470.43 376.834C478.81 375.294 483.59 375.644 488 378.104C491.36 379.974 495.42 385.464 513.26 412.244C524.96 429.784 534.34 444.324 534.11 444.554C533.89 444.784 531.86 444.474 529.61 443.864C524.62 442.514 522.28 443.534 520.5 447.824C517.91 454.084 521.41 464.614 528.23 471.094C529.82 472.614 534.03 475.414 537.57 477.324ZM203.26 481.904C202.31 482.414 200.23 482.834 198.63 482.834C196.16 482.834 194.54 481.324 187.37 472.294C182.77 466.494 178.59 460.684 178.08 459.364C176.74 455.884 182.08 447.554 192.5 436.854C202.51 426.574 208.54 422.054 221.7 414.974C231.19 409.864 239.56 407.624 242.04 409.534C242.61 409.974 247.04 414.974 251.9 420.654C259.75 429.834 260.66 431.294 260.13 433.944C259.55 436.854 248.98 450.274 242.36 456.494C235.56 462.894 220.31 473.564 212.76 477.214C208.49 479.284 204.22 481.394 203.26 481.904ZM242 104.424V129.334L176 129.574C139.7 129.704 109.42 129.444 108.72 128.994C107.76 128.384 107.51 125.114 107.72 116.254L108 104.334L242 104.424ZM168.5 171.834V224.774L141.25 225.054C126.26 225.204 112.99 225.194 111.75 225.014L109.5 224.694V171.834H168.5ZM291.8 563.184C287.72 565.284 287.61 565.274 286.56 562.584C285.94 560.964 286.22 559.414 287.56 557.084C288.98 554.624 289.11 553.834 288.09 553.834C287.35 553.834 286.18 553.164 285.5 552.334C283.62 550.074 282.63 550.494 280.8 554.334C279.23 557.614 277.63 558.634 276.23 557.224C275.89 556.894 276.15 555.744 276.81 554.664C277.8 553.044 277.68 552.474 276.08 551.294C274.22 549.904 274.22 549.804 275.99 547.844C277 546.734 277.53 545.534 277.18 545.174C276.82 544.824 277.31 543.934 278.27 543.204C279.78 542.034 279.81 541.744 278.5 540.864C276.28 539.384 275.37 539.614 274.8 541.784C274.06 544.624 269.61 547.344 268.14 545.864C267.28 544.994 267.47 544.444 268.89 543.644C269.92 543.064 272.5 541.024 274.6 539.124C277.7 536.324 278.97 535.774 281.24 536.274C283.02 536.664 284.76 536.344 286.02 535.394C287.79 534.054 287.82 533.894 286.25 533.864C285.29 533.844 284.5 533.324 284.5 532.694C284.5 532.064 285.29 530.954 286.25 530.224C287.85 529.014 287.78 528.894 285.41 528.864C282.21 528.824 279.46 524.174 282.04 523.184C282.89 522.854 284.45 523.384 285.52 524.344C287.64 526.264 287.92 525.944 288.78 520.584C289.15 518.284 288.86 517.834 287.02 517.834C285.63 517.834 284.39 516.894 283.66 515.284C282.15 511.964 282.19 511.694 284.15 512.044C285.05 512.204 285.99 511.774 286.23 511.084C286.48 510.364 285.84 509.834 284.71 509.834C282.24 509.834 279.92 507.314 281.5 506.334C282.1 505.964 283.27 506.224 284.1 506.914C285.36 507.964 286.08 507.714 288.31 505.474C290.35 503.424 290.69 502.574 289.7 501.964C288.74 501.364 289.32 500.444 291.88 498.494C293.8 497.034 295.62 495.834 295.93 495.834C297.2 495.834 296.39 498.794 294.9 499.634C293.63 500.344 293.53 500.934 294.4 502.434C295 503.474 295.96 505.624 296.52 507.194C297.37 509.594 297.77 509.854 299.04 508.804C300.38 507.684 300.37 507.344 298.9 505.724C297.34 504.004 297.55 500.754 299.22 500.904C300.68 501.044 308.15 511.374 307.72 512.674C307.4 513.634 306.82 513.524 305.37 512.214C303.94 510.924 303.16 510.774 302.32 511.614C299.26 514.674 307.34 516.874 310.87 513.934C312.03 512.974 312.81 513.234 314.8 515.224C316.43 516.854 317.98 517.524 319.32 517.174C320.95 516.744 321.26 517.024 320.87 518.534C320.14 521.314 313.86 521.374 312.38 518.614C311.4 516.784 311.16 516.744 309.73 518.174C308.31 519.594 308.38 519.924 310.58 521.744C311.94 522.874 313.79 523.514 314.8 523.204C315.79 522.914 317.21 523.174 317.96 523.804C318.9 524.574 319.52 524.604 319.97 523.884C320.33 523.304 321.77 522.834 323.18 522.834C325.4 522.834 325.67 522.494 325.23 520.194C324.64 517.114 328.83 511.634 331.1 512.514C331.87 512.804 332.5 512.554 332.5 511.944C332.5 511.334 333.17 510.834 334 510.834C336.66 510.834 335.51 513.484 332 515.454C330.76 516.154 329.97 517.674 329.93 519.454C329.89 521.034 329.32 523.604 328.68 525.154C327.19 528.714 327.2 529.564 328.75 530.084C329.72 530.414 329.69 530.884 328.61 532.194C326.19 535.124 328.3 535.234 332.58 532.404C336.19 530.014 337.04 529.814 339.49 530.834C341.51 531.664 343.33 531.694 346.09 530.934C348.18 530.364 349.96 529.984 350.05 530.114C350.14 530.234 351.43 532.444 352.92 535.034L355.63 539.724L351.45 541.864C348.45 543.394 346.96 543.694 346.18 542.914C344.29 541.024 342.5 541.734 342.5 544.374C342.5 546.604 342.74 546.774 344.51 545.824C346.1 544.974 346.66 545.074 347.12 546.294C347.45 547.144 348.57 547.834 349.61 547.834C352.37 547.834 351.94 548.984 347.99 552.134C344.06 555.264 342.19 554.934 343.1 551.274C343.56 549.474 343.31 548.834 342.17 548.834C339.86 548.834 339.09 550.744 339.4 555.674C339.66 559.964 339.59 560.074 337.11 559.454C335.14 558.954 334.68 559.134 335.1 560.244C335.89 562.294 331.56 564.544 330.39 562.684C329.26 560.904 329.28 559.094 330.43 558.374C331.24 557.874 330.8 551.024 329.89 549.944C329.71 549.734 328.38 550.344 326.92 551.294C325 552.554 324.58 553.314 325.39 554.124C326.89 555.624 326.8 557.834 325.24 557.834C323.45 557.834 321.04 553.734 322.35 552.924C323.01 552.524 322.62 551.074 321.3 548.984L319.21 545.684L317.17 547.724C315.34 549.554 315.27 550.034 316.49 552.324C317.58 554.364 317.61 555.124 316.61 556.104C315.62 557.074 315.1 556.974 314.07 555.584C313.36 554.624 312.3 553.834 311.71 553.834C310.5 553.834 306.24 548.754 306.9 548.104C307.14 547.864 308.3 548.194 309.48 548.824C312.05 550.194 314.5 548.674 314.5 545.714C314.5 544.304 313.77 543.834 311.58 543.834C309.98 543.834 308.4 544.394 308.08 545.084C307.62 546.084 307.38 546.084 306.92 545.084C305.99 543.094 303.5 543.634 303.5 545.834C303.5 546.934 303.95 547.834 304.5 547.834C306.02 547.834 305.7 549.244 303.67 551.414C302.67 552.494 302 553.844 302.2 554.424C302.6 555.624 296.52 560.744 291.8 563.184ZM157.24 214.864C161.38 218.734 164.95 221.724 165.16 221.504C165.38 221.284 165.57 210.364 165.58 197.224L165.6 173.334L138.52 173.064L111.44 172.804L111.54 193.814C111.6 205.374 111.98 214.834 112.4 214.834C112.82 214.834 116.2 211.454 119.9 207.334C123.61 203.214 126.99 199.834 127.41 199.834C127.84 199.834 131.2 202.794 134.89 206.414L141.6 212.994L144.99 210.414C146.84 208.994 148.67 207.834 149.04 207.834C149.41 207.834 153.1 210.994 157.24 214.864ZM504.19 513.254C503.72 514.664 502.31 514.744 494.5 513.814C486.52 512.874 481.04 511.484 472.17 508.154C465.94 505.824 464.83 504.954 459.67 498.294C449.12 484.714 444.21 477.794 444.74 477.264C446.23 475.764 485.02 495.544 495.14 502.964C500.82 507.134 504.75 511.594 504.19 513.254ZM307.27 581.904C297.02 589.254 296.85 589.304 294.79 586.094C293.81 584.574 291.32 581.084 289.26 578.334C287.2 575.584 285.51 572.794 285.5 572.144C285.5 570.564 300.37 560.834 301.85 561.454C303.14 561.994 307.86 568.194 311.23 573.784L313.45 577.474L307.27 581.904ZM269.27 539.394C267.22 540.734 265.19 541.804 264.77 541.774C263.95 541.704 252.15 525.764 252.68 525.444C252.86 525.334 255.57 523.354 258.71 521.034C261.86 518.724 265.58 516.294 266.99 515.654C269.33 514.594 269.83 514.794 272.54 517.914C274.18 519.794 276.72 523.314 278.2 525.744L280.87 530.144L276.94 533.554C274.77 535.424 271.32 538.054 269.27 539.394ZM318.16 505.024C315.5 507.124 312.71 508.834 311.97 508.834C310.61 508.834 299.5 495.394 299.5 493.764C299.5 492.934 314.44 481.874 315.5 481.914C316.56 481.954 326.5 496.744 326.5 498.284C326.5 499.174 325.71 500.194 324.75 500.554C323.79 500.924 320.82 502.934 318.16 505.024ZM673.5 254.404C673.5 254.924 661.02 254.724 657.5 254.154C652.6 253.344 649.47 251.554 648.89 249.234C648.1 246.094 660.21 210.954 670.39 186.834C674.03 178.214 675.89 176.224 673.56 183.434C673.05 185.034 671.41 190.384 669.93 195.334C668.44 200.284 663.87 213.924 659.78 225.654C655.69 237.374 652.55 247.534 652.82 248.214C653.08 248.894 657.84 250.474 663.4 251.714C668.95 252.954 673.5 254.164 673.5 254.404ZM722 220.424C716.61 225.814 705.5 221.684 705.5 214.294C705.5 209.734 707.22 206.284 710.16 204.944C720.93 200.034 730.24 212.184 722 220.424ZM321.62 542.734C324.68 546.414 327.5 548.024 327.5 546.084C327.5 545.664 325.95 543.154 324.06 540.494C320.23 535.094 320.37 532.284 324.6 530.094C325.92 529.424 326.44 528.854 325.75 528.844C325.06 528.844 324.5 528.164 324.5 527.334C324.5 524.994 323.18 525.534 319.45 529.404C316.24 532.724 316.13 533.064 317.77 534.274C319.42 535.494 319.37 535.694 317 537.244C314.75 538.714 314.4 538.734 313.88 537.364C313.55 536.524 312.21 535.834 310.89 535.834C309 535.834 308.5 535.304 308.5 533.304C308.5 530.024 305.99 529.114 302.55 531.144C300.48 532.364 299.54 532.474 298.66 531.594C297.05 529.984 297.21 527.984 299.1 526.094C300.57 524.624 300.51 524.354 298.44 522.784L296.17 521.084L298.38 519.894L300.59 518.714L298.28 514.524C295.77 509.954 291.87 508.484 289.58 511.244C288.06 513.074 288.97 514.834 291.44 514.834C294.62 514.834 295.69 517.224 293.4 519.184C290.84 521.384 291.32 524.234 294.32 524.664C296.32 524.944 296.54 525.384 295.97 527.984C295.51 530.064 295.79 531.494 296.89 532.664C297.76 533.584 299.55 535.664 300.87 537.294C303.08 540.034 303.48 540.164 306 539.014C308.34 537.954 309.2 538.054 312 539.704C314.89 541.414 315.44 541.464 316.76 540.144C318.07 538.834 318.63 539.134 321.62 542.734ZM239.5 173.834V178.834H209.47C184.14 178.834 179.35 178.604 178.88 177.384C178.57 176.584 178.61 175.454 178.97 174.884C179.4 174.194 189.76 173.834 209.56 173.834H239.5ZM629.58 219.914C626.5 222.984 622.34 223.644 617.71 221.784C614.87 220.654 612.25 214.694 613.09 211.324C614.04 207.554 619.04 203.834 623.15 203.834C628.07 203.834 632.5 208.334 632.5 213.334C632.5 216.044 631.74 217.744 629.58 219.914ZM692.93 291.774C685.31 294.624 674.77 294.614 671.13 291.764C667.52 288.924 667.59 286.544 671.25 287.564C672.76 287.984 676.92 288.334 680.5 288.334C691.37 288.334 699.19 283.134 703.75 272.864C706.89 265.774 706.94 265.694 708 265.504C709.71 265.214 709.72 270.664 708.02 275.784C705.66 282.884 699.63 289.264 692.93 291.774ZM260.63 531.914C262.79 535.164 265.03 537.834 265.59 537.834C266.16 537.834 268.68 536.254 271.2 534.334C273.72 532.414 276.22 530.834 276.75 530.834C278.13 530.834 277.04 528.484 273.28 523.374C271.48 520.924 269.43 518.894 268.73 518.874C268.04 518.854 265.05 520.444 262.08 522.414L256.7 525.984L260.63 531.914ZM295.99 582.424C296.54 583.194 297.49 583.834 298.09 583.834C299.05 583.834 306.4 579.034 308.86 576.794C309.82 575.924 302.57 564.934 301 564.874C300.45 564.854 297.41 566.674 294.24 568.924L288.47 573.014L291.74 577.014C293.53 579.214 295.45 581.644 295.99 582.424ZM307.25 500.404C309.31 503.384 311.31 505.814 311.69 505.824C312.91 505.844 323.42 498.364 323.46 497.444C323.48 496.954 321.44 494.144 318.93 491.204L314.36 485.854L309.79 489.344C307.27 491.264 304.83 492.834 304.36 492.834C302.69 492.834 303.54 495.074 307.25 500.404ZM651.5 138.354C651.5 140.094 651.01 140.084 642.5 138.164C636 136.684 620 136.794 616.25 138.334C612.95 139.684 614.5 137.204 618.25 135.124C624.06 131.894 632.61 130.474 638.56 131.754C644.98 133.134 651.5 136.454 651.5 138.354ZM615.64 174.854C610.7 177.104 610.5 177.144 610.5 176.004C610.5 174.344 615.17 170.864 619.4 169.364C625.76 167.124 633.1 167.434 639 170.184C648.19 174.464 648.56 177.534 639.5 174.334C633.27 172.134 621.04 172.404 615.64 174.854ZM750.27 173.584C750.76 175.134 750.49 175.084 742.5 172.224C734.93 169.524 727.35 169.224 719.5 171.334C719.15 171.424 718.83 171.514 718.51 171.594C715.08 172.524 713.81 172.864 713.66 172.594C713.57 172.434 713.89 172.064 714.39 171.464C714.46 171.374 714.54 171.274 714.63 171.174C717.36 167.874 723.7 165.874 731.54 165.854C738.3 165.834 739.65 166.174 744.48 169.084C747.44 170.874 750.04 172.894 750.27 173.584ZM322.15 570.384C320.2 572.284 318.2 573.834 317.7 573.834C316.46 573.834 313.5 570.434 313.5 569.004C313.5 567.474 316.22 567.484 316.73 569.014C317.24 570.554 319.5 569.134 319.5 567.274C319.5 566.414 318.52 565.834 317.06 565.834C315.72 565.834 314.3 565.314 313.91 564.684C313.41 563.874 312.82 564.044 311.94 565.244C310.78 566.834 310.54 566.794 308.6 564.704C307.44 563.474 306.5 562.144 306.5 561.774C306.5 560.774 312.21 559.784 314 560.474C314.84 560.794 316.19 560.504 317.01 559.824C318.75 558.384 320.33 559.384 323.65 564.044L325.71 566.934L322.15 570.384ZM301.94 578.734C299.99 579.894 298.3 580.834 298.19 580.834C298.09 580.834 296.75 579.274 295.23 577.364L292.46 573.894L296.5 571.214C298.72 569.744 300.68 568.724 300.84 568.934C302.47 571.054 305.5 575.744 305.5 576.144C305.5 576.414 303.9 577.584 301.94 578.734ZM270.2 531.054C268.44 532.554 266.72 533.794 266.37 533.804C266.02 533.824 264.57 532.304 263.14 530.434L260.55 527.034L264.11 524.324L267.66 521.604L270.53 524.974L273.39 528.334L270.2 531.054ZM293.51 556.614C293.5 557.584 294.21 557.514 296.5 556.334C299.69 554.684 300.3 553.334 298.25 552.474C297.35 552.104 297.5 551.634 298.75 550.844C301.26 549.254 300.91 547.974 297.75 547.214C294.17 546.374 291.5 543.994 291.5 541.684C291.5 540.664 290.98 539.834 290.33 539.834C289.69 539.834 289.47 540.144 289.85 540.514C290.23 540.894 289.1 542.684 287.35 544.484C284.63 547.294 284.41 547.864 285.85 548.414C286.78 548.774 288.94 548.484 290.65 547.774C293.38 546.644 293.92 546.694 295.04 548.224C296.08 549.644 296.06 550.464 294.91 552.644C294.14 554.124 293.51 555.904 293.51 556.614ZM316.13 499.754C314.28 500.904 312.59 501.814 312.38 501.774C312.17 501.744 310.94 500.384 309.65 498.754C306.95 495.334 307.21 493.864 310.87 491.904C313.2 490.654 313.7 490.714 315.58 492.414C319.68 496.114 319.78 497.494 316.13 499.754ZM329.97 542.784C331.83 546.384 333.62 546.594 337.67 543.714L340.64 541.594L337.89 538.714C334.66 535.344 333.79 535.244 330.7 537.814C328.5 539.654 328.47 539.874 329.97 542.784ZM321.34 510.884C320.94 513.564 318.5 514.804 318.5 512.314C318.5 510.254 324.34 504.614 325.65 505.424C326.16 505.744 327.27 505.444 328.09 504.754C329.32 503.744 329.9 503.814 331.21 505.124C332.53 506.434 332.6 507.014 331.57 508.254C330.64 509.374 329.18 509.614 325.99 509.174C322.04 508.634 321.64 508.784 321.34 510.884ZM296.54 539.924C297.2 541.524 298.14 542.834 298.62 542.834C300.09 542.834 299.61 540.784 297.5 538.104C296.4 536.704 295.5 535.004 295.5 534.324C295.5 533.634 294.83 532.524 294.01 531.844C293.19 531.164 292.77 530.204 293.07 529.724C293.37 529.234 292.58 528.844 291.31 528.854C289.7 528.864 289.4 529.114 290.31 529.694C291.15 530.224 291.38 531.454 290.96 533.134C290.41 535.344 290.69 535.844 292.82 536.374C294.31 536.754 295.82 538.184 296.54 539.924ZM343.5 522.504C343.5 524.314 341.03 524.184 339.46 522.284C338.76 521.434 337.5 521.004 336.67 521.324C333.89 522.384 333.51 519.544 336.24 518.124C338.55 516.924 339.06 517.014 341.16 518.984C342.45 520.194 343.5 521.784 343.5 522.504ZM303.5 525.914C303.5 526.424 304.62 526.834 306 526.834C309.08 526.834 309.21 525.004 306.37 521.394C304.79 519.384 303.96 518.984 303.12 519.834C302.29 520.674 302.52 521.374 304 522.514C305.38 523.584 305.61 524.204 304.75 524.534C304.06 524.794 303.5 525.414 303.5 525.914ZM280.18 518.294C279.51 520.294 276.67 519.954 275.99 517.794C274.97 514.604 277.23 512.784 279.08 515.294C279.88 516.374 280.37 517.724 280.18 518.294ZM346.88 528.034C346.6 528.474 345.25 528.834 343.86 528.834C341.08 528.834 341.07 527.134 343.84 525.404C345.14 524.594 345.78 524.694 346.46 525.784C346.96 526.584 347.15 527.594 346.88 528.034ZM283 541.834C283.82 543.154 284.84 543.094 286.3 541.634C288.05 539.884 287.77 538.834 285.56 538.834C283.36 538.834 282.08 540.344 283 541.834ZM309.5 557.074C309.5 557.494 308.38 557.834 307 557.834C304.69 557.834 303.64 556.024 305.11 554.564C305.82 553.854 309.5 555.954 309.5 557.074ZM357.07 545.404C355.35 547.124 354.83 547.174 353.93 545.724C353.21 544.544 355.14 542.874 357.25 542.854C358.89 542.834 358.83 543.644 357.07 545.404ZM328.5 559.714C328.5 561.444 325.97 562.744 324.47 561.774C323.18 560.954 323.19 560.714 324.5 559.854C326.37 558.624 328.5 558.544 328.5 559.714ZM333 553.834C334.06 555.554 336.07 554.924 336.23 552.834C336.31 551.724 335.76 550.834 335 550.834C333.28 550.834 332.18 552.504 333 553.834ZM346.19 538.184C347.24 539.234 349 538.344 349 536.764C349 535.994 348.21 535.214 347.25 535.024C345.53 534.694 344.81 536.814 346.19 538.184ZM281.79 560.834C281.5 561.934 280.6 562.834 279.78 562.834C278.83 562.834 278.51 562.254 278.89 561.254C279.23 560.384 279.5 559.484 279.5 559.254C279.5 559.024 280.13 558.834 280.91 558.834C281.82 558.834 282.13 559.534 281.79 560.834ZM335.27 541.024C334.65 542.874 332.5 543.184 332.5 541.414C332.5 540.544 333.21 539.834 334.08 539.834C334.95 539.834 335.49 540.364 335.27 541.024ZM337.31 524.754C337.51 525.354 336.92 525.834 336 525.834C335.08 525.834 334.49 525.354 334.69 524.754C334.89 524.164 335.48 523.684 336 523.684C336.52 523.684 337.11 524.164 337.31 524.754Z" fill="#2463EB"/>
<path d="M822.192 878.314C811.262 875.564 797.282 867.234 783.502 855.254C772.892 846.024 746.922 819.164 739.072 809.304C734.712 803.814 729.502 797.304 727.502 794.834C723.192 789.514 707.502 767.154 707.502 766.344C707.502 766.034 705.812 763.594 703.752 760.934C701.692 758.274 698.362 753.454 696.362 750.214C694.352 746.984 688.842 738.354 684.112 731.044C679.372 723.724 675.502 717.354 675.502 716.874C675.502 716.394 675.152 715.854 674.722 715.664C674.292 715.484 671.302 711.054 668.072 705.834C664.852 700.614 660.082 692.954 657.482 688.834C652.592 681.064 646.252 670.814 644.192 667.334C643.542 666.234 642.092 663.984 640.972 662.334C639.852 660.684 636.302 655.054 633.072 649.834C625.822 638.094 615.782 623.004 613.452 620.334C612.492 619.234 611.542 617.444 611.342 616.364C611.052 614.744 608.922 613.884 599.492 611.574C593.172 610.024 579.902 607.414 570.002 605.764C549.112 602.294 543.182 600.744 535.552 596.774C527.432 592.534 523.132 588.254 518.652 579.924L514.672 572.524L507.472 570.694C497.322 568.114 486.712 562.724 482.052 557.784C477.942 553.424 470.502 539.864 470.502 536.744C470.502 535.674 468.352 533.514 465.232 531.444C457.772 526.484 444.512 512.494 440.032 504.834C435.042 496.314 434.402 491.224 437.802 487.264C439.852 484.884 441.162 484.314 444.712 484.254C448.602 484.184 449.382 484.564 451.552 487.584C462.662 503.044 465.142 505.524 472.172 508.184C484.502 512.874 503.302 515.844 504.182 513.254C504.752 511.594 500.832 507.134 495.142 502.964C484.312 495.024 446.642 476.014 444.442 477.374C443.922 477.694 443.502 477.534 443.502 477.014C443.502 476.504 442.262 475.824 440.752 475.504C435.932 474.494 425.332 467.504 422.772 463.644C420.132 459.674 420.252 455.114 423.052 452.794C423.842 452.144 424.192 451.134 423.832 450.564C423.442 449.924 423.682 449.834 424.482 450.324C425.192 450.764 429.202 451.034 433.392 450.934C446.132 450.604 454.482 452.924 481.262 464.194C501.022 472.514 510.862 475.574 525.022 477.824C532.162 478.964 539.352 480.124 541.002 480.414C543.222 480.794 542.332 480.014 537.572 477.394C529.982 473.224 526.212 469.834 522.912 464.254C518.432 456.644 518.782 446.364 523.612 443.774C526.762 442.094 534.112 444.734 549.082 452.944C581.712 470.834 610.572 492.744 629.372 513.894C640.102 525.964 641.272 527.364 647.992 536.344C651.292 540.734 656.052 546.804 658.572 549.834C661.092 552.864 668.712 562.084 675.502 570.334C698.692 598.494 728.572 630.904 768.112 670.774L797.302 700.224L798.512 695.774C799.792 691.084 801.202 686.644 802.462 683.334C804.312 678.484 808.182 662.534 809.452 654.474C809.962 651.254 810.652 648.354 810.982 648.024C811.302 647.694 815.272 647.554 819.792 647.704C828.992 648.014 841.522 650.634 852.002 654.444C885.362 666.574 901.742 671.384 925.252 675.954C934.422 677.734 937.502 678.714 937.502 679.834C937.492 680.664 936.352 685.384 934.952 690.334C933.552 695.284 932.042 700.914 931.602 702.834C930.762 706.454 926.382 721.994 919.332 746.334C915.032 761.204 908.632 780.844 903.522 794.834C901.822 799.504 899.112 807.164 897.522 811.834C890.692 831.824 885.382 841.894 874.782 855.014C860.102 873.184 839.012 882.534 822.192 878.314ZM477.492 832.534C449.122 824.844 427.132 804.874 387.542 750.814C382.512 743.954 377.862 737.654 377.202 736.824C375.512 734.714 358.522 709.634 355.502 704.814C349.022 694.454 336.742 675.354 334.422 672.024C332.182 668.804 331.002 668.144 325.422 666.944C321.892 666.184 314.312 663.854 308.582 661.764L298.152 657.974L293.582 660.404C287.492 663.644 283.482 663.474 276.332 659.664C269.992 656.284 266.502 652.744 266.502 649.704C266.502 648.234 265.752 647.834 262.972 647.834C257.912 647.834 250.422 643.684 245.602 638.214C240.882 632.844 239.772 629.734 241.352 626.264C242.402 623.954 242.242 623.794 237.722 622.664C234.032 621.744 231.612 620.094 226.622 615.114L220.232 608.754L220.812 603.844C221.452 598.474 221.582 598.614 214.402 597.404C208.982 596.494 198.502 584.674 198.502 579.464C198.502 575.754 208.452 560.164 213.452 556.054C218.192 552.144 225.872 547.834 228.072 547.834C229.462 547.834 231.902 548.504 233.492 549.324C238.302 551.814 239.502 554.484 239.502 562.714V570.144L235.502 573.564C231.292 577.164 230.512 579.764 232.992 581.824C234.252 582.864 235.852 581.694 242.932 574.544C248.482 568.954 252.432 565.784 254.442 565.344C258.892 564.374 264.142 566.494 267.202 570.504C270.932 575.404 271.052 584.944 267.442 590.244C266.102 592.214 264.702 593.824 264.332 593.824C263.462 593.834 259.152 600.814 259.692 601.354C259.912 601.584 263.072 599.094 266.702 595.814C276.822 586.684 279.832 586.014 286.862 591.384C291.402 594.854 291.502 595.044 291.502 600.514C291.502 605.354 290.892 607.144 287.002 613.724C284.532 617.914 280.472 623.814 277.982 626.834C273.332 632.484 272.342 636.614 275.782 636.034C276.762 635.864 280.132 633.254 283.282 630.234C286.432 627.214 290.252 624.474 291.772 624.154C293.292 623.834 294.782 623.184 295.082 622.704C296.842 619.854 306.532 623.414 308.452 627.624C311.362 634.014 309.222 640.634 301.322 649.674C296.842 654.804 298.472 655.834 311.082 655.834C316.762 655.834 322.442 655.444 323.702 654.964C324.972 654.484 328.482 653.294 331.502 652.334C343.872 648.384 364.592 635.984 372.722 627.664C375.312 625.004 378.152 622.834 379.032 622.834C379.902 622.834 380.332 623.294 379.992 623.854C378.472 626.304 385.062 633.464 413.492 660.254C422.592 668.824 445.322 687.834 446.472 687.834C446.942 687.834 448.492 686.444 449.922 684.744C457.312 675.954 460.462 666.534 462.582 646.864C463.992 633.744 464.132 633.544 470.182 635.954C475.612 638.104 490.012 641.114 500.622 642.314L506.242 642.944L506.782 656.144C507.212 666.484 507.972 671.714 510.332 680.334C511.982 686.384 514.532 695.814 516.002 701.284C517.462 706.754 519.232 713.054 519.942 715.284C523.172 725.554 529.372 750.064 530.712 757.864C531.632 763.224 531.522 769.244 530.162 787.954C529.232 800.814 528.462 813.804 528.462 816.834C528.452 822.274 528.392 822.374 523.722 825.534C513.862 832.214 507.962 834.154 496.502 834.514C487.942 834.784 484.432 834.414 477.492 832.534ZM375.882 533.294C373.202 529.694 368.092 522.904 364.542 518.204L358.082 509.654L360.042 506.034C361.362 503.574 363.232 501.934 365.812 500.964C369.192 499.684 369.992 499.704 373.012 501.134C378.162 503.594 379.282 506.204 380.432 518.334C381.012 524.384 381.742 531.694 382.062 534.584C382.402 537.614 382.252 539.834 381.702 539.834C381.182 539.834 378.562 536.894 375.882 533.294ZM708.742 438.774C701.682 437.384 692.602 433.694 688.812 430.684C686.842 429.114 684.872 427.834 684.432 427.834C683.992 427.834 683.332 426.824 682.952 425.584C682.572 424.344 681.702 422.664 681.012 421.834C679.292 419.774 678.662 415.424 678.012 400.834C677.702 393.954 676.952 385.084 676.342 381.124L675.232 373.904L667.112 371.234C642.292 363.044 621.792 346.714 611.762 327.154C608.252 320.314 607.962 320.014 607.372 322.584C606.852 324.854 606.722 324.584 606.622 321.014C606.552 318.634 605.402 313.424 604.072 309.434C597.312 289.304 593.552 266.054 591.522 231.834C589.282 194.144 591.192 153.224 596.102 133.334C601.022 113.434 614.682 91.2336 632.112 74.8336C639.122 68.2336 647.962 61.8036 649.922 61.8736C650.512 61.8936 654.832 66.7136 659.502 72.6036C673.062 89.6736 682.672 99.9736 698.352 114.284C706.412 121.644 714.652 128.974 716.672 130.584L720.352 133.494L715.422 134.754C710.262 136.084 705.492 139.154 706.712 140.374C707.112 140.774 712.232 140.684 718.112 140.184C727.372 139.404 729.082 139.494 730.902 140.904C740.912 148.654 770.342 167.114 791.032 178.624C801.952 184.704 802.082 184.814 803.332 189.554C805.452 197.554 812.152 210.314 816.002 213.694C817.962 215.424 819.902 216.834 820.312 216.834C820.712 216.834 821.872 215.304 822.882 213.424C827.712 204.464 834.912 201.054 845.442 202.744C866.722 206.174 877.822 224.104 873.002 247.264C871.112 256.344 866.012 267.154 861.032 272.674C853.492 281.014 840.492 284.964 827.102 282.974C823.102 282.384 819.102 281.614 818.222 281.284C816.972 280.794 816.192 282.094 814.542 287.434C809.502 303.764 807.102 323.944 803.062 384.144L802.612 390.964L806.042 392.994C810.232 395.464 810.102 395.784 800.942 405.684C792.732 414.544 783.062 421.444 768.502 428.804C751.522 437.404 724.572 441.894 708.742 438.774ZM692.932 291.774C699.522 289.304 705.582 282.974 707.922 276.104C709.572 271.264 709.972 266.634 708.832 265.494C707.922 264.594 704.572 267.734 704.902 269.174C705.052 269.814 704.982 269.984 704.742 269.544C704.502 269.114 702.292 270.614 699.832 272.884C694.642 277.664 686.742 281.564 677.502 283.904C673.922 284.814 671.112 286.054 671.242 286.654C671.372 287.264 670.812 287.504 669.992 287.194C667.472 286.224 668.292 289.524 671.132 291.764C674.772 294.614 685.312 294.624 692.932 291.774ZM673.502 254.404C673.502 254.164 668.952 252.954 663.402 251.714C657.842 250.474 653.082 248.894 652.822 248.214C652.552 247.534 655.692 237.374 659.782 225.654C663.872 213.924 668.442 200.284 669.932 195.334C671.412 190.384 673.052 185.034 673.562 183.434C675.892 176.224 674.032 178.214 670.392 186.834C660.212 210.954 648.102 246.094 648.892 249.234C649.472 251.554 652.602 253.344 657.502 254.154C661.022 254.724 673.502 254.924 673.502 254.404ZM629.582 219.914C631.742 217.744 632.502 216.044 632.502 213.334C632.502 208.334 628.072 203.834 623.152 203.834C619.042 203.834 614.042 207.554 613.092 211.324C612.252 214.694 614.872 220.654 617.712 221.784C622.342 223.644 626.502 222.984 629.582 219.914ZM722.002 220.424C730.242 212.184 720.932 200.034 710.162 204.944C707.222 206.284 705.502 209.734 705.502 214.294C705.502 221.684 716.612 225.814 722.002 220.424ZM615.642 174.854C621.042 172.404 633.272 172.134 639.502 174.334C648.562 177.534 648.192 174.464 639.002 170.184C633.102 167.434 625.762 167.124 619.402 169.364C615.172 170.864 610.502 174.344 610.502 176.004C610.502 177.144 610.702 177.104 615.642 174.854ZM750.272 173.584C750.042 172.894 747.442 170.874 744.482 169.084C739.652 166.174 738.302 165.834 731.542 165.854C723.702 165.874 717.362 167.874 714.632 171.174C712.982 173.164 712.702 173.154 719.502 171.334C727.352 169.224 734.932 169.524 742.502 172.224C750.492 175.084 750.762 175.134 750.272 173.584ZM651.502 138.354C651.502 136.454 644.982 133.134 638.562 131.754C632.612 130.474 624.062 131.894 618.252 135.124C614.502 137.204 612.952 139.684 616.252 138.334C620.002 136.794 636.002 136.684 642.502 138.164C651.012 140.084 651.502 140.094 651.502 138.354ZM107.832 81.2136C106.302 78.8736 106.272 78.3236 107.592 75.9636C110.372 70.9936 118.502 72.7536 118.502 78.3336C118.502 83.7136 110.832 85.7836 107.832 81.2136ZM125.072 82.2636C121.522 78.7136 124.232 72.8336 129.422 72.8336C132.592 72.8336 135.502 75.5436 135.502 78.5036C135.502 83.0336 128.402 85.5936 125.072 82.2636Z" fill="#F7E2AB"/>
</svg>
