<svg width="298" height="331" viewBox="0 0 298 331" fill="none" xmlns="http://www.w3.org/2000/svg">
<path fill-rule="evenodd" clip-rule="evenodd" d="M72 0.0625C94 0.0625 116 0.0625 138 0.0625C138 21.3955 138 42.7295 138 64.0625C116 64.0625 94 64.0625 72 64.0625C72 42.7295 72 21.3955 72 0.0625Z" fill="#2463EB"/>
<path fill-rule="evenodd" clip-rule="evenodd" d="M200 197.063C184.842 196.067 169.509 195.733 154 196.063C154 175.063 154 154.063 154 133.063C169.337 133.23 184.67 133.063 200 132.563C217.725 130.335 228.058 120.502 231 103.063C232.647 96.8346 231.98 90.8346 229 85.0626C224.688 75.2556 217.354 68.7556 207 65.5626C189.371 64.1646 171.704 63.6646 154 64.0626C154 42.7296 154 21.3956 154 0.0626406C174.003 -0.104359 194.003 0.0626406 214 0.562641C264.981 10.0386 292.648 40.5386 297 92.0626C297.403 119.753 286.736 141.92 265 158.563C260.658 160.734 256.324 162.901 252 165.063C281.286 178.872 296.286 202.038 297 234.563C294.422 287.481 267.089 319.148 215 329.563C194.669 330.063 174.336 330.23 154 330.063C154 308.73 154 287.396 154 266.063C171.375 266.475 188.709 265.975 206 264.563C228.278 256.41 236.111 240.91 229.5 218.063C223.262 206.026 213.429 199.026 200 197.063Z" fill="#2463EB"/>
<path fill-rule="evenodd" clip-rule="evenodd" d="M0 65.0625C22 65.0625 44 65.0625 66 65.0625C66 86.3955 66 107.729 66 129.062C44 129.062 22 129.062 0 129.062C0 107.729 0 86.3955 0 65.0625Z" fill="#2463EB"/>
<path fill-rule="evenodd" clip-rule="evenodd" d="M74 134.062C95 134.062 116 134.062 137 134.062C137 154.396 137 174.729 137 195.062C116 195.062 95 195.062 74 195.062C74 174.729 74 154.396 74 134.062Z" fill="#2463EB"/>
<path fill-rule="evenodd" clip-rule="evenodd" d="M66 201.062C66 222.062 66 243.062 66 264.062C44.333 264.062 22.667 264.062 1 264.062C1 243.062 1 222.062 1 201.062C22.667 201.062 44.333 201.062 66 201.062Z" fill="#2463EB"/>
<path fill-rule="evenodd" clip-rule="evenodd" d="M73 266.062C94.667 266.062 116.333 266.062 138 266.062C138 287.396 138 308.729 138 330.062C116.333 330.062 94.667 330.062 73 330.062C73 308.729 73 287.396 73 266.062Z" fill="#2463EB"/>
</svg>
