<svg width="884" height="478" viewBox="0 0 884 478" fill="none" xmlns="http://www.w3.org/2000/svg">
<g clip-path="url(#clip0_17741_142)">
<path d="M127.543 414.184H751.543V376.567C751.543 368.711 742.076 360.978 725.568 355.351L725.399 355.293C714.254 351.36 643.007 323.378 604.47 324.224C584.113 324.67 566.684 328.12 552.67 334.48C509.045 354.283 451.74 361.599 421.463 355.852C394.781 350.786 321.532 342.408 294.467 342.786C256.563 343.308 256.452 349.64 217.543 370.078C202.682 377.877 197.124 378.856 127.543 385.078V414.184Z" fill="#F2F2F2"/>
<path d="M26.9444 358.893C25.5856 338.712 34.1531 318.325 51.9056 310.834C48.317 331.627 52.7386 354.732 64.1396 374.763C68.5801 382.564 74.2828 390.894 73.0692 399.046C72.3141 404.118 68.8635 408.145 64.647 410.767C60.4303 413.389 55.4617 414.789 50.5537 416.163L49.7063 417.053C38.0417 398.987 28.3032 379.074 26.9444 358.893Z" fill="#F2F2F2"/>
<path d="M52.1635 311.203C43.3597 324.758 39.4482 340.912 41.0766 356.993C41.3459 360.666 42.1686 364.277 43.5168 367.704C44.9912 371.138 47.2524 374.177 50.1178 376.575C52.77 378.885 55.7127 380.979 57.8366 383.814C58.8848 385.197 59.6432 386.777 60.0666 388.461C60.4899 390.144 60.5694 391.895 60.3004 393.61C59.6812 397.672 57.5781 401.065 55.3938 404.295C52.9685 407.882 50.386 411.56 49.946 416.174C49.8927 416.733 48.9991 416.496 49.0524 415.937C49.8179 407.91 56.5877 403.029 58.863 395.719C59.4818 393.953 59.6928 392.069 59.4803 390.21C59.2678 388.351 58.6372 386.563 57.6359 384.982C55.6569 381.984 52.6239 379.823 49.9211 377.504C47.0911 375.192 44.7894 372.301 43.1709 369.025C41.6584 365.656 40.7 362.064 40.3327 358.389C39.4149 350.464 39.7909 342.444 41.4462 334.64C43.2168 326.051 46.6124 317.879 51.4502 310.565C51.747 310.119 52.4584 310.76 52.1635 311.203Z" fill="white"/>
<path d="M40.2849 351.59C37.3646 351.018 34.6952 349.55 32.648 347.391C30.6008 345.231 29.2777 342.487 28.8627 339.54C28.7985 338.966 29.6909 338.965 29.7552 339.54C30.137 342.284 31.3693 344.839 33.2788 346.846C35.1883 348.854 37.679 350.212 40.4006 350.73C40.4577 350.737 40.5129 350.755 40.563 350.783C40.613 350.812 40.657 350.85 40.6922 350.895C40.7274 350.941 40.7533 350.993 40.7682 351.048C40.7832 351.104 40.7869 351.162 40.7793 351.219C40.7716 351.276 40.7527 351.331 40.7236 351.38C40.6945 351.43 40.6558 351.473 40.6098 351.508C40.5638 351.542 40.5114 351.567 40.4556 351.582C40.3999 351.596 40.3418 351.599 40.2849 351.59Z" fill="white"/>
<path d="M48.642 375.56C50.8211 373.937 52.6316 371.87 53.9543 369.496C55.277 367.122 56.082 364.495 56.3163 361.787C56.3717 361.229 57.2654 361.466 57.21 362.024C56.9606 364.841 56.117 367.572 54.735 370.039C53.353 372.506 51.4639 374.652 49.1922 376.336C48.7575 376.654 48.2097 375.877 48.642 375.56Z" fill="white"/>
<path d="M44.2593 326.714C45.2778 327.151 46.3912 327.322 47.494 327.208C48.5967 327.095 49.6522 326.701 50.5603 326.066C50.9898 325.742 51.5372 326.519 51.1104 326.841C50.1043 327.539 48.9386 327.972 47.7209 328.1C46.5032 328.228 45.2729 328.047 44.1437 327.574C44.0265 327.54 43.9243 327.467 43.8536 327.367C43.783 327.268 43.7481 327.147 43.7547 327.025C43.7629 326.969 43.7833 326.916 43.8143 326.869C43.8454 326.822 43.8864 326.782 43.9345 326.752C43.9826 326.722 44.0366 326.704 44.0927 326.697C44.1488 326.69 44.2056 326.696 44.2593 326.714Z" fill="white"/>
<path d="M116.674 343.716C116.413 343.927 116.151 344.137 115.891 344.356C112.401 347.203 109.185 350.369 106.285 353.815C106.056 354.077 105.828 354.347 105.608 354.616C98.6691 363.108 93.5898 372.962 90.6989 383.541C89.5132 387.855 88.6811 392.259 88.2106 396.708C87.5499 402.912 87.3447 409.762 84.6789 414.945C84.4086 415.487 84.1004 416.01 83.7566 416.51L51.0238 418.171C50.9422 418.137 50.8617 418.111 50.7798 418.077L49.4844 418.204C49.4923 417.968 49.5057 417.725 49.5137 417.489C49.5177 417.352 49.529 417.215 49.533 417.078C49.538 416.987 49.5433 416.895 49.5425 416.812C49.544 416.781 49.5459 416.751 49.5489 416.728C49.548 416.644 49.5563 416.568 49.5568 416.492C49.628 415.13 49.7064 413.767 49.8002 412.404C49.7987 412.396 49.7987 412.396 49.8046 412.388C50.3671 402.137 52.2284 391.999 55.3436 382.216C55.4399 381.93 55.5344 381.637 55.6456 381.35C57.0986 377.111 58.9373 373.013 61.1387 369.109C62.3416 366.996 63.6657 364.955 65.1043 362.995C68.8294 357.947 73.4368 353.614 78.704 350.205C84.0804 346.624 90.1316 344.179 96.4865 343.02C102.841 341.861 109.366 342.012 115.661 343.464C116 343.545 116.333 343.627 116.674 343.716Z" fill="#F2F2F2"/>
<path d="M116.679 344.138C101.335 347.995 87.882 357.222 78.7571 370.146C76.754 372.898 75.2556 375.983 74.3318 379.259C73.5268 382.665 73.6582 386.225 74.7122 389.562C75.6355 392.807 76.9484 396.072 77.0825 399.373C77.1562 400.989 76.8465 402.598 76.1788 404.071C75.511 405.544 74.5041 406.838 73.2405 407.847C70.1978 410.374 66.2562 411.53 62.3426 412.521C57.9974 413.621 53.4566 414.692 50.2337 417.72C49.8432 418.087 49.1999 417.38 49.5898 417.014C55.1971 411.746 64.1748 412.336 70.6753 408.487C73.7086 406.692 76.0794 403.896 76.1873 400.086C76.2816 396.756 74.9306 393.388 73.9678 390.107C72.8952 386.848 72.6367 383.376 73.2148 379.994C73.9545 376.666 75.3214 373.51 77.2424 370.695C81.4088 364.373 86.6849 358.858 92.8155 354.415C99.9116 349.23 107.929 345.442 116.441 343.253C116.977 343.114 117.211 343.999 116.679 344.138Z" fill="white"/>
<path d="M81.3775 365.812C76.8289 361.511 75.6907 354.886 78.692 350.339C78.9876 349.891 79.7765 350.427 79.4805 350.875C76.6689 355.136 77.7559 361.247 82.0078 365.268C82.4553 365.691 81.8224 366.233 81.3775 365.812Z" fill="white"/>
<path d="M74.0339 387.948C76.7946 388.157 79.5689 387.803 82.1885 386.907C84.8082 386.011 87.2184 384.592 89.2729 382.737C89.6649 382.371 90.3084 383.078 89.9169 383.443C87.7741 385.37 85.2622 386.841 82.5335 387.768C79.8049 388.694 76.9164 389.057 74.0435 388.833C73.4643 388.798 73.4579 387.914 74.0339 387.948Z" fill="white"/>
<path d="M100.17 350.448C100.858 351.408 101.749 352.203 102.78 352.779C103.811 353.354 104.956 353.695 106.133 353.777C106.712 353.805 106.717 354.689 106.143 354.662C104.842 354.566 103.578 354.187 102.438 353.554C101.297 352.92 100.309 352.046 99.5398 350.992C99.4579 350.909 99.4114 350.798 99.4102 350.681C99.4089 350.565 99.4529 350.452 99.533 350.367C99.6295 350.297 99.7493 350.266 99.8677 350.281C99.9862 350.296 100.094 350.356 100.17 350.448Z" fill="white"/>
<path d="M846.462 358.893C847.821 338.712 839.254 318.325 821.501 310.834C825.09 331.627 820.668 354.732 809.267 374.763C804.827 382.564 799.124 390.894 800.338 399.046C801.093 404.118 804.543 408.145 808.76 410.767C812.976 413.389 817.945 414.789 822.853 416.163L823.701 417.053C835.365 398.987 845.104 379.074 846.462 358.893Z" fill="#F2F2F2"/>
<path d="M821.238 311.203C830.042 324.758 833.953 340.912 832.325 356.993C832.056 360.666 831.233 364.277 829.885 367.704C828.411 371.138 826.149 374.177 823.284 376.575C820.632 378.885 817.689 380.979 815.565 383.814C814.517 385.197 813.758 386.777 813.335 388.461C812.912 390.144 812.832 391.895 813.101 393.61C813.72 397.672 815.824 401.065 818.008 404.295C820.433 407.882 823.016 411.56 823.456 416.174C823.509 416.733 824.403 416.496 824.349 415.937C823.584 407.91 816.814 403.029 814.539 395.719C813.92 393.953 813.709 392.069 813.921 390.21C814.134 388.351 814.765 386.563 815.766 384.982C817.745 381.984 820.778 379.823 823.481 377.504C826.311 375.192 828.612 372.301 830.231 369.025C831.743 365.656 832.702 362.064 833.069 358.389C833.987 350.464 833.611 342.444 831.955 334.64C830.185 326.051 826.789 317.879 821.951 310.565C821.655 310.119 820.943 310.76 821.238 311.203Z" fill="white"/>
<path d="M833.119 351.59C836.04 351.018 838.709 349.55 840.756 347.391C842.803 345.231 844.127 342.487 844.542 339.54C844.606 338.966 843.713 338.965 843.649 339.54C843.267 342.284 842.035 344.839 840.125 346.846C838.216 348.854 835.725 350.212 833.004 350.73C832.947 350.737 832.891 350.755 832.841 350.783C832.791 350.812 832.747 350.85 832.712 350.895C832.677 350.941 832.651 350.993 832.636 351.048C832.621 351.104 832.617 351.162 832.625 351.219C832.633 351.276 832.652 351.331 832.681 351.38C832.71 351.43 832.748 351.473 832.794 351.508C832.84 351.542 832.893 351.567 832.949 351.582C833.004 351.596 833.062 351.599 833.119 351.59Z" fill="white"/>
<path d="M824.762 375.56C822.583 373.937 820.772 371.87 819.45 369.496C818.127 367.122 817.322 364.495 817.088 361.787C817.032 361.229 816.139 361.466 816.194 362.024C816.443 364.841 817.287 367.572 818.669 370.039C820.051 372.506 821.94 374.652 824.212 376.336C824.646 376.654 825.194 375.877 824.762 375.56Z" fill="white"/>
<path d="M829.146 326.714C828.128 327.151 827.014 327.322 825.912 327.208C824.809 327.095 823.753 326.701 822.845 326.066C822.416 325.742 821.868 326.519 822.295 326.841C823.301 327.539 824.467 327.972 825.685 328.1C826.902 328.228 828.133 328.047 829.262 327.574C829.379 327.54 829.481 327.467 829.552 327.367C829.623 327.268 829.657 327.147 829.651 327.025C829.643 326.969 829.622 326.916 829.591 326.869C829.56 326.822 829.519 326.782 829.471 326.752C829.423 326.722 829.369 326.704 829.313 326.697C829.257 326.69 829.2 326.696 829.146 326.714Z" fill="white"/>
<path d="M756.73 343.716C756.992 343.927 757.253 344.137 757.513 344.356C761.003 347.203 764.219 350.369 767.12 353.815C767.349 354.077 767.576 354.347 767.796 354.616C774.735 363.108 779.815 372.962 782.706 383.541C783.891 387.855 784.723 392.259 785.194 396.708C785.855 402.912 786.06 409.762 788.726 414.945C788.996 415.487 789.304 416.01 789.648 416.51L822.381 418.171C822.462 418.137 822.543 418.111 822.625 418.077L823.92 418.204C823.912 417.968 823.899 417.725 823.891 417.489C823.887 417.352 823.875 417.215 823.871 417.078C823.866 416.987 823.861 416.895 823.862 416.812C823.86 416.781 823.858 416.751 823.856 416.728C823.856 416.645 823.848 416.568 823.848 416.492C823.776 415.13 823.698 413.767 823.604 412.404C823.606 412.396 823.606 412.396 823.6 412.388C823.037 402.137 821.176 391.999 818.061 382.216C817.964 381.93 817.87 381.637 817.759 381.351C816.306 377.111 814.467 373.013 812.266 369.109C811.063 366.996 809.739 364.955 808.3 362.995C804.575 357.947 799.968 353.614 794.7 350.205C789.324 346.624 783.273 344.179 776.918 343.02C770.563 341.861 764.038 342.012 757.744 343.464C757.404 343.545 757.071 343.627 756.73 343.716Z" fill="#F2F2F2"/>
<path d="M756.723 344.138C772.066 347.995 785.519 357.222 794.644 370.146C796.647 372.898 798.146 375.983 799.07 379.259C799.875 382.665 799.743 386.225 798.689 389.562C797.766 392.807 796.453 396.072 796.319 399.373C796.245 400.989 796.555 402.598 797.223 404.071C797.89 405.544 798.897 406.838 800.161 407.847C803.204 410.374 807.145 411.53 811.059 412.521C815.404 413.621 819.945 414.692 823.168 417.72C823.558 418.087 824.201 417.38 823.812 417.014C818.204 411.746 809.227 412.336 802.726 408.487C799.693 406.692 797.322 403.896 797.214 400.086C797.12 396.756 798.471 393.388 799.433 390.107C800.506 386.848 800.765 383.376 800.187 379.994C799.447 376.666 798.08 373.51 796.159 370.695C791.992 364.373 786.716 358.858 780.586 354.415C773.49 349.23 765.472 345.442 756.96 343.253C756.424 343.114 756.19 343.999 756.723 344.138Z" fill="white"/>
<path d="M792.026 365.812C796.574 361.511 797.712 354.886 794.711 350.339C794.415 349.891 793.627 350.427 793.923 350.875C796.734 355.136 795.647 361.247 791.395 365.268C790.948 365.691 791.581 366.233 792.026 365.812Z" fill="white"/>
<path d="M799.372 387.948C796.611 388.157 793.837 387.803 791.217 386.907C788.598 386.011 786.188 384.592 784.133 382.737C783.741 382.371 783.097 383.078 783.489 383.443C785.632 385.37 788.144 386.841 790.872 387.768C793.601 388.694 796.489 389.057 799.362 388.833C799.942 388.798 799.948 387.914 799.372 387.948Z" fill="white"/>
<path d="M773.232 350.448C772.544 351.408 771.653 352.203 770.622 352.779C769.592 353.354 768.447 353.695 767.269 353.777C766.691 353.805 766.685 354.689 767.26 354.662C768.56 354.566 769.825 354.187 770.965 353.554C772.105 352.92 773.094 352.046 773.863 350.992C773.945 350.909 773.991 350.798 773.992 350.681C773.994 350.565 773.95 350.452 773.869 350.367C773.773 350.297 773.653 350.266 773.535 350.281C773.416 350.296 773.308 350.356 773.232 350.448Z" fill="white"/>
<path d="M55.9648 258.982H49.9648V260.982H55.9648V258.982Z" fill="#E6E6E6"/>
<path d="M811.099 260.982H798.92V258.982H811.099V260.982ZM786.74 260.982H774.561V258.982H786.74V260.982ZM762.381 260.982H750.202V258.982H762.381V260.982ZM738.022 260.982H725.842V258.982H738.022V260.982ZM713.663 260.982H701.483V258.982H713.663V260.982ZM689.304 260.982H677.124V258.982H689.304V260.982ZM664.944 260.982H652.765V258.982H664.944V260.982ZM640.585 260.982H628.406V258.982H640.585L640.585 260.982ZM616.226 260.982H604.047V258.982H616.226V260.982ZM591.867 260.982H579.688V258.982H591.867V260.982ZM567.508 260.982H555.328V258.982H567.508V260.982ZM543.149 260.982H530.969V258.982H543.149V260.982ZM518.79 260.982H506.61V258.982H518.79V260.982ZM494.43 260.982H482.251V258.982H494.43V260.982ZM470.071 260.982H457.892V258.982H470.071V260.982ZM445.712 260.982H433.532V258.982H445.712V260.982ZM421.353 260.982H409.173V258.982H421.353V260.982ZM396.994 260.982H384.814V258.982H396.994V260.982ZM372.634 260.982H360.455V258.982H372.634V260.982ZM348.275 260.982H336.096V258.982H348.275V260.982ZM323.916 260.982H311.736V258.982H323.916V260.982ZM299.557 260.982H287.377V258.982H299.557V260.982ZM275.198 260.982H263.018V258.982H275.198V260.982ZM250.838 260.982H238.659V258.982H250.838L250.838 260.982ZM226.479 260.982H214.3V258.982H226.479V260.982ZM202.12 260.982H189.94V258.982H202.12V260.982ZM177.761 260.982H165.581V258.982H177.761V260.982ZM153.402 260.982H141.222V258.982H153.402V260.982ZM129.042 260.982H116.863V258.982H129.042V260.982ZM104.683 260.982H92.5039V258.982H104.683V260.982ZM80.3242 260.982H68.1445V258.982H80.3242V260.982Z" fill="#E6E6E6"/>
<path d="M829.277 258.982H823.277V260.982H829.277V258.982Z" fill="#E6E6E6"/>
<path d="M55.9648 244.982H49.9648V246.982H55.9648V244.982Z" fill="#E6E6E6"/>
<path d="M811.099 246.982H798.92V244.982H811.099V246.982ZM786.74 246.982H774.561V244.982H786.74V246.982ZM762.381 246.982H750.202V244.982H762.381V246.982ZM738.022 246.982H725.842V244.982H738.022V246.982ZM713.663 246.982H701.483V244.982H713.663V246.982ZM689.304 246.982H677.124V244.982H689.304V246.982ZM664.944 246.982H652.765V244.982H664.944V246.982ZM640.585 246.982H628.406V244.982H640.585L640.585 246.982ZM616.226 246.982H604.047V244.982H616.226V246.982ZM591.867 246.982H579.688V244.982H591.867V246.982ZM567.508 246.982H555.328V244.982H567.508V246.982ZM543.149 246.982H530.969V244.982H543.149V246.982ZM518.79 246.982H506.61V244.982H518.79V246.982ZM494.43 246.982H482.251V244.982H494.43V246.982ZM470.071 246.982H457.892V244.982H470.071V246.982ZM445.712 246.982H433.532V244.982H445.712V246.982ZM421.353 246.982H409.173V244.982H421.353V246.982ZM396.994 246.982H384.814V244.982H396.994V246.982ZM372.634 246.982H360.455V244.982H372.634V246.982ZM348.275 246.982H336.096V244.982H348.275V246.982ZM323.916 246.982H311.736V244.982H323.916V246.982ZM299.557 246.982H287.377V244.982H299.557V246.982ZM275.198 246.982H263.018V244.982H275.198V246.982ZM250.838 246.982H238.659V244.982H250.838L250.838 246.982ZM226.479 246.982H214.3V244.982H226.479V246.982ZM202.12 246.982H189.94V244.982H202.12V246.982ZM177.761 246.982H165.581V244.982H177.761V246.982ZM153.402 246.982H141.222V244.982H153.402V246.982ZM129.042 246.982H116.863V244.982H129.042V246.982ZM104.683 246.982H92.5039V244.982H104.683V246.982ZM80.3242 246.982H68.1445V244.982H80.3242V246.982Z" fill="#E6E6E6"/>
<path d="M829.277 244.982H823.277V246.982H829.277V244.982Z" fill="#E6E6E6"/>
<path d="M55.9648 215.982H49.9648V217.982H55.9648V215.982Z" fill="#E6E6E6"/>
<path d="M811.099 217.982H798.92V215.982H811.099V217.982ZM786.74 217.982H774.561V215.982H786.74V217.982ZM762.381 217.982H750.202V215.982H762.381V217.982ZM738.022 217.982H725.842V215.982H738.022V217.982ZM713.663 217.982H701.483V215.982H713.663V217.982ZM689.304 217.982H677.124V215.982H689.304V217.982ZM664.944 217.982H652.765V215.982H664.944V217.982ZM640.585 217.982H628.406V215.982H640.585L640.585 217.982ZM616.226 217.982H604.047V215.982H616.226V217.982ZM591.867 217.982H579.688V215.982H591.867V217.982ZM567.508 217.982H555.328V215.982H567.508V217.982ZM543.149 217.982H530.969V215.982H543.149V217.982ZM518.79 217.982H506.61V215.982H518.79V217.982ZM494.43 217.982H482.251V215.982H494.43V217.982ZM470.071 217.982H457.892V215.982H470.071V217.982ZM445.712 217.982H433.532V215.982H445.712V217.982ZM421.353 217.982H409.173V215.982H421.353V217.982ZM396.994 217.982H384.814V215.982H396.994V217.982ZM372.634 217.982H360.455V215.982H372.634V217.982ZM348.275 217.982H336.096V215.982H348.275V217.982ZM323.916 217.982H311.736V215.982H323.916V217.982ZM299.557 217.982H287.377V215.982H299.557V217.982ZM275.198 217.982H263.018V215.982H275.198V217.982ZM250.838 217.982H238.659V215.982H250.838L250.838 217.982ZM226.479 217.982H214.3V215.982H226.479V217.982ZM202.12 217.982H189.94V215.982H202.12V217.982ZM177.761 217.982H165.581V215.982H177.761V217.982ZM153.402 217.982H141.222V215.982H153.402V217.982ZM129.042 217.982H116.863V215.982H129.042V217.982ZM104.683 217.982H92.5039V215.982H104.683V217.982ZM80.3242 217.982H68.1445V215.982H80.3242V217.982Z" fill="#E6E6E6"/>
<path d="M829.277 215.982H823.277V217.982H829.277V215.982Z" fill="#E6E6E6"/>
<path d="M55.9648 195.982H49.9648V197.982H55.9648V195.982Z" fill="#E6E6E6"/>
<path d="M811.099 197.982H798.92V195.982H811.099V197.982ZM786.74 197.982H774.561V195.982H786.74V197.982ZM762.381 197.982H750.202V195.982H762.381V197.982ZM738.022 197.982H725.842V195.982H738.022V197.982ZM713.663 197.982H701.483V195.982H713.663V197.982ZM689.304 197.982H677.124V195.982H689.304V197.982ZM664.944 197.982H652.765V195.982H664.944V197.982ZM640.585 197.982H628.406V195.982H640.585L640.585 197.982ZM616.226 197.982H604.047V195.982H616.226V197.982ZM591.867 197.982H579.688V195.982H591.867V197.982ZM567.508 197.982H555.328V195.982H567.508V197.982ZM543.149 197.982H530.969V195.982H543.149V197.982ZM518.79 197.982H506.61V195.982H518.79V197.982ZM494.43 197.982H482.251V195.982H494.43V197.982ZM470.071 197.982H457.892V195.982H470.071V197.982ZM445.712 197.982H433.532V195.982H445.712V197.982ZM421.353 197.982H409.173V195.982H421.353V197.982ZM396.994 197.982H384.814V195.982H396.994V197.982ZM372.634 197.982H360.455V195.982H372.634V197.982ZM348.275 197.982H336.096V195.982H348.275V197.982ZM323.916 197.982H311.736V195.982H323.916V197.982ZM299.557 197.982H287.377V195.982H299.557V197.982ZM275.198 197.982H263.018V195.982H275.198V197.982ZM250.838 197.982H238.659V195.982H250.838L250.838 197.982ZM226.479 197.982H214.3V195.982H226.479V197.982ZM202.12 197.982H189.94V195.982H202.12V197.982ZM177.761 197.982H165.581V195.982H177.761V197.982ZM153.402 197.982H141.222V195.982H153.402V197.982ZM129.042 197.982H116.863V195.982H129.042V197.982ZM104.683 197.982H92.5039V195.982H104.683V197.982ZM80.3242 197.982H68.1445V195.982H80.3242V197.982Z" fill="#E6E6E6"/>
<path d="M829.277 195.982H823.277V197.982H829.277V195.982Z" fill="#E6E6E6"/>
<path d="M55.9648 152.982H49.9648V154.982H55.9648V152.982Z" fill="#E6E6E6"/>
<path d="M811.099 154.982H798.92V152.982H811.099V154.982ZM786.74 154.982H774.561V152.982H786.74V154.982ZM762.381 154.982H750.202V152.982H762.381V154.982ZM738.022 154.982H725.842V152.982H738.022V154.982ZM713.663 154.982H701.483V152.982H713.663V154.982ZM689.304 154.982H677.124V152.982H689.304V154.982ZM664.944 154.982H652.765V152.982H664.944V154.982ZM640.585 154.982H628.406V152.982H640.585L640.585 154.982ZM616.226 154.982H604.047V152.982H616.226V154.982ZM591.867 154.982H579.688V152.982H591.867V154.982ZM567.508 154.982H555.328V152.982H567.508V154.982ZM543.149 154.982H530.969V152.982H543.149V154.982ZM518.79 154.982H506.61V152.982H518.79V154.982ZM494.43 154.982H482.251V152.982H494.43V154.982ZM470.071 154.982H457.892V152.982H470.071V154.982ZM445.712 154.982H433.532V152.982H445.712V154.982ZM421.353 154.982H409.173V152.982H421.353V154.982ZM396.994 154.982H384.814V152.982H396.994V154.982ZM372.634 154.982H360.455V152.982H372.634V154.982ZM348.275 154.982H336.096V152.982H348.275V154.982ZM323.916 154.982H311.736V152.982H323.916V154.982ZM299.557 154.982H287.377V152.982H299.557V154.982ZM275.198 154.982H263.018V152.982H275.198V154.982ZM250.838 154.982H238.659V152.982H250.838L250.838 154.982ZM226.479 154.982H214.3V152.982H226.479V154.982ZM202.12 154.982H189.94V152.982H202.12V154.982ZM177.761 154.982H165.581V152.982H177.761V154.982ZM153.402 154.982H141.222V152.982H153.402V154.982ZM129.042 154.982H116.863V152.982H129.042V154.982ZM104.683 154.982H92.5039V152.982H104.683V154.982ZM80.3242 154.982H68.1445V152.982H80.3242V154.982Z" fill="#E6E6E6"/>
<path d="M829.277 152.982H823.277V154.982H829.277V152.982Z" fill="#E6E6E6"/>
<path d="M340.49 95.1966C340.49 105.963 337.297 116.487 331.316 125.439C325.335 134.39 316.833 141.367 306.887 145.488C296.94 149.608 285.995 150.686 275.436 148.585C264.877 146.485 255.177 141.3 247.565 133.688C239.952 126.075 234.767 116.376 232.667 105.816C230.567 95.2571 231.645 84.3121 235.765 74.3655C239.885 64.4189 246.862 55.9174 255.813 49.9361C264.765 43.9548 275.289 40.7623 286.056 40.7623C293.213 40.7304 300.306 42.1166 306.924 44.8409C313.543 47.5652 319.556 51.5736 324.618 56.6347C329.679 61.6957 333.687 67.7092 336.411 74.3279C339.136 80.9465 340.522 88.0393 340.49 95.1966Z" fill="#F2F2F2"/>
<path d="M308.318 82.1713L308.048 82.6568C310.446 76.7485 308.266 69.4681 303.989 65.0131C299.713 60.5581 293.767 58.5214 287.913 57.7133C283.568 56.9469 279.099 57.2941 274.924 58.7227C268.94 61.028 264.368 66.3644 260.551 71.9157C258.805 74.4548 257.088 77.3496 257.262 80.5232C257.424 83.4683 259.172 85.9676 260.603 88.4662C262.035 90.9649 263.231 94.065 262.203 96.7921C261.591 98.4173 260.297 99.5878 259.247 100.917C258.197 102.247 257.333 104.044 257.84 105.712C258.066 106.35 258.452 106.919 258.963 107.363C259.474 107.806 260.091 108.11 260.755 108.244C262.039 108.459 263.353 108.428 264.626 108.153L297.995 103.111C300.263 102.768 302.413 101.883 304.265 100.529C306.116 99.1755 307.612 97.3943 308.626 95.3375C309.64 93.2806 310.141 91.0091 310.088 88.7166C310.034 86.424 309.427 84.1784 308.318 82.1713Z" fill="#2F2E41"/>
<path d="M283.494 102.879C292.505 102.879 299.809 95.5749 299.809 86.5646C299.809 77.5543 292.505 70.25 283.494 70.25C274.484 70.25 267.18 77.5543 267.18 86.5646C267.18 95.5749 274.484 102.879 283.494 102.879Z" fill="#FFB9B9"/>
<path d="M326.927 131.137C317.496 141.868 304.224 148.459 289.976 149.489C275.727 150.519 261.645 145.904 250.77 136.641L255.439 123.613C256.494 121.299 258.159 119.316 260.255 117.876C262.352 116.437 264.8 115.595 267.339 115.441L270.309 115.259L277.392 109.15C277.392 109.15 296.475 108.469 296.192 108.143L307.752 115.096L307.742 115.048L312.287 115.326C314.825 115.479 317.274 116.321 319.371 117.76C321.467 119.2 323.132 121.183 324.187 123.498L326.927 131.137Z" fill="#2463EB"/>
<path d="M298.97 71.4231C298.549 69.1952 296.276 68.1762 294.33 67.6824C288.683 66.2416 282.808 65.9191 277.037 66.7328C272.831 67.3328 268.524 68.6556 265.472 71.9393C263.01 74.7042 261.616 78.2562 261.538 81.9571C261.414 84.1699 261.908 86.3737 262.966 88.3213C263.439 89.228 264.14 89.9961 265 90.5502C265.86 91.1042 266.849 91.4253 267.87 91.4817L268.065 92.1624C272.289 91.482 276.315 89.8973 279.869 87.5168C283.423 85.1362 286.421 82.016 288.657 78.3696C287.758 81.5811 285.968 84.4724 283.495 86.7096C289.025 84.4968 293.832 80.7921 297.38 76.0081C298.349 74.722 299.29 73.118 298.97 71.4231Z" fill="#2F2E41"/>
<path d="M749.931 166.884C779.994 166.884 804.365 142.513 804.365 112.45C804.365 82.3867 779.994 58.0156 749.931 58.0156C719.867 58.0156 695.496 82.3867 695.496 112.45C695.496 142.513 719.867 166.884 749.931 166.884Z" fill="#F2F2F2"/>
<path d="M734.982 92.0247C739.227 92.0247 742.667 88.5839 742.667 84.3395C742.667 80.0951 739.227 76.6543 734.982 76.6543C730.738 76.6543 727.297 80.0951 727.297 84.3395C727.297 88.5839 730.738 92.0247 734.982 92.0247Z" fill="#2F2E41"/>
<path d="M747.278 121.229C758.03 121.229 766.747 112.513 766.747 101.76C766.747 91.0077 758.03 82.291 747.278 82.291C736.525 82.291 727.809 91.0077 727.809 101.76C727.809 112.513 736.525 121.229 747.278 121.229Z" fill="#2F2E41"/>
<path d="M748.891 121.224C757.629 121.224 764.712 114.141 764.712 105.403C764.712 96.6653 757.629 89.582 748.891 89.582C740.154 89.582 733.07 96.6653 733.07 105.403C733.07 114.141 740.154 121.224 748.891 121.224Z" fill="#9E616A"/>
<path d="M759.634 89.2757C756.861 87.5856 753.686 86.6713 750.439 86.6285C747.193 86.5857 743.994 87.416 741.178 89.0324C738.363 90.6488 736.033 92.9921 734.432 95.8172C732.832 98.6423 732.02 101.845 732.081 105.092C740.143 107.116 748.612 108.665 757.209 105.576L759.24 100.607L760.436 105.58C763.055 106.65 765.68 107.555 768.304 105.569C768.412 102.332 767.667 99.1235 766.146 96.2642C764.624 93.405 762.379 90.9951 759.634 89.2757Z" fill="#2F2E41"/>
<path d="M727.828 63.4767C725.13 62.3251 722.163 61.9515 719.264 62.3981C716.364 62.8448 713.647 64.094 711.421 66.0043C709.243 67.9691 707.586 70.4421 706.596 73.2028C705.606 75.9636 705.314 78.9264 705.746 81.8272C706.618 87.7273 710.205 92.8081 713.511 97.7718C716.817 102.736 720.047 108.175 720.044 114.139C720.041 118.435 718.335 122.554 715.3 125.593C712.264 128.633 708.147 130.345 703.852 130.353C708.893 132.524 714.155 134.737 719.638 134.479C725.121 134.222 730.868 130.697 731.763 125.282C732.407 121.379 730.493 117.574 728.896 113.956C726.295 108.06 724.415 101.872 723.297 95.5251C722.764 92.4961 722.416 89.3118 723.404 86.399C724.19 84.2406 725.65 82.392 727.566 81.1258C729.483 79.8597 731.756 79.2429 734.05 79.3666L735.862 77.7367C736.172 74.8195 735.565 71.8782 734.125 69.3223C732.685 66.7663 730.484 64.723 727.828 63.4767Z" fill="#2F2E41"/>
<path d="M790.888 148.871C781.457 159.602 768.185 166.194 753.937 167.223C739.688 168.253 725.606 163.638 714.73 154.375L719.399 141.347C720.455 139.033 722.12 137.05 724.216 135.611C726.313 134.171 728.761 133.329 731.3 133.176L734.27 132.993L741.353 126.885C741.353 126.885 760.436 126.203 760.153 125.877L771.713 132.83L771.703 132.782L776.247 133.06C778.786 133.213 781.235 134.055 783.332 135.495C785.428 136.934 787.093 138.918 788.148 141.232L790.888 148.871Z" fill="#2463EB"/>
<path d="M649.49 54.5309C649.471 65.297 646.26 75.8157 640.262 84.7568C634.265 93.6978 625.751 100.66 615.797 104.762C605.844 108.864 594.897 109.923 584.341 107.804C573.786 105.685 564.096 100.483 556.496 92.857C548.897 85.2308 543.73 75.5223 541.648 64.9594C539.567 54.3964 540.664 43.4534 544.802 33.5141C548.939 23.5749 555.931 15.0858 564.894 9.12031C573.856 3.15486 584.386 -0.0190032 595.152 8.56009e-05C602.306 -0.00579717 609.39 1.40209 615.998 4.14282C622.606 6.88355 628.607 10.9031 633.656 15.9705C638.706 21.0378 642.704 27.0531 645.421 33.6706C648.138 40.2881 649.521 47.3773 649.49 54.5309Z" fill="#F2F2F2"/>
<path d="M569.823 36.7269C572.074 29.5536 577.192 22.9744 584.271 20.5494C591.35 18.1244 601.716 21.8185 607.038 27.1224C616.772 36.8244 619.148 70.1542 612.46 80.6868C611.13 80.6164 606.539 80.5643 605.193 80.5139L603.288 74.1656V80.4513C601.143 80.385 598.981 80.3392 596.803 80.314C589.498 80.2234 582.513 77.3044 577.316 72.1705C572.119 67.0366 569.115 60.0878 568.936 52.7849C568.761 45.7986 568.936 39.5538 569.823 36.7269Z" fill="#2F2E41"/>
<path d="M594.248 60.5015C602.816 60.5015 609.761 53.5559 609.761 44.988C609.761 36.4202 602.816 29.4746 594.248 29.4746C585.68 29.4746 578.734 36.4202 578.734 44.988C578.734 53.5559 585.68 60.5015 594.248 60.5015Z" fill="#9E616A"/>
<path d="M580.859 31.364L598.722 22.4199C602.373 24.0655 605.519 26.6581 607.831 29.9288C610.143 33.1996 611.538 37.0293 611.871 41.0209L612.316 46.3539L604.837 44.4499L604.017 37.6307L602.747 43.918L599.295 43.0397L599.328 32.4528L595.874 43.0322L583.545 40.1997L580.859 31.364Z" fill="#2F2E41"/>
<path d="M635.446 90.4574C626.016 101.188 612.744 107.78 598.495 108.809C584.247 109.839 570.165 105.224 559.289 95.9613L563.958 82.9333C565.013 80.6194 566.678 78.6363 568.775 77.1967C570.871 75.757 573.32 74.9152 575.858 74.7614L578.829 74.5791L585.911 68.4706C585.911 68.4706 604.995 67.7892 604.712 67.4629L616.272 74.416L616.262 74.368L620.806 74.6463C623.345 74.7994 625.794 75.6409 627.89 77.0806C629.987 78.5203 631.652 80.5038 632.706 82.8181L635.446 90.4574Z" fill="#2463EB"/>
<path d="M445.407 196.884C475.47 196.884 499.841 172.513 499.841 142.45C499.841 112.387 475.47 88.0156 445.407 88.0156C415.344 88.0156 390.973 112.387 390.973 142.45C390.973 172.513 415.344 196.884 445.407 196.884Z" fill="#F2F2F2"/>
<path d="M443.907 149.194C453.504 149.194 461.283 141.414 461.283 131.817C461.283 122.221 453.504 114.441 443.907 114.441C434.311 114.441 426.531 122.221 426.531 131.817C426.531 141.414 434.311 149.194 443.907 149.194Z" fill="#FFB6B6"/>
<path d="M486.247 178.871C476.817 189.602 463.544 196.194 449.296 197.223C435.047 198.253 420.965 193.638 410.09 184.375L414.759 171.347C415.814 169.033 417.479 167.05 419.575 165.611C421.672 164.171 424.121 163.329 426.659 163.176L429.629 162.993L436.712 156.885C436.712 156.885 455.796 156.203 455.513 155.877L467.072 162.83L467.063 162.782L471.607 163.06C474.146 163.213 476.595 164.055 478.691 165.495C480.788 166.934 482.453 168.918 483.507 171.232L486.247 178.871Z" fill="#2463EB"/>
<path d="M462.234 121.042C460.766 115.786 457.43 111.248 452.852 108.277C449.204 105.944 444.652 104.753 440.519 105.987C436.386 107.221 432.965 111.276 433.235 115.659C432.47 115.457 431.663 115.475 430.907 115.708C430.15 115.942 429.474 116.382 428.956 116.98C427.919 118.204 427.198 119.664 426.856 121.232C425.53 126.145 425.617 131.333 427.109 136.198L427.027 136.896C429.043 136.563 430.573 134.833 431.524 132.99C432.475 131.146 433.022 129.102 434.053 127.303C435.084 125.505 436.795 123.901 438.837 123.845L438.657 126.966C440.414 126.061 442.171 125.156 443.928 124.251C443.51 125.251 443.092 126.25 442.674 127.25C444.208 126.609 445.742 125.967 447.277 125.326C447.105 126.287 446.934 127.249 446.762 128.21C447.164 127.375 447.732 126.631 448.43 126.023C449.128 125.414 449.943 124.953 450.824 124.668C451.705 124.383 452.635 124.28 453.558 124.365C454.48 124.449 455.376 124.721 456.19 125.161C458.025 126.396 459.347 128.256 459.91 130.395C460.468 132.528 460.767 134.721 460.801 136.926C463.172 131.976 463.681 126.337 462.234 121.042Z" fill="#2F2E41"/>
<path d="M130.27 221.631C160.334 221.631 184.705 197.259 184.705 167.196C184.705 137.133 160.334 112.762 130.27 112.762C100.207 112.762 75.8359 137.133 75.8359 167.196C75.8359 197.259 100.207 221.631 130.27 221.631Z" fill="#F2F2F2"/>
<path d="M129.073 172.843C138.193 172.843 145.587 165.449 145.587 156.329C145.587 147.208 138.193 139.814 129.073 139.814C119.952 139.814 112.559 147.208 112.559 156.329C112.559 165.449 119.952 172.843 129.073 172.843Z" fill="#9E616A"/>
<path d="M170.407 203.137C160.977 213.868 147.705 220.459 133.456 221.489C119.208 222.519 105.126 217.904 94.25 208.641L98.919 195.613C99.9741 193.299 101.639 191.316 103.736 189.876C105.832 188.437 108.281 187.595 110.819 187.441L113.79 187.259L120.872 181.15C120.872 181.15 139.956 180.469 139.673 180.143L151.232 187.096L151.223 187.048L155.767 187.326C158.306 187.479 160.755 188.321 162.851 189.76C164.948 191.2 166.613 193.183 167.667 195.498L170.407 203.137Z" fill="#2463EB"/>
<path d="M114.065 163.964C114.032 163.873 114.003 163.782 113.971 163.691C113.907 163.747 113.846 163.805 113.777 163.858L114.065 163.964Z" fill="#2F2E41"/>
<path d="M148.854 150.454C148.769 148.779 148.33 147.14 147.566 145.646C146.802 144.153 145.73 142.838 144.42 141.789C143.378 141.138 142.46 140.307 141.707 139.336C141.344 138.594 141.036 137.826 140.786 137.038C139.518 134.021 135.905 132.417 132.664 132.874C131.053 133.18 129.519 133.808 128.156 134.72C126.793 135.633 125.627 136.81 124.729 138.183C123.799 137.737 122.759 137.567 121.735 137.694C120.711 137.82 119.744 138.237 118.949 138.896C118.155 139.555 117.565 140.427 117.251 141.41C116.937 142.393 116.911 143.446 117.177 144.444C115.498 143.092 112.784 144.173 111.736 146.056C110.688 147.94 110.855 150.244 111.166 152.377C111.73 156.231 112.67 160.021 113.973 163.692C115.607 162.253 115.506 159.632 115.307 157.417C115.099 155.115 115.223 152.306 117.236 151.17C119.18 150.073 121.54 151.277 123.684 151.9C125.379 152.38 127.158 152.487 128.899 152.213C130.639 151.94 132.299 151.292 133.765 150.315C134.82 149.475 135.927 148.704 137.08 148.005C137.662 147.662 138.323 147.475 138.999 147.463C139.675 147.451 140.343 147.614 140.937 147.937C141.877 148.747 142.509 149.857 142.725 151.079C143.55 153.878 144.376 156.678 145.201 159.477C146.413 158.316 147.365 156.912 147.995 155.357C148.624 153.802 148.917 152.131 148.854 150.454Z" fill="#2F2E41"/>
<path d="M130.45 263.525H125.254V415.828H130.45V263.525Z" fill="#3F3D56"/>
<path d="M286.013 192.395H280.816V415.828H286.013V192.395Z" fill="#3F3D56"/>
<path d="M441.899 239.16H436.703V415.828H441.899V239.16Z" fill="#3F3D56"/>
<path d="M597.782 153.424H592.586V415.828H597.782V153.424Z" fill="#3F3D56"/>
<path d="M753.665 213.18H748.469V415.828H753.665V213.18Z" fill="#3F3D56"/>
<path d="M283.736 211.872C292.515 211.872 299.631 204.755 299.631 195.976C299.631 187.197 292.515 180.08 283.736 180.08C274.957 180.08 267.84 187.197 267.84 195.976C267.84 204.755 274.957 211.872 283.736 211.872Z" fill="#2463EB"/>
<path d="M595.505 170.303C604.284 170.303 611.401 163.186 611.401 154.407C611.401 145.628 604.284 138.512 595.505 138.512C586.726 138.512 579.609 145.628 579.609 154.407C579.609 163.186 586.726 170.303 595.505 170.303Z" fill="#2463EB"/>
<path d="M439.622 256.04C448.401 256.04 455.518 248.923 455.518 240.144C455.518 231.365 448.401 224.248 439.622 224.248C430.843 224.248 423.727 231.365 423.727 240.144C423.727 248.923 430.843 256.04 439.622 256.04Z" fill="#2463EB"/>
<path d="M127.853 279.422C136.632 279.422 143.749 272.306 143.749 263.527C143.749 254.748 136.632 247.631 127.853 247.631C119.074 247.631 111.957 254.748 111.957 263.527C111.957 272.306 119.074 279.422 127.853 279.422Z" fill="#2463EB"/>
<path d="M751.388 227.46C760.167 227.46 767.284 220.343 767.284 211.564C767.284 202.785 760.167 195.668 751.388 195.668C742.609 195.668 735.492 202.785 735.492 211.564C735.492 220.343 742.609 227.46 751.388 227.46Z" fill="#2463EB"/>
<path d="M862.892 414.258H18.9978L13.6992 416.907C13.6992 417.61 13.9784 418.284 14.4752 418.78C14.972 419.277 15.6459 419.556 16.3485 419.556H862.892C863.595 419.556 864.268 419.277 864.765 418.78C865.262 418.284 865.541 417.61 865.541 416.907C865.541 416.204 865.262 415.531 864.765 415.034C864.268 414.537 863.595 414.258 862.892 414.258Z" fill="#3F3D56"/>
<path d="M15.8958 431.547C24.6748 431.547 31.7915 424.431 31.7915 415.652C31.7915 406.873 24.6748 399.756 15.8958 399.756C7.11678 399.756 0 406.873 0 415.652C0 424.431 7.11678 431.547 15.8958 431.547Z" fill="#3F3D56"/>
<path d="M127.896 477.547C136.675 477.547 143.792 470.431 143.792 461.652C143.792 452.873 136.675 445.756 127.896 445.756C119.117 445.756 112 452.873 112 461.652C112 470.431 119.117 477.547 127.896 477.547Z" fill="#E6E6E6"/>
<path d="M283.896 477.547C292.675 477.547 299.792 470.431 299.792 461.652C299.792 452.873 292.675 445.756 283.896 445.756C275.117 445.756 268 452.873 268 461.652C268 470.431 275.117 477.547 283.896 477.547Z" fill="#E6E6E6"/>
<path d="M439.896 477.547C448.675 477.547 455.792 470.431 455.792 461.652C455.792 452.873 448.675 445.756 439.896 445.756C431.117 445.756 424 452.873 424 461.652C424 470.431 431.117 477.547 439.896 477.547Z" fill="#E6E6E6"/>
<path d="M594.896 477.547C603.675 477.547 610.792 470.431 610.792 461.652C610.792 452.873 603.675 445.756 594.896 445.756C586.117 445.756 579 452.873 579 461.652C579 470.431 586.117 477.547 594.896 477.547Z" fill="#E6E6E6"/>
<path d="M750.896 477.547C759.675 477.547 766.792 470.431 766.792 461.652C766.792 452.873 759.675 445.756 750.896 445.756C742.117 445.756 735 452.873 735 461.652C735 470.431 742.117 477.547 750.896 477.547Z" fill="#E6E6E6"/>
<path d="M867.896 431.547C876.675 431.547 883.792 424.431 883.792 415.652C883.792 406.873 876.675 399.756 867.896 399.756C859.117 399.756 852 406.873 852 415.652C852 424.431 859.117 431.547 867.896 431.547Z" fill="#3F3D56"/>
</g>
<defs>
<clipPath id="clip0_17741_142">
<rect width="883.792" height="477.548" fill="white"/>
</clipPath>
</defs>
</svg>
